{"width": 1280, "sample_rate": 44100, "id": "T0", "version": {"openshot-qt": "2.4.3", "libopenshot": "0.2.2"}, "channel_layout": 3, "markers": [], "tick_pixels": 100, "1": null, "profile": "HDV 720 24p", "clips": [{"perspective_c4_x": {"Points": [{"interpolation": 2, "co": {"Y": -1.0, "X": 1.0}}]}, "duration": 2.666666746139526, "perspective_c3_x": {"Points": [{"interpolation": 2, "co": {"Y": -1.0, "X": 1.0}}]}, "id": "AA9EUQYO2W", "waveform": false, "perspective_c1_y": {"Points": [{"interpolation": 2, "co": {"Y": -1.0, "X": 1.0}}]}, "scale_x": {"Points": [{"interpolation": 2, "co": {"Y": 1.0, "X": 1.0}}]}, "channel_filter": {"Points": [{"interpolation": 2, "co": {"Y": -1.0, "X": 1.0}}]}, "alpha": {"Points": [{"interpolation": 2, "co": {"Y": 1.0, "X": 1.0}}]}, "crop_height": {"Points": [{"interpolation": 2, "co": {"Y": -1.0, "X": 1.0}}]}, "reader": {"width": 1280, "pixel_format": 0, "audio_bit_rate": 0, "vcodec": "mpeg4", "has_audio": false, "sample_rate": 0, "audio_stream_index": -1, "video_bit_rate": 1949153, "acodec": "", "channel_layout": 4, "video_stream_index": 0, "height": 720, "audio_timebase": {"num": 1, "den": 1}, "has_video": true, "type": "FFmpegReader", "path": "..\\..\\cygwin64\\home\\john\\misc\\Manna for our Malices\\clock-logo.avi", "video_timebase": {"num": 1, "den": 24}, "fps": {"num": 24, "den": 1}, "display_ratio": {"num": 16, "den": 9}, "duration": 2.666666746139526, "video_length": "64", "top_field_first": true, "file_size": "649718", "channels": 0, "interlaced_frame": false, "has_single_image": false, "pixel_ratio": {"num": 1, "den": 1}}, "crop_width": {"Points": [{"interpolation": 2, "co": {"Y": -1.0, "X": 1.0}}]}, "location_y": {"Points": [{"interpolation": 2, "co": {"Y": 0.0, "X": 1.0}}]}, "rotation": {"Points": [{"interpolation": 2, "co": {"Y": 0.0, "X": 1.0}}]}, "start": 0, "channel_mapping": {"Points": [{"interpolation": 2, "co": {"Y": -1.0, "X": 1.0}}]}, "layer": 0, "has_video": {"Points": [{"interpolation": 2, "co": {"Y": -1.0, "X": 1.0}}]}, "end": 2.09, "scale": 1, "shear_y": {"Points": [{"interpolation": 2, "co": {"Y": 0.0, "X": 1.0}}]}, "effects": [], "image": ".openshot_qt\\thumbnail\\JKS6ET2OHD.png", "gravity": 4, "display": 0, "location_x": {"Points": [{"interpolation": 2, "co": {"Y": 0.0, "X": 1.0}}]}, "volume": {"Points": [{"interpolation": 2, "co": {"Y": 1.0, "X": 1.0}}]}, "wave_color": {"red": {"Points": [{"handle_type": 0, "handle_right": {"Y": 0.0, "X": 0.5}, "interpolation": 0, "handle_left": {"Y": 1.0, "X": 0.5}, "co": {"Y": 0.0, "X": 1.0}}]}, "alpha": {"Points": [{"handle_type": 0, "handle_right": {"Y": 0.0, "X": 0.5}, "interpolation": 0, "handle_left": {"Y": 1.0, "X": 0.5}, "co": {"Y": 255.0, "X": 1.0}}]}, "green": {"Points": [{"handle_type": 0, "handle_right": {"Y": 0.0, "X": 0.5}, "interpolation": 0, "handle_left": {"Y": 1.0, "X": 0.5}, "co": {"Y": 123.0, "X": 1.0}}]}, "blue": {"Points": [{"handle_type": 0, "handle_right": {"Y": 0.0, "X": 0.5}, "interpolation": 0, "handle_left": {"Y": 1.0, "X": 0.5}, "co": {"Y": 255.0, "X": 1.0}}]}}, "perspective_c2_x": {"Points": [{"interpolation": 2, "co": {"Y": -1.0, "X": 1.0}}]}, "crop_y": {"Points": [{"interpolation": 2, "co": {"Y": 0.0, "X": 1.0}}]}, "anchor": 0, "shear_x": {"Points": [{"interpolation": 2, "co": {"Y": 0.0, "X": 1.0}}]}, "time": {"Points": [{"interpolation": 2, "co": {"Y": 1.0, "X": 1.0}}]}, "perspective_c2_y": {"Points": [{"interpolation": 2, "co": {"Y": -1.0, "X": 1.0}}]}, "title": "clock-logo.avi", "perspective_c4_y": {"Points": [{"interpolation": 2, "co": {"Y": -1.0, "X": 1.0}}]}, "file_id": "JKS6ET2OHD", "perspective_c3_y": {"Points": [{"interpolation": 2, "co": {"Y": -1.0, "X": 1.0}}]}, "scale_y": {"Points": [{"interpolation": 2, "co": {"Y": 1.0, "X": 1.0}}]}, "crop_x": {"Points": [{"interpolation": 2, "co": {"Y": 0.0, "X": 1.0}}]}, "has_audio": {"Points": [{"interpolation": 2, "co": {"Y": -1.0, "X": 1.0}}]}, "perspective_c1_x": {"Points": [{"interpolation": 2, "co": {"Y": -1.0, "X": 1.0}}]}, "position": 0}, {"perspective_c4_x": {"Points": [{"interpolation": 2, "co": {"Y": -1.0, "X": 1.0}}]}, "duration": 2.666666746139526, "perspective_c3_x": {"Points": [{"interpolation": 2, "co": {"Y": -1.0, "X": 1.0}}]}, "id": "R28ZMR7JAB", "waveform": false, "perspective_c1_y": {"Points": [{"interpolation": 2, "co": {"Y": -1.0, "X": 1.0}}]}, "scale_x": {"Points": [{"interpolation": 2, "co": {"Y": 1.0, "X": 1.0}}]}, "channel_filter": {"Points": [{"interpolation": 2, "co": {"Y": -1.0, "X": 1.0}}]}, "alpha": {"Points": [{"interpolation": 2, "co": {"Y": 1.0, "X": 1.0}}, {"interpolation": 1, "co": {"Y": 0.5, "X": 65}}, {"interpolation": 1, "co": {"Y": 0.5, "X": 28}}]}, "crop_height": {"Points": [{"interpolation": 2, "co": {"Y": -1.0, "X": 1.0}}]}, "reader": {"width": 1280, "pixel_format": 0, "audio_bit_rate": 0, "vcodec": "mpeg4", "has_audio": false, "sample_rate": 0, "audio_stream_index": -1, "video_bit_rate": 1949153, "acodec": "", "channel_layout": 4, "video_stream_index": 0, "height": 720, "audio_timebase": {"num": 1, "den": 1}, "has_video": true, "type": "FFmpegReader", "path": "..\\..\\cygwin64\\home\\john\\misc\\Manna for our Malices\\clock-logo.avi", "video_timebase": {"num": 1, "den": 24}, "fps": {"num": 24, "den": 1}, "display_ratio": {"num": 16, "den": 9}, "duration": 2.666666746139526, "video_length": "64", "top_field_first": true, "file_size": "649718", "channels": 0, "interlaced_frame": false, "has_single_image": false, "pixel_ratio": {"num": 1, "den": 1}}, "crop_width": {"Points": [{"interpolation": 2, "co": {"Y": -1.0, "X": 1.0}}]}, "location_y": {"Points": [{"interpolation": 2, "co": {"Y": 0.0, "X": 1.0}}]}, "rotation": {"Points": [{"interpolation": 2, "co": {"Y": 0.0, "X": 1.0}}]}, "start": 0, "channel_mapping": {"Points": [{"interpolation": 2, "co": {"Y": -1.0, "X": 1.0}}]}, "layer": 1, "has_video": {"Points": [{"interpolation": 2, "co": {"Y": -1.0, "X": 1.0}}]}, "end": 1.1400000000000001, "scale": 1, "shear_y": {"Points": [{"interpolation": 2, "co": {"Y": 0.0, "X": 1.0}}]}, "effects": [{"has_video": true, "id": "R6UUDXOKYV", "class_name": "Mask", "type": "Mask", "position": 0.0, "has_audio": false, "reader": {}, "end": 0.0, "order": 0, "brightness": {"Points": []}, "start": 0.0, "name": "Alpha Mask / Wipe Transition", "contrast": {"Points": []}, "layer": 0, "short_name": "", "duration": 0.0, "description": "Uses a grayscale mask image to gradually wipe / transition between 2 images.", "replace_image": false}, {"has_video": true, "id": "HFVP93OBJD", "class_name": "Mask", "type": "Mask", "position": 0.0, "has_audio": false, "reader": {}, "end": 0.0, "order": 0, "brightness": {"Points": []}, "start": 0.0, "name": "Alpha Mask / Wipe Transition", "contrast": {"Points": []}, "layer": 0, "short_name": "", "duration": 0.0, "description": "Uses a grayscale mask image to gradually wipe / transition between 2 images.", "replace_image": false}], "image": ".openshot_qt\\thumbnail\\JKS6ET2OHD.png", "gravity": 4, "display": 0, "location_x": {"Points": [{"interpolation": 2, "co": {"Y": 0.0, "X": 1.0}}]}, "volume": {"Points": [{"interpolation": 2, "co": {"Y": 1.0, "X": 1.0}}]}, "wave_color": {"red": {"Points": [{"handle_type": 0, "handle_right": {"Y": 0.0, "X": 0.5}, "interpolation": 0, "handle_left": {"Y": 1.0, "X": 0.5}, "co": {"Y": 0.0, "X": 1.0}}]}, "alpha": {"Points": [{"handle_type": 0, "handle_right": {"Y": 0.0, "X": 0.5}, "interpolation": 0, "handle_left": {"Y": 1.0, "X": 0.5}, "co": {"Y": 255.0, "X": 1.0}}]}, "green": {"Points": [{"handle_type": 0, "handle_right": {"Y": 0.0, "X": 0.5}, "interpolation": 0, "handle_left": {"Y": 1.0, "X": 0.5}, "co": {"Y": 123.0, "X": 1.0}}]}, "blue": {"Points": [{"handle_type": 0, "handle_right": {"Y": 0.0, "X": 0.5}, "interpolation": 0, "handle_left": {"Y": 1.0, "X": 0.5}, "co": {"Y": 255.0, "X": 1.0}}]}}, "perspective_c2_x": {"Points": [{"interpolation": 2, "co": {"Y": -1.0, "X": 1.0}}]}, "crop_y": {"Points": [{"interpolation": 2, "co": {"Y": 0.0, "X": 1.0}}]}, "anchor": 0, "shear_x": {"Points": [{"interpolation": 2, "co": {"Y": 0.0, "X": 1.0}}]}, "time": {"Points": [{"interpolation": 2, "co": {"Y": 1.0, "X": 1.0}}]}, "perspective_c2_y": {"Points": [{"interpolation": 2, "co": {"Y": -1.0, "X": 1.0}}]}, "title": "clock-logo.avi", "perspective_c4_y": {"Points": [{"interpolation": 2, "co": {"Y": -1.0, "X": 1.0}}]}, "file_id": "JKS6ET2OHD", "perspective_c3_y": {"Points": [{"interpolation": 2, "co": {"Y": -1.0, "X": 1.0}}]}, "scale_y": {"Points": [{"interpolation": 2, "co": {"Y": 1.0, "X": 1.0}}]}, "crop_x": {"Points": [{"interpolation": 2, "co": {"Y": 0.0, "X": 1.0}}]}, "has_audio": {"Points": [{"interpolation": 2, "co": {"Y": -1.0, "X": 1.0}}]}, "perspective_c1_x": {"Points": [{"interpolation": 2, "co": {"Y": -1.0, "X": 1.0}}]}, "position": 0.96}, {"perspective_c4_x": {"Points": [{"interpolation": 2, "co": {"Y": -1.0, "X": 1.0}}]}, "perspective_c3_x": {"Points": [{"interpolation": 2, "co": {"Y": -1.0, "X": 1.0}}]}, "id": "2ZVVABAZHL", "waveform": false, "perspective_c1_y": {"Points": [{"interpolation": 2, "co": {"Y": -1.0, "X": 1.0}}]}, "scale_x": {"Points": [{"interpolation": 2, "co": {"Y": 1.0, "X": 1.0}}]}, "channel_filter": {"Points": [{"interpolation": 2, "co": {"Y": -1.0, "X": 1.0}}]}, "alpha": {"Points": [{"interpolation": 2, "co": {"Y": 1.0, "X": 1.0}}, {"interpolation": 1, "co": {"Y": 0.5, "X": 65}}, {"interpolation": 1, "co": {"Y": 1.0, "X": 28}}]}, "crop_height": {"Points": [{"interpolation": 2, "co": {"Y": -1.0, "X": 1.0}}]}, "reader": {"width": 1280, "pixel_format": 0, "audio_bit_rate": 0, "vcodec": "mpeg4", "has_audio": false, "sample_rate": 0, "audio_stream_index": -1, "video_bit_rate": 1949153, "acodec": "", "channel_layout": 4, "video_stream_index": 0, "height": 720, "audio_timebase": {"num": 1, "den": 1}, "has_video": true, "type": "FFmpegReader", "path": "..\\..\\cygwin64\\home\\john\\misc\\Manna for our Malices\\clock-logo.avi", "video_timebase": {"num": 1, "den": 24}, "fps": {"num": 24, "den": 1}, "display_ratio": {"num": 16, "den": 9}, "duration": 2.666666746139526, "video_length": "64", "top_field_first": true, "file_size": "649718", "channels": 0, "interlaced_frame": false, "has_single_image": false, "pixel_ratio": {"num": 1, "den": 1}}, "crop_width": {"Points": [{"interpolation": 2, "co": {"Y": -1.0, "X": 1.0}}]}, "location_y": {"Points": [{"interpolation": 2, "co": {"Y": 0.0, "X": 1.0}}]}, "rotation": {"Points": [{"interpolation": 2, "co": {"Y": 0.0, "X": 1.0}}]}, "start": 1.1400000000000001, "channel_mapping": {"Points": [{"interpolation": 2, "co": {"Y": -1.0, "X": 1.0}}]}, "end": 2.666666746139526, "layer": 1, "has_video": {"Points": [{"interpolation": 2, "co": {"Y": -1.0, "X": 1.0}}]}, "duration": 2.666666746139526, "scale": 1, "shear_y": {"Points": [{"interpolation": 2, "co": {"Y": 0.0, "X": 1.0}}]}, "effects": [{"has_video": true, "id": "R6UUDXOKYV", "class_name": "Mask", "type": "Mask", "position": 0.0, "has_audio": false, "reader": {}, "end": 0.0, "order": 0, "brightness": {"Points": []}, "start": 0.0, "name": "Alpha Mask / Wipe Transition", "contrast": {"Points": []}, "layer": 0, "short_name": "", "duration": 0.0, "description": "Uses a grayscale mask image to gradually wipe / transition between 2 images.", "replace_image": false}, {"has_video": true, "id": "HFVP93OBJD", "class_name": "Mask", "type": "Mask", "position": 0.0, "has_audio": false, "reader": {}, "end": 0.0, "order": 0, "brightness": {"Points": []}, "start": 0.0, "name": "Alpha Mask / Wipe Transition", "contrast": {"Points": []}, "layer": 0, "short_name": "", "duration": 0.0, "description": "Uses a grayscale mask image to gradually wipe / transition between 2 images.", "replace_image": false}], "image": ".openshot_qt\\thumbnail\\2ZVVABAZHL-28.png", "gravity": 4, "display": 0, "location_x": {"Points": [{"interpolation": 2, "co": {"Y": 0.0, "X": 1.0}}]}, "volume": {"Points": [{"interpolation": 2, "co": {"Y": 1.0, "X": 1.0}}]}, "wave_color": {"red": {"Points": [{"handle_type": 0, "handle_right": {"Y": 0.0, "X": 0.5}, "interpolation": 0, "handle_left": {"Y": 1.0, "X": 0.5}, "co": {"Y": 0.0, "X": 1.0}}]}, "alpha": {"Points": [{"handle_type": 0, "handle_right": {"Y": 0.0, "X": 0.5}, "interpolation": 0, "handle_left": {"Y": 1.0, "X": 0.5}, "co": {"Y": 255.0, "X": 1.0}}]}, "green": {"Points": [{"handle_type": 0, "handle_right": {"Y": 0.0, "X": 0.5}, "interpolation": 0, "handle_left": {"Y": 1.0, "X": 0.5}, "co": {"Y": 123.0, "X": 1.0}}]}, "blue": {"Points": [{"handle_type": 0, "handle_right": {"Y": 0.0, "X": 0.5}, "interpolation": 0, "handle_left": {"Y": 1.0, "X": 0.5}, "co": {"Y": 255.0, "X": 1.0}}]}}, "perspective_c2_x": {"Points": [{"interpolation": 2, "co": {"Y": -1.0, "X": 1.0}}]}, "crop_y": {"Points": [{"interpolation": 2, "co": {"Y": 0.0, "X": 1.0}}]}, "anchor": 0, "shear_x": {"Points": [{"interpolation": 2, "co": {"Y": 0.0, "X": 1.0}}]}, "time": {"Points": [{"interpolation": 2, "co": {"Y": 1.0, "X": 1.0}}]}, "perspective_c2_y": {"Points": [{"interpolation": 2, "co": {"Y": -1.0, "X": 1.0}}]}, "title": "clock-logo.avi", "perspective_c4_y": {"Points": [{"interpolation": 2, "co": {"Y": -1.0, "X": 1.0}}]}, "file_id": "JKS6ET2OHD", "perspective_c3_y": {"Points": [{"interpolation": 2, "co": {"Y": -1.0, "X": 1.0}}]}, "scale_y": {"Points": [{"interpolation": 2, "co": {"Y": 1.0, "X": 1.0}}]}, "crop_x": {"Points": [{"interpolation": 2, "co": {"Y": 0.0, "X": 1.0}}]}, "has_audio": {"Points": [{"interpolation": 2, "co": {"Y": -1.0, "X": 1.0}}]}, "perspective_c1_x": {"Points": [{"interpolation": 2, "co": {"Y": -1.0, "X": 1.0}}]}, "position": 2.1}, {"perspective_c4_x": {"Points": [{"interpolation": 2, "co": {"Y": -1.0, "X": 1.0}}]}, "duration": 86400.0, "crop_width": {"Points": [{"interpolation": 2, "co": {"Y": -1.0, "X": 1.0}}]}, "id": "DIA1B09W25", "waveform": false, "perspective_c1_y": {"Points": [{"interpolation": 2, "co": {"Y": -1.0, "X": 1.0}}]}, "scale_x": {"Points": [{"interpolation": 2, "co": {"Y": 1.0, "X": 1.0}}]}, "has_audio": {"Points": [{"interpolation": 2, "co": {"Y": -1.0, "X": 1.0}}]}, "alpha": {"Points": [{"interpolation": 2, "co": {"Y": 1.0, "X": 1.0}}]}, "crop_height": {"Points": [{"interpolation": 2, "co": {"Y": -1.0, "X": 1.0}}]}, "perspective_c3_x": {"Points": [{"interpolation": 2, "co": {"Y": -1.0, "X": 1.0}}]}, "reader": {"width": 1280, "pixel_format": -1, "audio_bit_rate": 0, "vcodec": "", "has_audio": false, "video_length": "2592000", "sample_rate": 0, "audio_stream_index": -1, "video_bit_rate": 0, "acodec": "", "channel_layout": 4, "video_stream_index": -1, "height": 720, "audio_timebase": {"num": 1, "den": 1}, "has_video": true, "path": "..\\..\\cygwin64\\home\\john\\misc\\Manna for our Malices\\game\\images\\science room.png", "video_timebase": {"num": 1, "den": 30}, "fps": {"num": 30, "den": 1}, "display_ratio": {"num": 16, "den": 9}, "duration": 86400.0, "type": "QtImageReader", "top_field_first": true, "file_size": "3686400", "channels": 0, "interlaced_frame": false, "has_single_image": true, "pixel_ratio": {"num": 1, "den": 1}}, "location_y": {"Points": [{"interpolation": 2, "co": {"Y": 0.0, "X": 1.0}}]}, "rotation": {"Points": [{"interpolation": 2, "co": {"Y": 0.0, "X": 1.0}}]}, "start": 0, "channel_mapping": {"Points": [{"interpolation": 2, "co": {"Y": -1.0, "X": 1.0}}]}, "layer": 0, "has_video": {"Points": [{"interpolation": 2, "co": {"Y": -1.0, "X": 1.0}}]}, "end": 4.404999999999999, "scale": 1, "shear_y": {"Points": [{"interpolation": 2, "co": {"Y": 0.0, "X": 1.0}}]}, "effects": [], "image": ".openshot_qt\\thumbnail\\R9DQYF4FVX.png", "gravity": 4, "display": 0, "location_x": {"Points": [{"interpolation": 2, "co": {"Y": 0.0, "X": 1.0}}]}, "volume": {"Points": [{"interpolation": 2, "co": {"Y": 1.0, "X": 1.0}}]}, "wave_color": {"red": {"Points": [{"handle_type": 0, "handle_right": {"Y": 0.0, "X": 0.5}, "interpolation": 0, "handle_left": {"Y": 1.0, "X": 0.5}, "co": {"Y": 0.0, "X": 1.0}}]}, "alpha": {"Points": [{"handle_type": 0, "handle_right": {"Y": 0.0, "X": 0.5}, "interpolation": 0, "handle_left": {"Y": 1.0, "X": 0.5}, "co": {"Y": 255.0, "X": 1.0}}]}, "green": {"Points": [{"handle_type": 0, "handle_right": {"Y": 0.0, "X": 0.5}, "interpolation": 0, "handle_left": {"Y": 1.0, "X": 0.5}, "co": {"Y": 123.0, "X": 1.0}}]}, "blue": {"Points": [{"handle_type": 0, "handle_right": {"Y": 0.0, "X": 0.5}, "interpolation": 0, "handle_left": {"Y": 1.0, "X": 0.5}, "co": {"Y": 255.0, "X": 1.0}}]}}, "perspective_c2_x": {"Points": [{"interpolation": 2, "co": {"Y": -1.0, "X": 1.0}}]}, "crop_y": {"Points": [{"interpolation": 2, "co": {"Y": 0.0, "X": 1.0}}]}, "anchor": 0, "shear_x": {"Points": [{"interpolation": 2, "co": {"Y": 0.0, "X": 1.0}}]}, "time": {"Points": [{"interpolation": 2, "co": {"Y": 1.0, "X": 1.0}}]}, "perspective_c2_y": {"Points": [{"interpolation": 2, "co": {"Y": -1.0, "X": 1.0}}]}, "title": "science room.png", "perspective_c4_y": {"Points": [{"interpolation": 2, "co": {"Y": -1.0, "X": 1.0}}]}, "file_id": "R9DQYF4FVX", "perspective_c3_y": {"Points": [{"interpolation": 2, "co": {"Y": -1.0, "X": 1.0}}]}, "scale_y": {"Points": [{"interpolation": 2, "co": {"Y": 1.0, "X": 1.0}}]}, "crop_x": {"Points": [{"interpolation": 2, "co": {"Y": 0.0, "X": 1.0}}]}, "channel_filter": {"Points": [{"interpolation": 2, "co": {"Y": -1.0, "X": 1.0}}]}, "perspective_c1_x": {"Points": [{"interpolation": 2, "co": {"Y": -1.0, "X": 1.0}}]}, "position": 3.625}, {"perspective_c4_x": {"Points": [{"interpolation": 2, "co": {"Y": -1.0, "X": 1.0}}]}, "duration": 86400.0, "crop_width": {"Points": [{"interpolation": 2, "co": {"Y": -1.0, "X": 1.0}}]}, "id": "66YLRK0WNU", "waveform": false, "perspective_c1_y": {"Points": [{"interpolation": 2, "co": {"Y": -1.0, "X": 1.0}}]}, "scale_x": {"Points": [{"interpolation": 2, "co": {"Y": 1.0, "X": 1.0}}]}, "has_audio": {"Points": [{"interpolation": 2, "co": {"Y": -1.0, "X": 1.0}}]}, "alpha": {"Points": [{"interpolation": 2, "co": {"Y": 1.0, "X": 1.0}}]}, "crop_height": {"Points": [{"interpolation": 2, "co": {"Y": -1.0, "X": 1.0}}]}, "perspective_c3_x": {"Points": [{"interpolation": 2, "co": {"Y": -1.0, "X": 1.0}}]}, "reader": {"width": 480, "pixel_format": -1, "audio_bit_rate": 0, "vcodec": "", "has_audio": false, "video_length": "2592000", "sample_rate": 0, "audio_stream_index": -1, "video_bit_rate": 0, "acodec": "", "channel_layout": 4, "video_stream_index": -1, "height": 640, "audio_timebase": {"num": 1, "den": 1}, "has_video": true, "path": "..\\..\\cygwin64\\home\\john\\misc\\Manna for our Malices\\game\\images\\aoi hearteyes.png", "video_timebase": {"num": 1, "den": 30}, "fps": {"num": 30, "den": 1}, "display_ratio": {"num": 3, "den": 4}, "duration": 86400.0, "type": "QtImageReader", "top_field_first": true, "file_size": "1228800", "channels": 0, "interlaced_frame": false, "has_single_image": true, "pixel_ratio": {"num": 1, "den": 1}}, "location_y": {"Points": [{"interpolation": 2, "co": {"Y": 0.0, "X": 1.0}}]}, "rotation": {"Points": [{"interpolation": 2, "co": {"Y": 0.0, "X": 1.0}}]}, "start": 0, "channel_mapping": {"Points": [{"interpolation": 2, "co": {"Y": -1.0, "X": 1.0}}]}, "layer": 1, "has_video": {"Points": [{"interpolation": 2, "co": {"Y": -1.0, "X": 1.0}}]}, "end": 4.395, "scale": 1, "shear_y": {"Points": [{"interpolation": 2, "co": {"Y": 0.0, "X": 1.0}}]}, "effects": [], "image": ".openshot_qt\\thumbnail\\E5AF822S8G.png", "gravity": 4, "display": 0, "location_x": {"Points": [{"interpolation": 1, "co": {"Y": -0.41, "X": 1.0}}, {"interpolation": 1, "co": {"Y": 0.38, "X": 106}}]}, "volume": {"Points": [{"interpolation": 2, "co": {"Y": 1.0, "X": 1.0}}]}, "wave_color": {"red": {"Points": [{"handle_type": 0, "handle_right": {"Y": 0.0, "X": 0.5}, "interpolation": 0, "handle_left": {"Y": 1.0, "X": 0.5}, "co": {"Y": 0.0, "X": 1.0}}]}, "alpha": {"Points": [{"handle_type": 0, "handle_right": {"Y": 0.0, "X": 0.5}, "interpolation": 0, "handle_left": {"Y": 1.0, "X": 0.5}, "co": {"Y": 255.0, "X": 1.0}}]}, "green": {"Points": [{"handle_type": 0, "handle_right": {"Y": 0.0, "X": 0.5}, "interpolation": 0, "handle_left": {"Y": 1.0, "X": 0.5}, "co": {"Y": 123.0, "X": 1.0}}]}, "blue": {"Points": [{"handle_type": 0, "handle_right": {"Y": 0.0, "X": 0.5}, "interpolation": 0, "handle_left": {"Y": 1.0, "X": 0.5}, "co": {"Y": 255.0, "X": 1.0}}]}}, "perspective_c2_x": {"Points": [{"interpolation": 2, "co": {"Y": -1.0, "X": 1.0}}]}, "crop_y": {"Points": [{"interpolation": 2, "co": {"Y": 0.0, "X": 1.0}}]}, "anchor": 0, "shear_x": {"Points": [{"interpolation": 2, "co": {"Y": 0.0, "X": 1.0}}]}, "time": {"Points": [{"interpolation": 2, "co": {"Y": 1.0, "X": 1.0}}]}, "perspective_c2_y": {"Points": [{"interpolation": 2, "co": {"Y": -1.0, "X": 1.0}}]}, "title": "aoi hearteyes.png", "perspective_c4_y": {"Points": [{"interpolation": 2, "co": {"Y": -1.0, "X": 1.0}}]}, "file_id": "E5AF822S8G", "perspective_c3_y": {"Points": [{"interpolation": 2, "co": {"Y": -1.0, "X": 1.0}}]}, "scale_y": {"Points": [{"interpolation": 2, "co": {"Y": 1.0, "X": 1.0}}]}, "crop_x": {"Points": [{"interpolation": 2, "co": {"Y": 0.0, "X": 1.0}}]}, "channel_filter": {"Points": [{"interpolation": 2, "co": {"Y": -1.0, "X": 1.0}}]}, "perspective_c1_x": {"Points": [{"interpolation": 2, "co": {"Y": -1.0, "X": 1.0}}]}, "position": 3.635}, {"perspective_c4_x": {"Points": [{"interpolation": 2, "co": {"Y": -1.0, "X": 1.0}}]}, "perspective_c3_x": {"Points": [{"interpolation": 2, "co": {"Y": -1.0, "X": 1.0}}]}, "crop_y": {"Points": [{"interpolation": 2, "co": {"Y": 0.0, "X": 1.0}}]}, "channel_mapping": {"Points": [{"interpolation": 2, "co": {"Y": -1.0, "X": 1.0}}]}, "id": "K05DFADL8K", "waveform": false, "position": 7.999999999999999, "scale_x": {"Points": [{"interpolation": 2, "co": {"Y": 1.0, "X": 1.0}}]}, "channel_filter": {"Points": [{"interpolation": 2, "co": {"Y": -1.0, "X": 1.0}}]}, "alpha": {"Points": [{"interpolation": 2, "co": {"Y": 1.0, "X": 1.0}}]}, "crop_height": {"Points": [{"interpolation": 2, "co": {"Y": -1.0, "X": 1.0}}]}, "crop_width": {"Points": [{"interpolation": 2, "co": {"Y": -1.0, "X": 1.0}}]}, "reader": {"width": 1280, "pixel_format": -1, "audio_bit_rate": 0, "vcodec": "", "has_audio": false, "video_length": "2592000", "sample_rate": 0, "audio_stream_index": -1, "video_bit_rate": 0, "acodec": "", "channel_layout": 4, "video_stream_index": -1, "height": 720, "audio_timebase": {"num": 1, "den": 1}, "has_video": true, "path": "..\\..\\cygwin64\\home\\john\\misc\\Manna for our Malices\\game\\images\\science room.png", "video_timebase": {"num": 1, "den": 30}, "fps": {"num": 30, "den": 1}, "display_ratio": {"num": 16, "den": 9}, "duration": 86400.0, "type": "QtImageReader", "top_field_first": true, "file_size": "3686400", "channels": 0, "interlaced_frame": false, "has_single_image": true, "pixel_ratio": {"num": 1, "den": 1}}, "location_y": {"Points": [{"interpolation": 2, "co": {"Y": 0.0, "X": 1.0}}]}, "rotation": {"Points": [{"interpolation": 2, "co": {"Y": 0.0, "X": 1.0}}]}, "start": 4.374999999999999, "scale_y": {"Points": [{"interpolation": 2, "co": {"Y": 1.0, "X": 1.0}}]}, "layer": 0, "has_video": {"Points": [{"interpolation": 2, "co": {"Y": -1.0, "X": 1.0}}]}, "end": 4.404999999999999, "scale": 1, "shear_y": {"Points": [{"interpolation": 2, "co": {"Y": 0.0, "X": 1.0}}]}, "effects": [], "image": ".openshot_qt\\thumbnail\\K05DFADL8K-133.png", "gravity": 4, "display": 0, "location_x": {"Points": [{"interpolation": 2, "co": {"Y": 0.0, "X": 1.0}}]}, "volume": {"Points": [{"interpolation": 2, "co": {"Y": 1.0, "X": 1.0}}]}, "wave_color": {"red": {"Points": [{"handle_type": 0, "handle_right": {"Y": 0.0, "X": 0.5}, "interpolation": 0, "handle_left": {"Y": 1.0, "X": 0.5}, "co": {"Y": 0.0, "X": 1.0}}]}, "alpha": {"Points": [{"handle_type": 0, "handle_right": {"Y": 0.0, "X": 0.5}, "interpolation": 0, "handle_left": {"Y": 1.0, "X": 0.5}, "co": {"Y": 255.0, "X": 1.0}}]}, "green": {"Points": [{"handle_type": 0, "handle_right": {"Y": 0.0, "X": 0.5}, "interpolation": 0, "handle_left": {"Y": 1.0, "X": 0.5}, "co": {"Y": 123.0, "X": 1.0}}]}, "blue": {"Points": [{"handle_type": 0, "handle_right": {"Y": 0.0, "X": 0.5}, "interpolation": 0, "handle_left": {"Y": 1.0, "X": 0.5}, "co": {"Y": 255.0, "X": 1.0}}]}}, "perspective_c2_x": {"Points": [{"interpolation": 2, "co": {"Y": -1.0, "X": 1.0}}]}, "duration": 86400.0, "anchor": 0, "shear_x": {"Points": [{"interpolation": 2, "co": {"Y": 0.0, "X": 1.0}}]}, "time": {"Points": [{"interpolation": 2, "co": {"Y": 1.0, "X": 1.0}}]}, "perspective_c2_y": {"Points": [{"interpolation": 2, "co": {"Y": -1.0, "X": 1.0}}]}, "title": "science room.png", "perspective_c4_y": {"Points": [{"interpolation": 2, "co": {"Y": -1.0, "X": 1.0}}]}, "file_id": "R9DQYF4FVX", "perspective_c3_y": {"Points": [{"interpolation": 2, "co": {"Y": -1.0, "X": 1.0}}]}, "perspective_c1_y": {"Points": [{"interpolation": 2, "co": {"Y": -1.0, "X": 1.0}}]}, "crop_x": {"Points": [{"interpolation": 2, "co": {"Y": 0.0, "X": 1.0}}]}, "has_audio": {"Points": [{"interpolation": 2, "co": {"Y": -1.0, "X": 1.0}}]}, "perspective_c1_x": {"Points": [{"interpolation": 2, "co": {"Y": -1.0, "X": 1.0}}]}}, {"perspective_c4_x": {"Points": [{"interpolation": 2, "co": {"Y": -1.0, "X": 1.0}}]}, "perspective_c3_x": {"Points": [{"interpolation": 2, "co": {"Y": -1.0, "X": 1.0}}]}, "crop_y": {"Points": [{"interpolation": 2, "co": {"Y": 0.0, "X": 1.0}}]}, "channel_mapping": {"Points": [{"interpolation": 2, "co": {"Y": -1.0, "X": 1.0}}]}, "id": "JWMYX9KQZY", "waveform": false, "position": 8.03, "scale_x": {"Points": [{"interpolation": 2, "co": {"Y": 1.0, "X": 1.0}}]}, "channel_filter": {"Points": [{"interpolation": 2, "co": {"Y": -1.0, "X": 1.0}}]}, "alpha": {"Points": [{"interpolation": 2, "co": {"Y": 1.0, "X": 1.0}}]}, "crop_height": {"Points": [{"interpolation": 2, "co": {"Y": -1.0, "X": 1.0}}]}, "crop_width": {"Points": [{"interpolation": 2, "co": {"Y": -1.0, "X": 1.0}}]}, "reader": {"width": 1280, "pixel_format": -1, "audio_bit_rate": 0, "vcodec": "", "has_audio": false, "video_length": "2592000", "sample_rate": 0, "audio_stream_index": -1, "video_bit_rate": 0, "acodec": "", "channel_layout": 4, "video_stream_index": -1, "height": 720, "audio_timebase": {"num": 1, "den": 1}, "has_video": true, "path": "..\\..\\cygwin64\\home\\john\\misc\\Manna for our Malices\\game\\images\\science room.png", "video_timebase": {"num": 1, "den": 30}, "fps": {"num": 30, "den": 1}, "display_ratio": {"num": 16, "den": 9}, "duration": 86400.0, "type": "QtImageReader", "top_field_first": true, "file_size": "3686400", "channels": 0, "interlaced_frame": false, "has_single_image": true, "pixel_ratio": {"num": 1, "den": 1}}, "location_y": {"Points": [{"interpolation": 2, "co": {"Y": 0.0, "X": 1.0}}]}, "rotation": {"Points": [{"interpolation": 2, "co": {"Y": 0.0, "X": 1.0}}]}, "start": 4.404999999999999, "scale_y": {"Points": [{"interpolation": 2, "co": {"Y": 1.0, "X": 1.0}}]}, "layer": 0, "has_video": {"Points": [{"interpolation": 2, "co": {"Y": -1.0, "X": 1.0}}]}, "end": 4.404999999999999, "scale": 1, "shear_y": {"Points": [{"interpolation": 2, "co": {"Y": 0.0, "X": 1.0}}]}, "effects": [], "image": ".openshot_qt\\thumbnail\\JWMYX9KQZY-133.png", "gravity": 4, "display": 0, "location_x": {"Points": [{"interpolation": 2, "co": {"Y": 0.0, "X": 1.0}}]}, "volume": {"Points": [{"interpolation": 2, "co": {"Y": 1.0, "X": 1.0}}]}, "wave_color": {"red": {"Points": [{"handle_type": 0, "handle_right": {"Y": 0.0, "X": 0.5}, "interpolation": 0, "handle_left": {"Y": 1.0, "X": 0.5}, "co": {"Y": 0.0, "X": 1.0}}]}, "alpha": {"Points": [{"handle_type": 0, "handle_right": {"Y": 0.0, "X": 0.5}, "interpolation": 0, "handle_left": {"Y": 1.0, "X": 0.5}, "co": {"Y": 255.0, "X": 1.0}}]}, "green": {"Points": [{"handle_type": 0, "handle_right": {"Y": 0.0, "X": 0.5}, "interpolation": 0, "handle_left": {"Y": 1.0, "X": 0.5}, "co": {"Y": 123.0, "X": 1.0}}]}, "blue": {"Points": [{"handle_type": 0, "handle_right": {"Y": 0.0, "X": 0.5}, "interpolation": 0, "handle_left": {"Y": 1.0, "X": 0.5}, "co": {"Y": 255.0, "X": 1.0}}]}}, "perspective_c2_x": {"Points": [{"interpolation": 2, "co": {"Y": -1.0, "X": 1.0}}]}, "duration": 86400.0, "anchor": 0, "shear_x": {"Points": [{"interpolation": 2, "co": {"Y": 0.0, "X": 1.0}}]}, "time": {"Points": [{"interpolation": 2, "co": {"Y": 1.0, "X": 1.0}}]}, "perspective_c2_y": {"Points": [{"interpolation": 2, "co": {"Y": -1.0, "X": 1.0}}]}, "title": "science room.png", "perspective_c4_y": {"Points": [{"interpolation": 2, "co": {"Y": -1.0, "X": 1.0}}]}, "file_id": "R9DQYF4FVX", "perspective_c3_y": {"Points": [{"interpolation": 2, "co": {"Y": -1.0, "X": 1.0}}]}, "perspective_c1_y": {"Points": [{"interpolation": 2, "co": {"Y": -1.0, "X": 1.0}}]}, "crop_x": {"Points": [{"interpolation": 2, "co": {"Y": 0.0, "X": 1.0}}]}, "has_audio": {"Points": [{"interpolation": 2, "co": {"Y": -1.0, "X": 1.0}}]}, "perspective_c1_x": {"Points": [{"interpolation": 2, "co": {"Y": -1.0, "X": 1.0}}]}}, {"perspective_c4_x": {"Points": [{"interpolation": 2, "co": {"Y": -1.0, "X": 1.0}}]}, "perspective_c3_x": {"Points": [{"interpolation": 2, "co": {"Y": -1.0, "X": 1.0}}]}, "id": "5F0GNAGQOM", "waveform": false, "crop_y": {"Points": [{"interpolation": 2, "co": {"Y": 0.0, "X": 1.0}}]}, "scale_x": {"Points": [{"interpolation": 2, "co": {"Y": 1.0, "X": 1.0}}]}, "has_audio": {"Points": [{"interpolation": 2, "co": {"Y": -1.0, "X": 1.0}}]}, "alpha": {"Points": [{"interpolation": 2, "co": {"Y": 1.0, "X": 1.0}}]}, "crop_height": {"Points": [{"interpolation": 2, "co": {"Y": -1.0, "X": 1.0}}]}, "reader": {"width": 1280, "has_audio": false, "audio_bit_rate": 0, "vcodec": "", "interlaced_frame": false, "pixel_format": -1, "audio_stream_index": -1, "video_bit_rate": 0, "acodec": "", "channel_layout": 4, "video_stream_index": -1, "fps": {"num": 30, "den": 1}, "audio_timebase": {"num": 1, "den": 1}, "has_video": true, "sample_rate": 0, "type": "QtImageReader", "path": "..\\..\\cygwin64\\home\\john\\misc\\Manna for our Malices\\game\\images\\bad end aoi epilogue.png", "video_timebase": {"num": 1, "den": 30}, "height": 720, "display_ratio": {"num": 16, "den": 9}, "duration": 86400.0, "video_length": "2592000", "top_field_first": true, "file_size": "3686400", "channels": 0, "has_single_image": true, "pixel_ratio": {"num": 1, "den": 1}}, "crop_width": {"Points": [{"interpolation": 2, "co": {"Y": -1.0, "X": 1.0}}]}, "location_y": {"Points": [{"interpolation": 2, "co": {"Y": 0.0, "X": 1.0}}]}, "rotation": {"Points": [{"interpolation": 2, "co": {"Y": 0.0, "X": 1.0}}]}, "start": 0, "channel_mapping": {"Points": [{"interpolation": 2, "co": {"Y": -1.0, "X": 1.0}}]}, "layer": 0, "image": ".openshot_qt\\thumbnail\\7WWUKZ8YO1.png", "end": 0.14000000000000057, "scale": 1, "shear_y": {"Points": [{"interpolation": 2, "co": {"Y": 0.0, "X": 1.0}}]}, "effects": [], "has_video": {"Points": [{"interpolation": 2, "co": {"Y": -1.0, "X": 1.0}}]}, "gravity": 4, "display": 0, "location_x": {"Points": [{"interpolation": 2, "co": {"Y": 0.0, "X": 1.0}}]}, "volume": {"Points": [{"interpolation": 2, "co": {"Y": 1.0, "X": 1.0}}]}, "wave_color": {"red": {"Points": [{"handle_type": 0, "handle_right": {"Y": 0.0, "X": 0.5}, "interpolation": 0, "handle_left": {"Y": 1.0, "X": 0.5}, "co": {"Y": 0.0, "X": 1.0}}]}, "alpha": {"Points": [{"handle_type": 0, "handle_right": {"Y": 0.0, "X": 0.5}, "interpolation": 0, "handle_left": {"Y": 1.0, "X": 0.5}, "co": {"Y": 255.0, "X": 1.0}}]}, "green": {"Points": [{"handle_type": 0, "handle_right": {"Y": 0.0, "X": 0.5}, "interpolation": 0, "handle_left": {"Y": 1.0, "X": 0.5}, "co": {"Y": 123.0, "X": 1.0}}]}, "blue": {"Points": [{"handle_type": 0, "handle_right": {"Y": 0.0, "X": 0.5}, "interpolation": 0, "handle_left": {"Y": 1.0, "X": 0.5}, "co": {"Y": 255.0, "X": 1.0}}]}}, "perspective_c2_x": {"Points": [{"interpolation": 2, "co": {"Y": -1.0, "X": 1.0}}]}, "crop_x": {"Points": [{"interpolation": 2, "co": {"Y": 0.0, "X": 1.0}}]}, "duration": 86400.0, "anchor": 0, "shear_x": {"Points": [{"interpolation": 2, "co": {"Y": 0.0, "X": 1.0}}]}, "perspective_c1_y": {"Points": [{"interpolation": 2, "co": {"Y": -1.0, "X": 1.0}}]}, "perspective_c2_y": {"Points": [{"interpolation": 2, "co": {"Y": -1.0, "X": 1.0}}]}, "title": "bad end aoi epilogue.png", "perspective_c4_y": {"Points": [{"interpolation": 2, "co": {"Y": -1.0, "X": 1.0}}]}, "file_id": "7WWUKZ8YO1", "perspective_c3_y": {"Points": [{"interpolation": 2, "co": {"Y": -1.0, "X": 1.0}}]}, "scale_y": {"Points": [{"interpolation": 2, "co": {"Y": 1.0, "X": 1.0}}]}, "time": {"Points": [{"interpolation": 2, "co": {"Y": 1.0, "X": 1.0}}]}, "position": 8.03, "channel_filter": {"Points": [{"interpolation": 2, "co": {"Y": -1.0, "X": 1.0}}]}, "perspective_c1_x": {"Points": [{"interpolation": 2, "co": {"Y": -1.0, "X": 1.0}}]}}, {"perspective_c4_x": {"Points": [{"interpolation": 2, "co": {"Y": -1.0, "X": 1.0}}]}, "perspective_c3_x": {"Points": [{"interpolation": 2, "co": {"Y": -1.0, "X": 1.0}}]}, "id": "ZQY282DH7Q", "waveform": false, "crop_y": {"Points": [{"interpolation": 2, "co": {"Y": 0.0, "X": 1.0}}]}, "scale_x": {"Points": [{"interpolation": 2, "co": {"Y": 1.0, "X": 1.0}}]}, "has_audio": {"Points": [{"interpolation": 2, "co": {"Y": -1.0, "X": 1.0}}]}, "alpha": {"Points": [{"interpolation": 2, "co": {"Y": 1.0, "X": 1.0}}]}, "crop_height": {"Points": [{"interpolation": 2, "co": {"Y": -1.0, "X": 1.0}}]}, "reader": {"width": 480, "has_audio": false, "audio_bit_rate": 0, "vcodec": "", "interlaced_frame": false, "pixel_format": -1, "audio_stream_index": -1, "video_bit_rate": 0, "acodec": "", "channel_layout": 4, "video_stream_index": -1, "fps": {"num": 30, "den": 1}, "audio_timebase": {"num": 1, "den": 1}, "has_video": true, "sample_rate": 0, "type": "QtImageReader", "path": "..\\..\\cygwin64\\home\\john\\misc\\Manna for our Malices\\game\\images\\aoi yandere2.png", "video_timebase": {"num": 1, "den": 30}, "height": 640, "display_ratio": {"num": 3, "den": 4}, "duration": 86400.0, "video_length": "2592000", "top_field_first": true, "file_size": "1228800", "channels": 0, "has_single_image": true, "pixel_ratio": {"num": 1, "den": 1}}, "crop_width": {"Points": [{"interpolation": 2, "co": {"Y": -1.0, "X": 1.0}}]}, "location_y": {"Points": [{"interpolation": 2, "co": {"Y": 0.0, "X": 1.0}}]}, "rotation": {"Points": [{"interpolation": 2, "co": {"Y": 0.0, "X": 1.0}}]}, "start": 0, "channel_mapping": {"Points": [{"interpolation": 2, "co": {"Y": -1.0, "X": 1.0}}]}, "layer": 1, "image": ".openshot_qt\\thumbnail\\T6B8VZ699H.png", "end": 0.16000000000000014, "scale": 1, "shear_y": {"Points": [{"interpolation": 2, "co": {"Y": 0.0, "X": 1.0}}]}, "effects": [], "has_video": {"Points": [{"interpolation": 2, "co": {"Y": -1.0, "X": 1.0}}]}, "gravity": 4, "display": 0, "location_x": {"Points": [{"interpolation": 2, "co": {"Y": 0.0, "X": 1.0}}]}, "volume": {"Points": [{"interpolation": 2, "co": {"Y": 1.0, "X": 1.0}}]}, "wave_color": {"red": {"Points": [{"handle_type": 0, "handle_right": {"Y": 0.0, "X": 0.5}, "interpolation": 0, "handle_left": {"Y": 1.0, "X": 0.5}, "co": {"Y": 0.0, "X": 1.0}}]}, "alpha": {"Points": [{"handle_type": 0, "handle_right": {"Y": 0.0, "X": 0.5}, "interpolation": 0, "handle_left": {"Y": 1.0, "X": 0.5}, "co": {"Y": 255.0, "X": 1.0}}]}, "green": {"Points": [{"handle_type": 0, "handle_right": {"Y": 0.0, "X": 0.5}, "interpolation": 0, "handle_left": {"Y": 1.0, "X": 0.5}, "co": {"Y": 123.0, "X": 1.0}}]}, "blue": {"Points": [{"handle_type": 0, "handle_right": {"Y": 0.0, "X": 0.5}, "interpolation": 0, "handle_left": {"Y": 1.0, "X": 0.5}, "co": {"Y": 255.0, "X": 1.0}}]}}, "perspective_c2_x": {"Points": [{"interpolation": 2, "co": {"Y": -1.0, "X": 1.0}}]}, "crop_x": {"Points": [{"interpolation": 2, "co": {"Y": 0.0, "X": 1.0}}]}, "duration": 86400.0, "anchor": 0, "shear_x": {"Points": [{"interpolation": 2, "co": {"Y": 0.0, "X": 1.0}}]}, "perspective_c1_y": {"Points": [{"interpolation": 2, "co": {"Y": -1.0, "X": 1.0}}]}, "perspective_c2_y": {"Points": [{"interpolation": 2, "co": {"Y": -1.0, "X": 1.0}}]}, "title": "aoi yandere2.png", "perspective_c4_y": {"Points": [{"interpolation": 2, "co": {"Y": -1.0, "X": 1.0}}]}, "file_id": "T6B8VZ699H", "perspective_c3_y": {"Points": [{"interpolation": 2, "co": {"Y": -1.0, "X": 1.0}}]}, "scale_y": {"Points": [{"interpolation": 2, "co": {"Y": 1.0, "X": 1.0}}]}, "time": {"Points": [{"interpolation": 2, "co": {"Y": 1.0, "X": 1.0}}]}, "position": 8.04, "channel_filter": {"Points": [{"interpolation": 2, "co": {"Y": -1.0, "X": 1.0}}]}, "perspective_c1_x": {"Points": [{"interpolation": 2, "co": {"Y": -1.0, "X": 1.0}}]}}, {"perspective_c4_x": {"Points": [{"interpolation": 2, "co": {"Y": -1.0, "X": 1.0}}]}, "perspective_c3_x": {"Points": [{"interpolation": 2, "co": {"Y": -1.0, "X": 1.0}}]}, "id": "9HTMDMTDKF", "waveform": false, "crop_y": {"Points": [{"interpolation": 2, "co": {"Y": 0.0, "X": 1.0}}]}, "scale_x": {"Points": [{"interpolation": 2, "co": {"Y": 1.0, "X": 1.0}}]}, "has_audio": {"Points": [{"interpolation": 2, "co": {"Y": -1.0, "X": 1.0}}]}, "alpha": {"Points": [{"interpolation": 2, "co": {"Y": 1.0, "X": 1.0}}]}, "crop_height": {"Points": [{"interpolation": 2, "co": {"Y": -1.0, "X": 1.0}}]}, "reader": {"width": 1280, "has_audio": false, "audio_bit_rate": 0, "vcodec": "", "interlaced_frame": false, "pixel_format": -1, "audio_stream_index": -1, "video_bit_rate": 0, "acodec": "", "channel_layout": 4, "video_stream_index": -1, "fps": {"num": 30, "den": 1}, "audio_timebase": {"num": 1, "den": 1}, "has_video": true, "sample_rate": 0, "type": "QtImageReader", "path": "..\\..\\cygwin64\\home\\john\\misc\\Manna for our Malices\\game\\images\\track.png", "video_timebase": {"num": 1, "den": 30}, "height": 720, "display_ratio": {"num": 16, "den": 9}, "duration": 86400.0, "video_length": "2592000", "top_field_first": true, "file_size": "3686400", "channels": 0, "has_single_image": true, "pixel_ratio": {"num": 1, "den": 1}}, "crop_width": {"Points": [{"interpolation": 2, "co": {"Y": -1.0, "X": 1.0}}]}, "location_y": {"Points": [{"interpolation": 2, "co": {"Y": 0.0, "X": 1.0}}]}, "rotation": {"Points": [{"interpolation": 2, "co": {"Y": 0.0, "X": 1.0}}]}, "start": 0, "channel_mapping": {"Points": [{"interpolation": 2, "co": {"Y": -1.0, "X": 1.0}}]}, "layer": 0, "image": ".openshot_qt\\thumbnail\\PJIR2PEEWP.png", "end": 4.01, "scale": 1, "shear_y": {"Points": [{"interpolation": 2, "co": {"Y": 0.0, "X": 1.0}}]}, "effects": [], "has_video": {"Points": [{"interpolation": 2, "co": {"Y": -1.0, "X": 1.0}}]}, "gravity": 4, "display": 0, "location_x": {"Points": [{"interpolation": 2, "co": {"Y": 0.0, "X": 1.0}}]}, "volume": {"Points": [{"interpolation": 2, "co": {"Y": 1.0, "X": 1.0}}]}, "wave_color": {"red": {"Points": [{"handle_type": 0, "handle_right": {"Y": 0.0, "X": 0.5}, "interpolation": 0, "handle_left": {"Y": 1.0, "X": 0.5}, "co": {"Y": 0.0, "X": 1.0}}]}, "alpha": {"Points": [{"handle_type": 0, "handle_right": {"Y": 0.0, "X": 0.5}, "interpolation": 0, "handle_left": {"Y": 1.0, "X": 0.5}, "co": {"Y": 255.0, "X": 1.0}}]}, "green": {"Points": [{"handle_type": 0, "handle_right": {"Y": 0.0, "X": 0.5}, "interpolation": 0, "handle_left": {"Y": 1.0, "X": 0.5}, "co": {"Y": 123.0, "X": 1.0}}]}, "blue": {"Points": [{"handle_type": 0, "handle_right": {"Y": 0.0, "X": 0.5}, "interpolation": 0, "handle_left": {"Y": 1.0, "X": 0.5}, "co": {"Y": 255.0, "X": 1.0}}]}}, "perspective_c2_x": {"Points": [{"interpolation": 2, "co": {"Y": -1.0, "X": 1.0}}]}, "crop_x": {"Points": [{"interpolation": 2, "co": {"Y": 0.0, "X": 1.0}}]}, "duration": 86400.0, "anchor": 0, "shear_x": {"Points": [{"interpolation": 2, "co": {"Y": 0.0, "X": 1.0}}]}, "perspective_c1_y": {"Points": [{"interpolation": 2, "co": {"Y": -1.0, "X": 1.0}}]}, "perspective_c2_y": {"Points": [{"interpolation": 2, "co": {"Y": -1.0, "X": 1.0}}]}, "title": "track.png", "perspective_c4_y": {"Points": [{"interpolation": 2, "co": {"Y": -1.0, "X": 1.0}}]}, "file_id": "PJIR2PEEWP", "perspective_c3_y": {"Points": [{"interpolation": 2, "co": {"Y": -1.0, "X": 1.0}}]}, "scale_y": {"Points": [{"interpolation": 2, "co": {"Y": 1.0, "X": 1.0}}]}, "time": {"Points": [{"interpolation": 2, "co": {"Y": 1.0, "X": 1.0}}]}, "position": 8.51, "channel_filter": {"Points": [{"interpolation": 2, "co": {"Y": -1.0, "X": 1.0}}]}, "perspective_c1_x": {"Points": [{"interpolation": 2, "co": {"Y": -1.0, "X": 1.0}}]}}, {"perspective_c4_x": {"Points": [{"interpolation": 2, "co": {"Y": -1.0, "X": 1.0}}]}, "perspective_c3_x": {"Points": [{"interpolation": 2, "co": {"Y": -1.0, "X": 1.0}}]}, "id": "S78HD77FDN", "waveform": false, "crop_y": {"Points": [{"interpolation": 2, "co": {"Y": 0.0, "X": 1.0}}]}, "scale_x": {"Points": [{"interpolation": 2, "co": {"Y": 1.0, "X": 1.0}}]}, "has_audio": {"Points": [{"interpolation": 2, "co": {"Y": -1.0, "X": 1.0}}]}, "alpha": {"Points": [{"interpolation": 2, "co": {"Y": 1.0, "X": 1.0}}]}, "crop_height": {"Points": [{"interpolation": 2, "co": {"Y": -1.0, "X": 1.0}}]}, "reader": {"width": 480, "has_audio": false, "audio_bit_rate": 0, "vcodec": "", "interlaced_frame": false, "pixel_format": -1, "audio_stream_index": -1, "video_bit_rate": 0, "acodec": "", "channel_layout": 4, "video_stream_index": -1, "fps": {"num": 30, "den": 1}, "audio_timebase": {"num": 1, "den": 1}, "has_video": true, "sample_rate": 0, "type": "QtImageReader", "path": "..\\..\\cygwin64\\home\\john\\misc\\Manna for our Malices\\game\\images\\koneko pout.png", "video_timebase": {"num": 1, "den": 30}, "height": 640, "display_ratio": {"num": 3, "den": 4}, "duration": 86400.0, "video_length": "2592000", "top_field_first": true, "file_size": "1228800", "channels": 0, "has_single_image": true, "pixel_ratio": {"num": 1, "den": 1}}, "crop_width": {"Points": [{"interpolation": 2, "co": {"Y": -1.0, "X": 1.0}}]}, "location_y": {"Points": [{"interpolation": 2, "co": {"Y": 0.0, "X": 1.0}}]}, "rotation": {"Points": [{"interpolation": 2, "co": {"Y": 0.0, "X": 1.0}}]}, "start": 0, "channel_mapping": {"Points": [{"interpolation": 2, "co": {"Y": -1.0, "X": 1.0}}]}, "layer": 1, "image": ".openshot_qt\\thumbnail\\9O8FMYR5ZH.png", "end": 4.01, "scale": 1, "shear_y": {"Points": [{"interpolation": 2, "co": {"Y": 0.0, "X": 1.0}}]}, "effects": [], "has_video": {"Points": [{"interpolation": 2, "co": {"Y": -1.0, "X": 1.0}}]}, "gravity": 4, "display": 0, "location_x": {"Points": [{"interpolation": 1, "co": {"Y": 0.41, "X": 1.0}}, {"interpolation": 1, "co": {"Y": -0.41, "X": 95}}]}, "volume": {"Points": [{"interpolation": 2, "co": {"Y": 1.0, "X": 1.0}}]}, "wave_color": {"red": {"Points": [{"handle_type": 0, "handle_right": {"Y": 0.0, "X": 0.5}, "interpolation": 0, "handle_left": {"Y": 1.0, "X": 0.5}, "co": {"Y": 0.0, "X": 1.0}}]}, "alpha": {"Points": [{"handle_type": 0, "handle_right": {"Y": 0.0, "X": 0.5}, "interpolation": 0, "handle_left": {"Y": 1.0, "X": 0.5}, "co": {"Y": 255.0, "X": 1.0}}]}, "green": {"Points": [{"handle_type": 0, "handle_right": {"Y": 0.0, "X": 0.5}, "interpolation": 0, "handle_left": {"Y": 1.0, "X": 0.5}, "co": {"Y": 123.0, "X": 1.0}}]}, "blue": {"Points": [{"handle_type": 0, "handle_right": {"Y": 0.0, "X": 0.5}, "interpolation": 0, "handle_left": {"Y": 1.0, "X": 0.5}, "co": {"Y": 255.0, "X": 1.0}}]}}, "perspective_c2_x": {"Points": [{"interpolation": 2, "co": {"Y": -1.0, "X": 1.0}}]}, "crop_x": {"Points": [{"interpolation": 2, "co": {"Y": 0.0, "X": 1.0}}]}, "duration": 86400.0, "anchor": 0, "shear_x": {"Points": [{"interpolation": 2, "co": {"Y": 0.0, "X": 1.0}}]}, "perspective_c1_y": {"Points": [{"interpolation": 2, "co": {"Y": -1.0, "X": 1.0}}]}, "perspective_c2_y": {"Points": [{"interpolation": 2, "co": {"Y": -1.0, "X": 1.0}}]}, "title": "koneko pout.png", "perspective_c4_y": {"Points": [{"interpolation": 2, "co": {"Y": -1.0, "X": 1.0}}]}, "file_id": "9O8FMYR5ZH", "perspective_c3_y": {"Points": [{"interpolation": 2, "co": {"Y": -1.0, "X": 1.0}}]}, "scale_y": {"Points": [{"interpolation": 2, "co": {"Y": 1.0, "X": 1.0}}]}, "time": {"Points": [{"interpolation": 2, "co": {"Y": 1.0, "X": 1.0}}]}, "position": 8.75, "channel_filter": {"Points": [{"interpolation": 2, "co": {"Y": -1.0, "X": 1.0}}]}, "perspective_c1_x": {"Points": [{"interpolation": 2, "co": {"Y": -1.0, "X": 1.0}}]}}, {"perspective_c4_x": {"Points": [{"interpolation": 2, "co": {"Y": -1.0, "X": 1.0}}]}, "perspective_c3_x": {"Points": [{"interpolation": 2, "co": {"Y": -1.0, "X": 1.0}}]}, "id": "O7440G97YZ", "waveform": false, "crop_y": {"Points": [{"interpolation": 2, "co": {"Y": 0.0, "X": 1.0}}]}, "scale_x": {"Points": [{"interpolation": 2, "co": {"Y": 1.0, "X": 1.0}}]}, "has_audio": {"Points": [{"interpolation": 2, "co": {"Y": -1.0, "X": 1.0}}]}, "alpha": {"Points": [{"interpolation": 2, "co": {"Y": 1.0, "X": 1.0}}]}, "crop_height": {"Points": [{"interpolation": 2, "co": {"Y": -1.0, "X": 1.0}}]}, "reader": {"width": 1280, "has_audio": false, "audio_bit_rate": 0, "vcodec": "", "interlaced_frame": false, "pixel_format": -1, "audio_stream_index": -1, "video_bit_rate": 0, "acodec": "", "channel_layout": 4, "video_stream_index": -1, "fps": {"num": 30, "den": 1}, "audio_timebase": {"num": 1, "den": 1}, "has_video": true, "sample_rate": 0, "type": "QtImageReader", "path": "..\\..\\cygwin64\\home\\john\\misc\\Manna for our Malices\\game\\images\\milpsi corridor massacre.png", "video_timebase": {"num": 1, "den": 30}, "height": 720, "display_ratio": {"num": 16, "den": 9}, "duration": 86400.0, "video_length": "2592000", "top_field_first": true, "file_size": "3686400", "channels": 0, "has_single_image": true, "pixel_ratio": {"num": 1, "den": 1}}, "crop_width": {"Points": [{"interpolation": 2, "co": {"Y": -1.0, "X": 1.0}}]}, "location_y": {"Points": [{"interpolation": 2, "co": {"Y": 0.0, "X": 1.0}}]}, "rotation": {"Points": [{"interpolation": 2, "co": {"Y": 0.0, "X": 1.0}}]}, "start": 0, "channel_mapping": {"Points": [{"interpolation": 2, "co": {"Y": -1.0, "X": 1.0}}]}, "layer": 0, "image": ".openshot_qt\\thumbnail\\4ZFF0B0IWN.png", "end": 0.23000000000000043, "scale": 1, "shear_y": {"Points": [{"interpolation": 2, "co": {"Y": 0.0, "X": 1.0}}]}, "effects": [], "has_video": {"Points": [{"interpolation": 2, "co": {"Y": -1.0, "X": 1.0}}]}, "gravity": 4, "display": 0, "location_x": {"Points": [{"interpolation": 2, "co": {"Y": 0.0, "X": 1.0}}]}, "volume": {"Points": [{"interpolation": 2, "co": {"Y": 1.0, "X": 1.0}}]}, "wave_color": {"red": {"Points": [{"handle_type": 0, "handle_right": {"Y": 0.0, "X": 0.5}, "interpolation": 0, "handle_left": {"Y": 1.0, "X": 0.5}, "co": {"Y": 0.0, "X": 1.0}}]}, "alpha": {"Points": [{"handle_type": 0, "handle_right": {"Y": 0.0, "X": 0.5}, "interpolation": 0, "handle_left": {"Y": 1.0, "X": 0.5}, "co": {"Y": 255.0, "X": 1.0}}]}, "green": {"Points": [{"handle_type": 0, "handle_right": {"Y": 0.0, "X": 0.5}, "interpolation": 0, "handle_left": {"Y": 1.0, "X": 0.5}, "co": {"Y": 123.0, "X": 1.0}}]}, "blue": {"Points": [{"handle_type": 0, "handle_right": {"Y": 0.0, "X": 0.5}, "interpolation": 0, "handle_left": {"Y": 1.0, "X": 0.5}, "co": {"Y": 255.0, "X": 1.0}}]}}, "perspective_c2_x": {"Points": [{"interpolation": 2, "co": {"Y": -1.0, "X": 1.0}}]}, "crop_x": {"Points": [{"interpolation": 2, "co": {"Y": 0.0, "X": 1.0}}]}, "duration": 86400.0, "anchor": 0, "shear_x": {"Points": [{"interpolation": 2, "co": {"Y": 0.0, "X": 1.0}}]}, "perspective_c1_y": {"Points": [{"interpolation": 2, "co": {"Y": -1.0, "X": 1.0}}]}, "perspective_c2_y": {"Points": [{"interpolation": 2, "co": {"Y": -1.0, "X": 1.0}}]}, "title": "milpsi corridor massacre.png", "perspective_c4_y": {"Points": [{"interpolation": 2, "co": {"Y": -1.0, "X": 1.0}}]}, "file_id": "4ZFF0B0IWN", "perspective_c3_y": {"Points": [{"interpolation": 2, "co": {"Y": -1.0, "X": 1.0}}]}, "scale_y": {"Points": [{"interpolation": 2, "co": {"Y": 1.0, "X": 1.0}}]}, "time": {"Points": [{"interpolation": 2, "co": {"Y": 1.0, "X": 1.0}}]}, "position": 12.52, "channel_filter": {"Points": [{"interpolation": 2, "co": {"Y": -1.0, "X": 1.0}}]}, "perspective_c1_x": {"Points": [{"interpolation": 2, "co": {"Y": -1.0, "X": 1.0}}]}}, {"perspective_c4_x": {"Points": [{"interpolation": 2, "co": {"Y": -1.0, "X": 1.0}}]}, "perspective_c3_x": {"Points": [{"interpolation": 2, "co": {"Y": -1.0, "X": 1.0}}]}, "id": "PM0SH42KQV", "waveform": false, "crop_y": {"Points": [{"interpolation": 2, "co": {"Y": 0.0, "X": 1.0}}]}, "scale_x": {"Points": [{"interpolation": 2, "co": {"Y": 1.0, "X": 1.0}}]}, "has_audio": {"Points": [{"interpolation": 2, "co": {"Y": -1.0, "X": 1.0}}]}, "alpha": {"Points": [{"interpolation": 2, "co": {"Y": 1.0, "X": 1.0}}]}, "crop_height": {"Points": [{"interpolation": 2, "co": {"Y": -1.0, "X": 1.0}}]}, "reader": {"width": 1280, "has_audio": false, "audio_bit_rate": 0, "vcodec": "", "interlaced_frame": false, "pixel_format": -1, "audio_stream_index": -1, "video_bit_rate": 0, "acodec": "", "channel_layout": 4, "video_stream_index": -1, "fps": {"num": 30, "den": 1}, "audio_timebase": {"num": 1, "den": 1}, "has_video": true, "sample_rate": 0, "type": "QtImageReader", "path": "..\\..\\cygwin64\\home\\john\\misc\\Manna for our Malices\\game\\images\\musicroom.png", "video_timebase": {"num": 1, "den": 30}, "height": 720, "display_ratio": {"num": 16, "den": 9}, "duration": 86400.0, "video_length": "2592000", "top_field_first": true, "file_size": "3686400", "channels": 0, "has_single_image": true, "pixel_ratio": {"num": 1, "den": 1}}, "crop_width": {"Points": [{"interpolation": 2, "co": {"Y": -1.0, "X": 1.0}}]}, "location_y": {"Points": [{"interpolation": 2, "co": {"Y": 0.0, "X": 1.0}}]}, "rotation": {"Points": [{"interpolation": 2, "co": {"Y": 0.0, "X": 1.0}}]}, "start": 0, "channel_mapping": {"Points": [{"interpolation": 2, "co": {"Y": -1.0, "X": 1.0}}]}, "layer": 0, "image": ".openshot_qt\\thumbnail\\KNSKKNIX1O.png", "end": 4.125, "scale": 1, "shear_y": {"Points": [{"interpolation": 2, "co": {"Y": 0.0, "X": 1.0}}]}, "effects": [], "has_video": {"Points": [{"interpolation": 2, "co": {"Y": -1.0, "X": 1.0}}]}, "gravity": 4, "display": 0, "location_x": {"Points": [{"interpolation": 2, "co": {"Y": 0.0, "X": 1.0}}]}, "volume": {"Points": [{"interpolation": 2, "co": {"Y": 1.0, "X": 1.0}}]}, "wave_color": {"red": {"Points": [{"handle_type": 0, "handle_right": {"Y": 0.0, "X": 0.5}, "interpolation": 0, "handle_left": {"Y": 1.0, "X": 0.5}, "co": {"Y": 0.0, "X": 1.0}}]}, "alpha": {"Points": [{"handle_type": 0, "handle_right": {"Y": 0.0, "X": 0.5}, "interpolation": 0, "handle_left": {"Y": 1.0, "X": 0.5}, "co": {"Y": 255.0, "X": 1.0}}]}, "green": {"Points": [{"handle_type": 0, "handle_right": {"Y": 0.0, "X": 0.5}, "interpolation": 0, "handle_left": {"Y": 1.0, "X": 0.5}, "co": {"Y": 123.0, "X": 1.0}}]}, "blue": {"Points": [{"handle_type": 0, "handle_right": {"Y": 0.0, "X": 0.5}, "interpolation": 0, "handle_left": {"Y": 1.0, "X": 0.5}, "co": {"Y": 255.0, "X": 1.0}}]}}, "perspective_c2_x": {"Points": [{"interpolation": 2, "co": {"Y": -1.0, "X": 1.0}}]}, "crop_x": {"Points": [{"interpolation": 2, "co": {"Y": 0.0, "X": 1.0}}]}, "duration": 86400.0, "anchor": 0, "shear_x": {"Points": [{"interpolation": 2, "co": {"Y": 0.0, "X": 1.0}}]}, "perspective_c1_y": {"Points": [{"interpolation": 2, "co": {"Y": -1.0, "X": 1.0}}]}, "perspective_c2_y": {"Points": [{"interpolation": 2, "co": {"Y": -1.0, "X": 1.0}}]}, "title": "musicroom.png", "perspective_c4_y": {"Points": [{"interpolation": 2, "co": {"Y": -1.0, "X": 1.0}}]}, "file_id": "KNSKKNIX1O", "perspective_c3_y": {"Points": [{"interpolation": 2, "co": {"Y": -1.0, "X": 1.0}}]}, "scale_y": {"Points": [{"interpolation": 2, "co": {"Y": 1.0, "X": 1.0}}]}, "time": {"Points": [{"interpolation": 2, "co": {"Y": 1.0, "X": 1.0}}]}, "position": 12.75, "channel_filter": {"Points": [{"interpolation": 2, "co": {"Y": -1.0, "X": 1.0}}]}, "perspective_c1_x": {"Points": [{"interpolation": 2, "co": {"Y": -1.0, "X": 1.0}}]}}, {"perspective_c4_x": {"Points": [{"interpolation": 2, "co": {"Y": -1.0, "X": 1.0}}]}, "perspective_c3_x": {"Points": [{"interpolation": 2, "co": {"Y": -1.0, "X": 1.0}}]}, "id": "LPZOUKR5GJ", "waveform": false, "crop_y": {"Points": [{"interpolation": 2, "co": {"Y": 0.0, "X": 1.0}}]}, "scale_x": {"Points": [{"interpolation": 2, "co": {"Y": 1.0, "X": 1.0}}]}, "has_audio": {"Points": [{"interpolation": 2, "co": {"Y": -1.0, "X": 1.0}}]}, "alpha": {"Points": [{"interpolation": 2, "co": {"Y": 1.0, "X": 1.0}}]}, "crop_height": {"Points": [{"interpolation": 2, "co": {"Y": -1.0, "X": 1.0}}]}, "reader": {"width": 480, "has_audio": false, "audio_bit_rate": 0, "vcodec": "", "interlaced_frame": false, "pixel_format": -1, "audio_stream_index": -1, "video_bit_rate": 0, "acodec": "", "channel_layout": 4, "video_stream_index": -1, "fps": {"num": 30, "den": 1}, "audio_timebase": {"num": 1, "den": 1}, "has_video": true, "sample_rate": 0, "type": "QtImageReader", "path": "..\\..\\cygwin64\\home\\john\\misc\\Manna for our Malices\\game\\images\\kuroneko pout.png", "video_timebase": {"num": 1, "den": 30}, "height": 640, "display_ratio": {"num": 3, "den": 4}, "duration": 86400.0, "video_length": "2592000", "top_field_first": true, "file_size": "1228800", "channels": 0, "has_single_image": true, "pixel_ratio": {"num": 1, "den": 1}}, "crop_width": {"Points": [{"interpolation": 2, "co": {"Y": -1.0, "X": 1.0}}]}, "location_y": {"Points": [{"interpolation": 2, "co": {"Y": 0.0, "X": 1.0}}]}, "rotation": {"Points": [{"interpolation": 2, "co": {"Y": 0.0, "X": 1.0}}]}, "start": 0, "channel_mapping": {"Points": [{"interpolation": 2, "co": {"Y": -1.0, "X": 1.0}}]}, "layer": 1, "image": ".openshot_qt\\thumbnail\\B8BXF63I92.png", "end": 4.125, "scale": 1, "shear_y": {"Points": [{"interpolation": 2, "co": {"Y": 0.0, "X": 1.0}}]}, "effects": [], "has_video": {"Points": [{"interpolation": 2, "co": {"Y": -1.0, "X": 1.0}}]}, "gravity": 4, "display": 0, "location_x": {"Points": [{"interpolation": 2, "co": {"Y": 0.0, "X": 1.0}}, {"interpolation": 1, "co": {"Y": -0.35, "X": 2}}, {"interpolation": 1, "co": {"Y": 0.35, "X": 98}}]}, "volume": {"Points": [{"interpolation": 2, "co": {"Y": 1.0, "X": 1.0}}]}, "wave_color": {"red": {"Points": [{"handle_type": 0, "handle_right": {"Y": 0.0, "X": 0.5}, "interpolation": 0, "handle_left": {"Y": 1.0, "X": 0.5}, "co": {"Y": 0.0, "X": 1.0}}]}, "alpha": {"Points": [{"handle_type": 0, "handle_right": {"Y": 0.0, "X": 0.5}, "interpolation": 0, "handle_left": {"Y": 1.0, "X": 0.5}, "co": {"Y": 255.0, "X": 1.0}}]}, "green": {"Points": [{"handle_type": 0, "handle_right": {"Y": 0.0, "X": 0.5}, "interpolation": 0, "handle_left": {"Y": 1.0, "X": 0.5}, "co": {"Y": 123.0, "X": 1.0}}]}, "blue": {"Points": [{"handle_type": 0, "handle_right": {"Y": 0.0, "X": 0.5}, "interpolation": 0, "handle_left": {"Y": 1.0, "X": 0.5}, "co": {"Y": 255.0, "X": 1.0}}]}}, "perspective_c2_x": {"Points": [{"interpolation": 2, "co": {"Y": -1.0, "X": 1.0}}]}, "crop_x": {"Points": [{"interpolation": 2, "co": {"Y": 0.0, "X": 1.0}}]}, "duration": 86400.0, "anchor": 0, "shear_x": {"Points": [{"interpolation": 2, "co": {"Y": 0.0, "X": 1.0}}]}, "perspective_c1_y": {"Points": [{"interpolation": 2, "co": {"Y": -1.0, "X": 1.0}}]}, "perspective_c2_y": {"Points": [{"interpolation": 2, "co": {"Y": -1.0, "X": 1.0}}]}, "title": "kuroneko pout.png", "perspective_c4_y": {"Points": [{"interpolation": 2, "co": {"Y": -1.0, "X": 1.0}}]}, "file_id": "B8BXF63I92", "perspective_c3_y": {"Points": [{"interpolation": 2, "co": {"Y": -1.0, "X": 1.0}}]}, "scale_y": {"Points": [{"interpolation": 2, "co": {"Y": 1.0, "X": 1.0}}]}, "time": {"Points": [{"interpolation": 2, "co": {"Y": 1.0, "X": 1.0}}]}, "position": 12.75, "channel_filter": {"Points": [{"interpolation": 2, "co": {"Y": -1.0, "X": 1.0}}]}, "perspective_c1_x": {"Points": [{"interpolation": 2, "co": {"Y": -1.0, "X": 1.0}}]}}, {"perspective_c4_x": {"Points": [{"interpolation": 2, "co": {"Y": -1.0, "X": 1.0}}]}, "perspective_c3_x": {"Points": [{"interpolation": 2, "co": {"Y": -1.0, "X": 1.0}}]}, "id": "13JKI7D1IF", "waveform": false, "crop_y": {"Points": [{"interpolation": 2, "co": {"Y": 0.0, "X": 1.0}}]}, "scale_x": {"Points": [{"interpolation": 2, "co": {"Y": 1.0, "X": 1.0}}]}, "has_audio": {"Points": [{"interpolation": 2, "co": {"Y": -1.0, "X": 1.0}}]}, "alpha": {"Points": [{"interpolation": 2, "co": {"Y": 1.0, "X": 1.0}}]}, "crop_height": {"Points": [{"interpolation": 2, "co": {"Y": -1.0, "X": 1.0}}]}, "reader": {"width": 1280, "has_audio": false, "audio_bit_rate": 0, "vcodec": "", "interlaced_frame": false, "pixel_format": -1, "audio_stream_index": -1, "video_bit_rate": 0, "acodec": "", "channel_layout": 4, "video_stream_index": -1, "fps": {"num": 30, "den": 1}, "audio_timebase": {"num": 1, "den": 1}, "has_video": true, "sample_rate": 0, "type": "QtImageReader", "path": "..\\..\\cygwin64\\home\\john\\misc\\Manna for our Malices\\game\\images\\oss altar.png", "video_timebase": {"num": 1, "den": 30}, "height": 720, "display_ratio": {"num": 16, "den": 9}, "duration": 86400.0, "video_length": "2592000", "top_field_first": true, "file_size": "3686400", "channels": 0, "has_single_image": true, "pixel_ratio": {"num": 1, "den": 1}}, "crop_width": {"Points": [{"interpolation": 2, "co": {"Y": -1.0, "X": 1.0}}]}, "location_y": {"Points": [{"interpolation": 2, "co": {"Y": 0.0, "X": 1.0}}]}, "rotation": {"Points": [{"interpolation": 2, "co": {"Y": 0.0, "X": 1.0}}]}, "start": 0, "channel_mapping": {"Points": [{"interpolation": 2, "co": {"Y": -1.0, "X": 1.0}}]}, "layer": 0, "image": ".openshot_qt\\thumbnail\\OG249WYFNP.png", "end": 0.16666666666666785, "scale": 1, "shear_y": {"Points": [{"interpolation": 2, "co": {"Y": 0.0, "X": 1.0}}]}, "effects": [], "has_video": {"Points": [{"interpolation": 2, "co": {"Y": -1.0, "X": 1.0}}]}, "gravity": 4, "display": 0, "location_x": {"Points": [{"interpolation": 2, "co": {"Y": 0.0, "X": 1.0}}]}, "volume": {"Points": [{"interpolation": 2, "co": {"Y": 1.0, "X": 1.0}}]}, "wave_color": {"red": {"Points": [{"handle_type": 0, "handle_right": {"Y": 0.0, "X": 0.5}, "interpolation": 0, "handle_left": {"Y": 1.0, "X": 0.5}, "co": {"Y": 0.0, "X": 1.0}}]}, "alpha": {"Points": [{"handle_type": 0, "handle_right": {"Y": 0.0, "X": 0.5}, "interpolation": 0, "handle_left": {"Y": 1.0, "X": 0.5}, "co": {"Y": 255.0, "X": 1.0}}]}, "green": {"Points": [{"handle_type": 0, "handle_right": {"Y": 0.0, "X": 0.5}, "interpolation": 0, "handle_left": {"Y": 1.0, "X": 0.5}, "co": {"Y": 123.0, "X": 1.0}}]}, "blue": {"Points": [{"handle_type": 0, "handle_right": {"Y": 0.0, "X": 0.5}, "interpolation": 0, "handle_left": {"Y": 1.0, "X": 0.5}, "co": {"Y": 255.0, "X": 1.0}}]}}, "perspective_c2_x": {"Points": [{"interpolation": 2, "co": {"Y": -1.0, "X": 1.0}}]}, "crop_x": {"Points": [{"interpolation": 2, "co": {"Y": 0.0, "X": 1.0}}]}, "duration": 86400.0, "anchor": 0, "shear_x": {"Points": [{"interpolation": 2, "co": {"Y": 0.0, "X": 1.0}}]}, "perspective_c1_y": {"Points": [{"interpolation": 2, "co": {"Y": -1.0, "X": 1.0}}]}, "perspective_c2_y": {"Points": [{"interpolation": 2, "co": {"Y": -1.0, "X": 1.0}}]}, "title": "oss altar.png", "perspective_c4_y": {"Points": [{"interpolation": 2, "co": {"Y": -1.0, "X": 1.0}}]}, "file_id": "OG249WYFNP", "perspective_c3_y": {"Points": [{"interpolation": 2, "co": {"Y": -1.0, "X": 1.0}}]}, "scale_y": {"Points": [{"interpolation": 2, "co": {"Y": 1.0, "X": 1.0}}]}, "time": {"Points": [{"interpolation": 2, "co": {"Y": 1.0, "X": 1.0}}]}, "position": 16.875, "channel_filter": {"Points": [{"interpolation": 2, "co": {"Y": -1.0, "X": 1.0}}]}, "perspective_c1_x": {"Points": [{"interpolation": 2, "co": {"Y": -1.0, "X": 1.0}}]}}, {"perspective_c4_x": {"Points": [{"interpolation": 2, "co": {"Y": -1.0, "X": 1.0}}]}, "perspective_c3_x": {"Points": [{"interpolation": 2, "co": {"Y": -1.0, "X": 1.0}}]}, "id": "V9M6LF70HZ", "waveform": false, "crop_y": {"Points": [{"interpolation": 2, "co": {"Y": 0.0, "X": 1.0}}]}, "scale_x": {"Points": [{"interpolation": 2, "co": {"Y": 1.0, "X": 1.0}}]}, "has_audio": {"Points": [{"interpolation": 2, "co": {"Y": -1.0, "X": 1.0}}]}, "alpha": {"Points": [{"interpolation": 2, "co": {"Y": 1.0, "X": 1.0}}]}, "crop_height": {"Points": [{"interpolation": 2, "co": {"Y": -1.0, "X": 1.0}}]}, "reader": {"width": 1280, "has_audio": false, "audio_bit_rate": 0, "vcodec": "", "interlaced_frame": false, "pixel_format": -1, "audio_stream_index": -1, "video_bit_rate": 0, "acodec": "", "channel_layout": 4, "video_stream_index": -1, "fps": {"num": 30, "den": 1}, "audio_timebase": {"num": 1, "den": 1}, "has_video": true, "sample_rate": 0, "type": "QtImageReader", "path": "..\\..\\cygwin64\\home\\john\\misc\\Manna for our Malices\\game\\images\\shironeko bedroom.png", "video_timebase": {"num": 1, "den": 30}, "height": 720, "display_ratio": {"num": 16, "den": 9}, "duration": 86400.0, "video_length": "2592000", "top_field_first": true, "file_size": "3686400", "channels": 0, "has_single_image": true, "pixel_ratio": {"num": 1, "den": 1}}, "crop_width": {"Points": [{"interpolation": 2, "co": {"Y": -1.0, "X": 1.0}}]}, "location_y": {"Points": [{"interpolation": 2, "co": {"Y": 0.0, "X": 1.0}}]}, "rotation": {"Points": [{"interpolation": 2, "co": {"Y": 0.0, "X": 1.0}}]}, "start": 0, "channel_mapping": {"Points": [{"interpolation": 2, "co": {"Y": -1.0, "X": 1.0}}]}, "layer": 0, "image": ".openshot_qt\\thumbnail\\LAFGRZBD93.png", "end": 4, "scale": 1, "shear_y": {"Points": [{"interpolation": 2, "co": {"Y": 0.0, "X": 1.0}}]}, "effects": [], "has_video": {"Points": [{"interpolation": 2, "co": {"Y": -1.0, "X": 1.0}}]}, "gravity": 4, "display": 0, "location_x": {"Points": [{"interpolation": 2, "co": {"Y": 0.0, "X": 1.0}}]}, "volume": {"Points": [{"interpolation": 2, "co": {"Y": 1.0, "X": 1.0}}]}, "wave_color": {"red": {"Points": [{"handle_left": {"Y": 1.0, "X": 0.5}, "handle_right": {"Y": 0.0, "X": 0.5}, "interpolation": 0, "handle_type": 0, "co": {"Y": 0.0, "X": 1.0}}]}, "alpha": {"Points": [{"handle_left": {"Y": 1.0, "X": 0.5}, "handle_right": {"Y": 0.0, "X": 0.5}, "interpolation": 0, "handle_type": 0, "co": {"Y": 255.0, "X": 1.0}}]}, "green": {"Points": [{"handle_left": {"Y": 1.0, "X": 0.5}, "handle_right": {"Y": 0.0, "X": 0.5}, "interpolation": 0, "handle_type": 0, "co": {"Y": 123.0, "X": 1.0}}]}, "blue": {"Points": [{"handle_left": {"Y": 1.0, "X": 0.5}, "handle_right": {"Y": 0.0, "X": 0.5}, "interpolation": 0, "handle_type": 0, "co": {"Y": 255.0, "X": 1.0}}]}}, "perspective_c2_x": {"Points": [{"interpolation": 2, "co": {"Y": -1.0, "X": 1.0}}]}, "crop_x": {"Points": [{"interpolation": 2, "co": {"Y": 0.0, "X": 1.0}}]}, "duration": 86400.0, "anchor": 0, "shear_x": {"Points": [{"interpolation": 2, "co": {"Y": 0.0, "X": 1.0}}]}, "perspective_c1_y": {"Points": [{"interpolation": 2, "co": {"Y": -1.0, "X": 1.0}}]}, "perspective_c2_y": {"Points": [{"interpolation": 2, "co": {"Y": -1.0, "X": 1.0}}]}, "title": "shironeko bedroom.png", "perspective_c4_y": {"Points": [{"interpolation": 2, "co": {"Y": -1.0, "X": 1.0}}]}, "file_id": "LAFGRZBD93", "perspective_c3_y": {"Points": [{"interpolation": 2, "co": {"Y": -1.0, "X": 1.0}}]}, "scale_y": {"Points": [{"interpolation": 2, "co": {"Y": 1.0, "X": 1.0}}]}, "time": {"Points": [{"interpolation": 2, "co": {"Y": 1.0, "X": 1.0}}]}, "position": 17.0415625, "channel_filter": {"Points": [{"interpolation": 2, "co": {"Y": -1.0, "X": 1.0}}]}, "perspective_c1_x": {"Points": [{"interpolation": 2, "co": {"Y": -1.0, "X": 1.0}}]}}, {"perspective_c4_x": {"Points": [{"interpolation": 2, "co": {"Y": -1.0, "X": 1.0}}]}, "perspective_c3_x": {"Points": [{"interpolation": 2, "co": {"Y": -1.0, "X": 1.0}}]}, "id": "8YBAMM2Q53", "waveform": false, "crop_y": {"Points": [{"interpolation": 2, "co": {"Y": 0.0, "X": 1.0}}]}, "scale_x": {"Points": [{"interpolation": 2, "co": {"Y": 1.0, "X": 1.0}}]}, "has_audio": {"Points": [{"interpolation": 2, "co": {"Y": -1.0, "X": 1.0}}]}, "alpha": {"Points": [{"interpolation": 2, "co": {"Y": 1.0, "X": 1.0}}]}, "crop_height": {"Points": [{"interpolation": 2, "co": {"Y": -1.0, "X": 1.0}}]}, "reader": {"width": 266, "has_audio": false, "audio_bit_rate": 0, "vcodec": "", "interlaced_frame": false, "pixel_format": -1, "audio_stream_index": -1, "video_bit_rate": 0, "acodec": "", "channel_layout": 4, "video_stream_index": -1, "fps": {"num": 30, "den": 1}, "audio_timebase": {"num": 1, "den": 1}, "has_video": true, "sample_rate": 0, "type": "QtImageReader", "path": "..\\..\\cygwin64\\home\\john\\misc\\Manna for our Malices\\game\\images\\shironeko.png", "video_timebase": {"num": 1, "den": 30}, "height": 600, "display_ratio": {"num": 133, "den": 300}, "duration": 86400.0, "video_length": "2592000", "top_field_first": true, "file_size": "638400", "channels": 0, "has_single_image": true, "pixel_ratio": {"num": 1, "den": 1}}, "crop_width": {"Points": [{"interpolation": 2, "co": {"Y": -1.0, "X": 1.0}}]}, "location_y": {"Points": [{"interpolation": 2, "co": {"Y": 0.0, "X": 1.0}}]}, "rotation": {"Points": [{"interpolation": 2, "co": {"Y": 0.0, "X": 1.0}}]}, "start": 0, "channel_mapping": {"Points": [{"interpolation": 2, "co": {"Y": -1.0, "X": 1.0}}]}, "layer": 1, "image": ".openshot_qt\\thumbnail\\XQH6I4TO6R.png", "end": 4, "scale": 1, "shear_y": {"Points": [{"interpolation": 2, "co": {"Y": 0.0, "X": 1.0}}]}, "effects": [], "has_video": {"Points": [{"interpolation": 2, "co": {"Y": -1.0, "X": 1.0}}]}, "gravity": 4, "display": 0, "location_x": {"Points": [{"interpolation": 1, "co": {"Y": 0.4, "X": 1.0}}, {"interpolation": 1, "co": {"Y": -0.4, "X": 95}}]}, "volume": {"Points": [{"interpolation": 2, "co": {"Y": 1.0, "X": 1.0}}]}, "wave_color": {"red": {"Points": [{"handle_left": {"Y": 1.0, "X": 0.5}, "handle_right": {"Y": 0.0, "X": 0.5}, "interpolation": 0, "handle_type": 0, "co": {"Y": 0.0, "X": 1.0}}]}, "alpha": {"Points": [{"handle_left": {"Y": 1.0, "X": 0.5}, "handle_right": {"Y": 0.0, "X": 0.5}, "interpolation": 0, "handle_type": 0, "co": {"Y": 255.0, "X": 1.0}}]}, "green": {"Points": [{"handle_left": {"Y": 1.0, "X": 0.5}, "handle_right": {"Y": 0.0, "X": 0.5}, "interpolation": 0, "handle_type": 0, "co": {"Y": 123.0, "X": 1.0}}]}, "blue": {"Points": [{"handle_left": {"Y": 1.0, "X": 0.5}, "handle_right": {"Y": 0.0, "X": 0.5}, "interpolation": 0, "handle_type": 0, "co": {"Y": 255.0, "X": 1.0}}]}}, "perspective_c2_x": {"Points": [{"interpolation": 2, "co": {"Y": -1.0, "X": 1.0}}]}, "crop_x": {"Points": [{"interpolation": 2, "co": {"Y": 0.0, "X": 1.0}}]}, "duration": 86400.0, "anchor": 0, "shear_x": {"Points": [{"interpolation": 2, "co": {"Y": 0.0, "X": 1.0}}]}, "perspective_c1_y": {"Points": [{"interpolation": 2, "co": {"Y": -1.0, "X": 1.0}}]}, "perspective_c2_y": {"Points": [{"interpolation": 2, "co": {"Y": -1.0, "X": 1.0}}]}, "title": "shironeko.png", "perspective_c4_y": {"Points": [{"interpolation": 2, "co": {"Y": -1.0, "X": 1.0}}]}, "file_id": "XQH6I4TO6R", "perspective_c3_y": {"Points": [{"interpolation": 2, "co": {"Y": -1.0, "X": 1.0}}]}, "scale_y": {"Points": [{"interpolation": 2, "co": {"Y": 1.0, "X": 1.0}}]}, "time": {"Points": [{"interpolation": 2, "co": {"Y": 1.0, "X": 1.0}}]}, "position": 17.0515625, "channel_filter": {"Points": [{"interpolation": 2, "co": {"Y": -1.0, "X": 1.0}}]}, "perspective_c1_x": {"Points": [{"interpolation": 2, "co": {"Y": -1.0, "X": 1.0}}]}}, {"perspective_c4_x": {"Points": [{"interpolation": 2, "co": {"Y": -1.0, "X": 1.0}}]}, "perspective_c3_x": {"Points": [{"interpolation": 2, "co": {"Y": -1.0, "X": 1.0}}]}, "id": "SCDWPJOWKE", "waveform": false, "crop_y": {"Points": [{"interpolation": 2, "co": {"Y": 0.0, "X": 1.0}}]}, "scale_x": {"Points": [{"interpolation": 2, "co": {"Y": 1.0, "X": 1.0}}]}, "has_audio": {"Points": [{"interpolation": 2, "co": {"Y": -1.0, "X": 1.0}}]}, "alpha": {"Points": [{"interpolation": 2, "co": {"Y": 1.0, "X": 1.0}}]}, "crop_height": {"Points": [{"interpolation": 2, "co": {"Y": -1.0, "X": 1.0}}]}, "reader": {"width": 1280, "has_audio": false, "audio_bit_rate": 0, "vcodec": "", "interlaced_frame": false, "pixel_format": -1, "audio_stream_index": -1, "video_bit_rate": 0, "acodec": "", "channel_layout": 4, "video_stream_index": -1, "fps": {"num": 30, "den": 1}, "audio_timebase": {"num": 1, "den": 1}, "has_video": true, "sample_rate": 0, "type": "QtImageReader", "path": "..\\..\\cygwin64\\home\\john\\misc\\Manna for our Malices\\game\\images\\shironeko bedroom night.png", "video_timebase": {"num": 1, "den": 30}, "height": 720, "display_ratio": {"num": 16, "den": 9}, "duration": 86400.0, "video_length": "2592000", "top_field_first": true, "file_size": "3686400", "channels": 0, "has_single_image": true, "pixel_ratio": {"num": 1, "den": 1}}, "crop_width": {"Points": [{"interpolation": 2, "co": {"Y": -1.0, "X": 1.0}}]}, "location_y": {"Points": [{"interpolation": 2, "co": {"Y": 0.0, "X": 1.0}}]}, "rotation": {"Points": [{"interpolation": 2, "co": {"Y": 0.0, "X": 1.0}}]}, "start": 0, "channel_mapping": {"Points": [{"interpolation": 2, "co": {"Y": -1.0, "X": 1.0}}]}, "layer": 0, "image": ".openshot_qt\\thumbnail\\OO9O3U5HEP.png", "end": 0.1666666666666714, "scale": 1, "shear_y": {"Points": [{"interpolation": 2, "co": {"Y": 0.0, "X": 1.0}}]}, "effects": [], "has_video": {"Points": [{"interpolation": 2, "co": {"Y": -1.0, "X": 1.0}}]}, "gravity": 4, "display": 0, "location_x": {"Points": [{"interpolation": 2, "co": {"Y": 0.0, "X": 1.0}}]}, "volume": {"Points": [{"interpolation": 2, "co": {"Y": 1.0, "X": 1.0}}]}, "wave_color": {"red": {"Points": [{"handle_type": 0, "handle_right": {"Y": 0.0, "X": 0.5}, "interpolation": 0, "handle_left": {"Y": 1.0, "X": 0.5}, "co": {"Y": 0.0, "X": 1.0}}]}, "alpha": {"Points": [{"handle_type": 0, "handle_right": {"Y": 0.0, "X": 0.5}, "interpolation": 0, "handle_left": {"Y": 1.0, "X": 0.5}, "co": {"Y": 255.0, "X": 1.0}}]}, "green": {"Points": [{"handle_type": 0, "handle_right": {"Y": 0.0, "X": 0.5}, "interpolation": 0, "handle_left": {"Y": 1.0, "X": 0.5}, "co": {"Y": 123.0, "X": 1.0}}]}, "blue": {"Points": [{"handle_type": 0, "handle_right": {"Y": 0.0, "X": 0.5}, "interpolation": 0, "handle_left": {"Y": 1.0, "X": 0.5}, "co": {"Y": 255.0, "X": 1.0}}]}}, "perspective_c2_x": {"Points": [{"interpolation": 2, "co": {"Y": -1.0, "X": 1.0}}]}, "crop_x": {"Points": [{"interpolation": 2, "co": {"Y": 0.0, "X": 1.0}}]}, "duration": 86400.0, "anchor": 0, "shear_x": {"Points": [{"interpolation": 2, "co": {"Y": 0.0, "X": 1.0}}]}, "perspective_c1_y": {"Points": [{"interpolation": 2, "co": {"Y": -1.0, "X": 1.0}}]}, "perspective_c2_y": {"Points": [{"interpolation": 2, "co": {"Y": -1.0, "X": 1.0}}]}, "title": "shironeko bedroom night.png", "perspective_c4_y": {"Points": [{"interpolation": 2, "co": {"Y": -1.0, "X": 1.0}}]}, "file_id": "OO9O3U5HEP", "perspective_c3_y": {"Points": [{"interpolation": 2, "co": {"Y": -1.0, "X": 1.0}}]}, "scale_y": {"Points": [{"interpolation": 2, "co": {"Y": 1.0, "X": 1.0}}]}, "time": {"Points": [{"interpolation": 2, "co": {"Y": 1.0, "X": 1.0}}]}, "position": 21.08333333333333, "channel_filter": {"Points": [{"interpolation": 2, "co": {"Y": -1.0, "X": 1.0}}]}, "perspective_c1_x": {"Points": [{"interpolation": 2, "co": {"Y": -1.0, "X": 1.0}}]}}, {"perspective_c4_x": {"Points": [{"interpolation": 2, "co": {"Y": -1.0, "X": 1.0}}]}, "perspective_c3_x": {"Points": [{"interpolation": 2, "co": {"Y": -1.0, "X": 1.0}}]}, "id": "BK4BXAKUN3", "waveform": false, "crop_y": {"Points": [{"interpolation": 2, "co": {"Y": 0.0, "X": 1.0}}]}, "scale_x": {"Points": [{"interpolation": 2, "co": {"Y": 1.0, "X": 1.0}}]}, "has_audio": {"Points": [{"interpolation": 2, "co": {"Y": -1.0, "X": 1.0}}]}, "alpha": {"Points": [{"interpolation": 2, "co": {"Y": 1.0, "X": 1.0}}]}, "crop_height": {"Points": [{"interpolation": 2, "co": {"Y": -1.0, "X": 1.0}}]}, "reader": {"width": 1280, "has_audio": false, "audio_bit_rate": 0, "vcodec": "", "interlaced_frame": false, "pixel_format": -1, "audio_stream_index": -1, "video_bit_rate": 0, "acodec": "", "channel_layout": 4, "video_stream_index": -1, "fps": {"num": 30, "den": 1}, "audio_timebase": {"num": 1, "den": 1}, "has_video": true, "sample_rate": 0, "type": "QtImageReader", "path": "..\\..\\cygwin64\\home\\john\\misc\\Manna for our Malices\\game\\images\\splash violin fingering.png", "video_timebase": {"num": 1, "den": 30}, "height": 720, "display_ratio": {"num": 16, "den": 9}, "duration": 86400.0, "video_length": "2592000", "top_field_first": true, "file_size": "3686400", "channels": 0, "has_single_image": true, "pixel_ratio": {"num": 1, "den": 1}}, "crop_width": {"Points": [{"interpolation": 2, "co": {"Y": -1.0, "X": 1.0}}]}, "location_y": {"Points": [{"interpolation": 2, "co": {"Y": 0.0, "X": 1.0}}]}, "rotation": {"Points": [{"interpolation": 2, "co": {"Y": 0.0, "X": 1.0}}]}, "start": 0, "channel_mapping": {"Points": [{"interpolation": 2, "co": {"Y": -1.0, "X": 1.0}}]}, "layer": 0, "image": ".openshot_qt\\thumbnail\\0J2BG3FAE0.png", "end": 1, "scale": 1, "shear_y": {"Points": [{"interpolation": 2, "co": {"Y": 0.0, "X": 1.0}}]}, "effects": [], "has_video": {"Points": [{"interpolation": 2, "co": {"Y": -1.0, "X": 1.0}}]}, "gravity": 4, "display": 0, "location_x": {"Points": [{"interpolation": 2, "co": {"Y": 0.0, "X": 1.0}}]}, "volume": {"Points": [{"interpolation": 2, "co": {"Y": 1.0, "X": 1.0}}]}, "wave_color": {"red": {"Points": [{"handle_left": {"Y": 1.0, "X": 0.5}, "handle_right": {"Y": 0.0, "X": 0.5}, "interpolation": 0, "handle_type": 0, "co": {"Y": 0.0, "X": 1.0}}]}, "alpha": {"Points": [{"handle_left": {"Y": 1.0, "X": 0.5}, "handle_right": {"Y": 0.0, "X": 0.5}, "interpolation": 0, "handle_type": 0, "co": {"Y": 255.0, "X": 1.0}}]}, "green": {"Points": [{"handle_left": {"Y": 1.0, "X": 0.5}, "handle_right": {"Y": 0.0, "X": 0.5}, "interpolation": 0, "handle_type": 0, "co": {"Y": 123.0, "X": 1.0}}]}, "blue": {"Points": [{"handle_left": {"Y": 1.0, "X": 0.5}, "handle_right": {"Y": 0.0, "X": 0.5}, "interpolation": 0, "handle_type": 0, "co": {"Y": 255.0, "X": 1.0}}]}}, "perspective_c2_x": {"Points": [{"interpolation": 2, "co": {"Y": -1.0, "X": 1.0}}]}, "crop_x": {"Points": [{"interpolation": 2, "co": {"Y": 0.0, "X": 1.0}}]}, "duration": 86400.0, "anchor": 0, "shear_x": {"Points": [{"interpolation": 2, "co": {"Y": 0.0, "X": 1.0}}]}, "perspective_c1_y": {"Points": [{"interpolation": 2, "co": {"Y": -1.0, "X": 1.0}}]}, "perspective_c2_y": {"Points": [{"interpolation": 2, "co": {"Y": -1.0, "X": 1.0}}]}, "title": "splash violin fingering.png", "perspective_c4_y": {"Points": [{"interpolation": 2, "co": {"Y": -1.0, "X": 1.0}}]}, "file_id": "0J2BG3FAE0", "perspective_c3_y": {"Points": [{"interpolation": 2, "co": {"Y": -1.0, "X": 1.0}}]}, "scale_y": {"Points": [{"interpolation": 2, "co": {"Y": 1.0, "X": 1.0}}]}, "time": {"Points": [{"interpolation": 2, "co": {"Y": 1.0, "X": 1.0}}]}, "position": 21.25, "channel_filter": {"Points": [{"interpolation": 2, "co": {"Y": -1.0, "X": 1.0}}]}, "perspective_c1_x": {"Points": [{"interpolation": 2, "co": {"Y": -1.0, "X": 1.0}}]}}, {"perspective_c4_x": {"Points": [{"interpolation": 2, "co": {"Y": -1.0, "X": 1.0}}]}, "perspective_c3_x": {"Points": [{"interpolation": 2, "co": {"Y": -1.0, "X": 1.0}}]}, "id": "CGCECLC6UO", "waveform": false, "crop_y": {"Points": [{"interpolation": 2, "co": {"Y": 0.0, "X": 1.0}}]}, "scale_x": {"Points": [{"interpolation": 2, "co": {"Y": 1.0, "X": 1.0}}]}, "has_audio": {"Points": [{"interpolation": 2, "co": {"Y": -1.0, "X": 1.0}}]}, "alpha": {"Points": [{"interpolation": 2, "co": {"Y": 1.0, "X": 1.0}}]}, "crop_height": {"Points": [{"interpolation": 2, "co": {"Y": -1.0, "X": 1.0}}]}, "reader": {"width": 1280, "has_audio": false, "audio_bit_rate": 0, "vcodec": "", "interlaced_frame": false, "pixel_format": -1, "audio_stream_index": -1, "video_bit_rate": 0, "acodec": "", "channel_layout": 4, "video_stream_index": -1, "fps": {"num": 30, "den": 1}, "audio_timebase": {"num": 1, "den": 1}, "has_video": true, "sample_rate": 0, "type": "QtImageReader", "path": "..\\..\\cygwin64\\home\\john\\misc\\Manna for our Malices\\game\\images\\oss exterior.png", "video_timebase": {"num": 1, "den": 30}, "height": 720, "display_ratio": {"num": 16, "den": 9}, "duration": 86400.0, "video_length": "2592000", "top_field_first": true, "file_size": "3686400", "channels": 0, "has_single_image": true, "pixel_ratio": {"num": 1, "den": 1}}, "crop_width": {"Points": [{"interpolation": 2, "co": {"Y": -1.0, "X": 1.0}}]}, "location_y": {"Points": [{"interpolation": 2, "co": {"Y": 0.0, "X": 1.0}}]}, "rotation": {"Points": [{"interpolation": 2, "co": {"Y": 0.0, "X": 1.0}}]}, "start": 0, "channel_mapping": {"Points": [{"interpolation": 2, "co": {"Y": -1.0, "X": 1.0}}]}, "layer": 1, "image": ".openshot_qt\\thumbnail\\7CR5CUMXOF.png", "end": 1, "scale": 1, "shear_y": {"Points": [{"interpolation": 2, "co": {"Y": 0.0, "X": 1.0}}]}, "effects": [], "has_video": {"Points": [{"interpolation": 2, "co": {"Y": -1.0, "X": 1.0}}]}, "gravity": 4, "display": 0, "location_x": {"Points": [{"interpolation": 2, "co": {"Y": 0.0, "X": 1.0}}]}, "volume": {"Points": [{"interpolation": 2, "co": {"Y": 1.0, "X": 1.0}}]}, "wave_color": {"red": {"Points": [{"handle_left": {"Y": 1.0, "X": 0.5}, "handle_right": {"Y": 0.0, "X": 0.5}, "interpolation": 0, "handle_type": 0, "co": {"Y": 0.0, "X": 1.0}}]}, "alpha": {"Points": [{"handle_left": {"Y": 1.0, "X": 0.5}, "handle_right": {"Y": 0.0, "X": 0.5}, "interpolation": 0, "handle_type": 0, "co": {"Y": 255.0, "X": 1.0}}]}, "green": {"Points": [{"handle_left": {"Y": 1.0, "X": 0.5}, "handle_right": {"Y": 0.0, "X": 0.5}, "interpolation": 0, "handle_type": 0, "co": {"Y": 123.0, "X": 1.0}}]}, "blue": {"Points": [{"handle_left": {"Y": 1.0, "X": 0.5}, "handle_right": {"Y": 0.0, "X": 0.5}, "interpolation": 0, "handle_type": 0, "co": {"Y": 255.0, "X": 1.0}}]}}, "perspective_c2_x": {"Points": [{"interpolation": 2, "co": {"Y": -1.0, "X": 1.0}}]}, "crop_x": {"Points": [{"interpolation": 2, "co": {"Y": 0.0, "X": 1.0}}]}, "duration": 86400.0, "anchor": 0, "shear_x": {"Points": [{"interpolation": 2, "co": {"Y": 0.0, "X": 1.0}}]}, "perspective_c1_y": {"Points": [{"interpolation": 2, "co": {"Y": -1.0, "X": 1.0}}]}, "perspective_c2_y": {"Points": [{"interpolation": 2, "co": {"Y": -1.0, "X": 1.0}}]}, "title": "oss exterior.png", "perspective_c4_y": {"Points": [{"interpolation": 2, "co": {"Y": -1.0, "X": 1.0}}]}, "file_id": "7CR5CUMXOF", "perspective_c3_y": {"Points": [{"interpolation": 2, "co": {"Y": -1.0, "X": 1.0}}]}, "scale_y": {"Points": [{"interpolation": 2, "co": {"Y": 1.0, "X": 1.0}}]}, "time": {"Points": [{"interpolation": 2, "co": {"Y": 1.0, "X": 1.0}}]}, "position": 21.4, "channel_filter": {"Points": [{"interpolation": 2, "co": {"Y": -1.0, "X": 1.0}}]}, "perspective_c1_x": {"Points": [{"interpolation": 2, "co": {"Y": -1.0, "X": 1.0}}]}}, {"perspective_c4_x": {"Points": [{"interpolation": 2, "co": {"Y": -1.0, "X": 1.0}}]}, "perspective_c3_x": {"Points": [{"interpolation": 2, "co": {"Y": -1.0, "X": 1.0}}]}, "id": "RXBLXUEMU8", "waveform": false, "crop_y": {"Points": [{"interpolation": 2, "co": {"Y": 0.0, "X": 1.0}}]}, "scale_x": {"Points": [{"interpolation": 2, "co": {"Y": 1.0, "X": 1.0}}]}, "has_audio": {"Points": [{"interpolation": 2, "co": {"Y": -1.0, "X": 1.0}}]}, "alpha": {"Points": [{"interpolation": 2, "co": {"Y": 1.0, "X": 1.0}}]}, "crop_height": {"Points": [{"interpolation": 2, "co": {"Y": -1.0, "X": 1.0}}]}, "reader": {"width": 1280, "has_audio": false, "audio_bit_rate": 0, "vcodec": "", "interlaced_frame": false, "pixel_format": -1, "audio_stream_index": -1, "video_bit_rate": 0, "acodec": "", "channel_layout": 4, "video_stream_index": -1, "fps": {"num": 30, "den": 1}, "audio_timebase": {"num": 1, "den": 1}, "has_video": true, "sample_rate": 0, "type": "QtImageReader", "path": "..\\..\\cygwin64\\home\\john\\misc\\Manna for our Malices\\game\\images\\oss exterior night.png", "video_timebase": {"num": 1, "den": 30}, "height": 720, "display_ratio": {"num": 16, "den": 9}, "duration": 86400.0, "video_length": "2592000", "top_field_first": true, "file_size": "3686400", "channels": 0, "has_single_image": true, "pixel_ratio": {"num": 1, "den": 1}}, "crop_width": {"Points": [{"interpolation": 2, "co": {"Y": -1.0, "X": 1.0}}]}, "location_y": {"Points": [{"interpolation": 2, "co": {"Y": 0.0, "X": 1.0}}]}, "rotation": {"Points": [{"interpolation": 2, "co": {"Y": 0.0, "X": 1.0}}]}, "start": 0, "channel_mapping": {"Points": [{"interpolation": 2, "co": {"Y": -1.0, "X": 1.0}}]}, "layer": 2, "image": ".openshot_qt\\thumbnail\\EKXZ0ME2D8.png", "end": 1, "scale": 1, "shear_y": {"Points": [{"interpolation": 2, "co": {"Y": 0.0, "X": 1.0}}]}, "effects": [], "has_video": {"Points": [{"interpolation": 2, "co": {"Y": -1.0, "X": 1.0}}]}, "gravity": 4, "display": 0, "location_x": {"Points": [{"interpolation": 2, "co": {"Y": 0.0, "X": 1.0}}]}, "volume": {"Points": [{"interpolation": 2, "co": {"Y": 1.0, "X": 1.0}}]}, "wave_color": {"red": {"Points": [{"handle_left": {"Y": 1.0, "X": 0.5}, "handle_right": {"Y": 0.0, "X": 0.5}, "interpolation": 0, "handle_type": 0, "co": {"Y": 0.0, "X": 1.0}}]}, "alpha": {"Points": [{"handle_left": {"Y": 1.0, "X": 0.5}, "handle_right": {"Y": 0.0, "X": 0.5}, "interpolation": 0, "handle_type": 0, "co": {"Y": 255.0, "X": 1.0}}]}, "green": {"Points": [{"handle_left": {"Y": 1.0, "X": 0.5}, "handle_right": {"Y": 0.0, "X": 0.5}, "interpolation": 0, "handle_type": 0, "co": {"Y": 123.0, "X": 1.0}}]}, "blue": {"Points": [{"handle_left": {"Y": 1.0, "X": 0.5}, "handle_right": {"Y": 0.0, "X": 0.5}, "interpolation": 0, "handle_type": 0, "co": {"Y": 255.0, "X": 1.0}}]}}, "perspective_c2_x": {"Points": [{"interpolation": 2, "co": {"Y": -1.0, "X": 1.0}}]}, "crop_x": {"Points": [{"interpolation": 2, "co": {"Y": 0.0, "X": 1.0}}]}, "duration": 86400.0, "anchor": 0, "shear_x": {"Points": [{"interpolation": 2, "co": {"Y": 0.0, "X": 1.0}}]}, "perspective_c1_y": {"Points": [{"interpolation": 2, "co": {"Y": -1.0, "X": 1.0}}]}, "perspective_c2_y": {"Points": [{"interpolation": 2, "co": {"Y": -1.0, "X": 1.0}}]}, "title": "oss exterior night.png", "perspective_c4_y": {"Points": [{"interpolation": 2, "co": {"Y": -1.0, "X": 1.0}}]}, "file_id": "EKXZ0ME2D8", "perspective_c3_y": {"Points": [{"interpolation": 2, "co": {"Y": -1.0, "X": 1.0}}]}, "scale_y": {"Points": [{"interpolation": 2, "co": {"Y": 1.0, "X": 1.0}}]}, "time": {"Points": [{"interpolation": 2, "co": {"Y": 1.0, "X": 1.0}}]}, "position": 21.54166666666667, "channel_filter": {"Points": [{"interpolation": 2, "co": {"Y": -1.0, "X": 1.0}}]}, "perspective_c1_x": {"Points": [{"interpolation": 2, "co": {"Y": -1.0, "X": 1.0}}]}}, {"perspective_c4_x": {"Points": [{"interpolation": 2, "co": {"Y": -1.0, "X": 1.0}}]}, "perspective_c3_x": {"Points": [{"interpolation": 2, "co": {"Y": -1.0, "X": 1.0}}]}, "id": "VWWP81NNNP", "waveform": false, "crop_y": {"Points": [{"interpolation": 2, "co": {"Y": 0.0, "X": 1.0}}]}, "scale_x": {"Points": [{"interpolation": 2, "co": {"Y": 1.0, "X": 1.0}}]}, "has_audio": {"Points": [{"interpolation": 2, "co": {"Y": -1.0, "X": 1.0}}]}, "alpha": {"Points": [{"interpolation": 2, "co": {"Y": 1.0, "X": 1.0}}]}, "crop_height": {"Points": [{"interpolation": 2, "co": {"Y": -1.0, "X": 1.0}}]}, "reader": {"width": 1280, "has_audio": false, "audio_bit_rate": 0, "vcodec": "", "interlaced_frame": false, "pixel_format": -1, "audio_stream_index": -1, "video_bit_rate": 0, "acodec": "", "channel_layout": 4, "video_stream_index": -1, "fps": {"num": 30, "den": 1}, "audio_timebase": {"num": 1, "den": 1}, "has_video": true, "sample_rate": 0, "type": "QtImageReader", "path": "..\\..\\cygwin64\\home\\john\\misc\\Manna for our Malices\\game\\images\\oss exterior night violin.png", "video_timebase": {"num": 1, "den": 30}, "height": 720, "display_ratio": {"num": 16, "den": 9}, "duration": 86400.0, "video_length": "2592000", "top_field_first": true, "file_size": "3686400", "channels": 0, "has_single_image": true, "pixel_ratio": {"num": 1, "den": 1}}, "crop_width": {"Points": [{"interpolation": 2, "co": {"Y": -1.0, "X": 1.0}}]}, "location_y": {"Points": [{"interpolation": 2, "co": {"Y": 0.0, "X": 1.0}}]}, "rotation": {"Points": [{"interpolation": 2, "co": {"Y": 0.0, "X": 1.0}}]}, "start": 0, "channel_mapping": {"Points": [{"interpolation": 2, "co": {"Y": -1.0, "X": 1.0}}]}, "layer": 3, "image": ".openshot_qt\\thumbnail\\QW8OXHSPYQ.png", "end": 1, "scale": 1, "shear_y": {"Points": [{"interpolation": 2, "co": {"Y": 0.0, "X": 1.0}}]}, "effects": [], "has_video": {"Points": [{"interpolation": 2, "co": {"Y": -1.0, "X": 1.0}}]}, "gravity": 4, "display": 0, "location_x": {"Points": [{"interpolation": 2, "co": {"Y": 0.0, "X": 1.0}}]}, "volume": {"Points": [{"interpolation": 2, "co": {"Y": 1.0, "X": 1.0}}]}, "wave_color": {"red": {"Points": [{"handle_left": {"Y": 1.0, "X": 0.5}, "handle_right": {"Y": 0.0, "X": 0.5}, "interpolation": 0, "handle_type": 0, "co": {"Y": 0.0, "X": 1.0}}]}, "alpha": {"Points": [{"handle_left": {"Y": 1.0, "X": 0.5}, "handle_right": {"Y": 0.0, "X": 0.5}, "interpolation": 0, "handle_type": 0, "co": {"Y": 255.0, "X": 1.0}}]}, "green": {"Points": [{"handle_left": {"Y": 1.0, "X": 0.5}, "handle_right": {"Y": 0.0, "X": 0.5}, "interpolation": 0, "handle_type": 0, "co": {"Y": 123.0, "X": 1.0}}]}, "blue": {"Points": [{"handle_left": {"Y": 1.0, "X": 0.5}, "handle_right": {"Y": 0.0, "X": 0.5}, "interpolation": 0, "handle_type": 0, "co": {"Y": 255.0, "X": 1.0}}]}}, "perspective_c2_x": {"Points": [{"interpolation": 2, "co": {"Y": -1.0, "X": 1.0}}]}, "crop_x": {"Points": [{"interpolation": 2, "co": {"Y": 0.0, "X": 1.0}}]}, "duration": 86400.0, "anchor": 0, "shear_x": {"Points": [{"interpolation": 2, "co": {"Y": 0.0, "X": 1.0}}]}, "perspective_c1_y": {"Points": [{"interpolation": 2, "co": {"Y": -1.0, "X": 1.0}}]}, "perspective_c2_y": {"Points": [{"interpolation": 2, "co": {"Y": -1.0, "X": 1.0}}]}, "title": "oss exterior night violin.png", "perspective_c4_y": {"Points": [{"interpolation": 2, "co": {"Y": -1.0, "X": 1.0}}]}, "file_id": "QW8OXHSPYQ", "perspective_c3_y": {"Points": [{"interpolation": 2, "co": {"Y": -1.0, "X": 1.0}}]}, "scale_y": {"Points": [{"interpolation": 2, "co": {"Y": 1.0, "X": 1.0}}]}, "time": {"Points": [{"interpolation": 2, "co": {"Y": 1.0, "X": 1.0}}]}, "position": 21.73, "channel_filter": {"Points": [{"interpolation": 2, "co": {"Y": -1.0, "X": 1.0}}]}, "perspective_c1_x": {"Points": [{"interpolation": 2, "co": {"Y": -1.0, "X": 1.0}}]}}, {"perspective_c4_x": {"Points": [{"interpolation": 2, "co": {"Y": -1.0, "X": 1.0}}]}, "perspective_c3_x": {"Points": [{"interpolation": 2, "co": {"Y": -1.0, "X": 1.0}}]}, "id": "2DIWN0XW90", "waveform": false, "crop_y": {"Points": [{"interpolation": 2, "co": {"Y": 0.0, "X": 1.0}}]}, "scale_x": {"Points": [{"interpolation": 2, "co": {"Y": 1.0, "X": 1.0}}]}, "has_audio": {"Points": [{"interpolation": 2, "co": {"Y": -1.0, "X": 1.0}}]}, "alpha": {"Points": [{"interpolation": 2, "co": {"Y": 1.0, "X": 1.0}}]}, "crop_height": {"Points": [{"interpolation": 2, "co": {"Y": -1.0, "X": 1.0}}]}, "reader": {"width": 1280, "has_audio": false, "audio_bit_rate": 0, "vcodec": "", "interlaced_frame": false, "pixel_format": -1, "audio_stream_index": -1, "video_bit_rate": 0, "acodec": "", "channel_layout": 4, "video_stream_index": -1, "fps": {"num": 30, "den": 1}, "audio_timebase": {"num": 1, "den": 1}, "has_video": true, "sample_rate": 0, "type": "QtImageReader", "path": "..\\..\\cygwin64\\home\\john\\misc\\Manna for our Malices\\game\\images\\oss exterior night collapse.png", "video_timebase": {"num": 1, "den": 30}, "height": 720, "display_ratio": {"num": 16, "den": 9}, "duration": 86400.0, "video_length": "2592000", "top_field_first": true, "file_size": "3686400", "channels": 0, "has_single_image": true, "pixel_ratio": {"num": 1, "den": 1}}, "crop_width": {"Points": [{"interpolation": 2, "co": {"Y": -1.0, "X": 1.0}}]}, "location_y": {"Points": [{"interpolation": 2, "co": {"Y": 0.0, "X": 1.0}}]}, "rotation": {"Points": [{"interpolation": 2, "co": {"Y": 0.0, "X": 1.0}}]}, "start": 0, "channel_mapping": {"Points": [{"interpolation": 2, "co": {"Y": -1.0, "X": 1.0}}]}, "layer": 4, "image": ".openshot_qt\\thumbnail\\HPG63J9Q0Q.png", "end": 1, "scale": 1, "shear_y": {"Points": [{"interpolation": 2, "co": {"Y": 0.0, "X": 1.0}}]}, "effects": [], "has_video": {"Points": [{"interpolation": 2, "co": {"Y": -1.0, "X": 1.0}}]}, "gravity": 4, "display": 0, "location_x": {"Points": [{"interpolation": 2, "co": {"Y": 0.0, "X": 1.0}}]}, "volume": {"Points": [{"interpolation": 2, "co": {"Y": 1.0, "X": 1.0}}]}, "wave_color": {"red": {"Points": [{"handle_left": {"Y": 1.0, "X": 0.5}, "handle_right": {"Y": 0.0, "X": 0.5}, "interpolation": 0, "handle_type": 0, "co": {"Y": 0.0, "X": 1.0}}]}, "alpha": {"Points": [{"handle_left": {"Y": 1.0, "X": 0.5}, "handle_right": {"Y": 0.0, "X": 0.5}, "interpolation": 0, "handle_type": 0, "co": {"Y": 255.0, "X": 1.0}}]}, "green": {"Points": [{"handle_left": {"Y": 1.0, "X": 0.5}, "handle_right": {"Y": 0.0, "X": 0.5}, "interpolation": 0, "handle_type": 0, "co": {"Y": 123.0, "X": 1.0}}]}, "blue": {"Points": [{"handle_left": {"Y": 1.0, "X": 0.5}, "handle_right": {"Y": 0.0, "X": 0.5}, "interpolation": 0, "handle_type": 0, "co": {"Y": 255.0, "X": 1.0}}]}}, "perspective_c2_x": {"Points": [{"interpolation": 2, "co": {"Y": -1.0, "X": 1.0}}]}, "crop_x": {"Points": [{"interpolation": 2, "co": {"Y": 0.0, "X": 1.0}}]}, "duration": 86400.0, "anchor": 0, "shear_x": {"Points": [{"interpolation": 2, "co": {"Y": 0.0, "X": 1.0}}]}, "perspective_c1_y": {"Points": [{"interpolation": 2, "co": {"Y": -1.0, "X": 1.0}}]}, "perspective_c2_y": {"Points": [{"interpolation": 2, "co": {"Y": -1.0, "X": 1.0}}]}, "title": "oss exterior night collapse.png", "perspective_c4_y": {"Points": [{"interpolation": 2, "co": {"Y": -1.0, "X": 1.0}}]}, "file_id": "HPG63J9Q0Q", "perspective_c3_y": {"Points": [{"interpolation": 2, "co": {"Y": -1.0, "X": 1.0}}]}, "scale_y": {"Points": [{"interpolation": 2, "co": {"Y": 1.0, "X": 1.0}}]}, "time": {"Points": [{"interpolation": 2, "co": {"Y": 1.0, "X": 1.0}}]}, "position": 21.92, "channel_filter": {"Points": [{"interpolation": 2, "co": {"Y": -1.0, "X": 1.0}}]}, "perspective_c1_x": {"Points": [{"interpolation": 2, "co": {"Y": -1.0, "X": 1.0}}]}}, {"perspective_c4_x": {"Points": [{"interpolation": 2, "co": {"Y": -1.0, "X": 1.0}}]}, "perspective_c3_x": {"Points": [{"interpolation": 2, "co": {"Y": -1.0, "X": 1.0}}]}, "id": "6LU76E0J61", "waveform": false, "crop_y": {"Points": [{"interpolation": 2, "co": {"Y": 0.0, "X": 1.0}}]}, "scale_x": {"Points": [{"interpolation": 2, "co": {"Y": 1.0, "X": 1.0}}]}, "has_audio": {"Points": [{"interpolation": 2, "co": {"Y": -1.0, "X": 1.0}}]}, "alpha": {"Points": [{"interpolation": 2, "co": {"Y": 1.0, "X": 1.0}}]}, "crop_height": {"Points": [{"interpolation": 2, "co": {"Y": -1.0, "X": 1.0}}]}, "reader": {"width": 1280, "has_audio": false, "audio_bit_rate": 0, "vcodec": "", "interlaced_frame": false, "pixel_format": -1, "audio_stream_index": -1, "video_bit_rate": 0, "acodec": "", "channel_layout": 4, "video_stream_index": -1, "fps": {"num": 30, "den": 1}, "audio_timebase": {"num": 1, "den": 1}, "has_video": true, "sample_rate": 0, "type": "QtImageReader", "path": "..\\..\\cygwin64\\home\\john\\misc\\Manna for our Malices\\game\\images\\oss exterior night collapse portal.png", "video_timebase": {"num": 1, "den": 30}, "height": 720, "display_ratio": {"num": 16, "den": 9}, "duration": 86400.0, "video_length": "2592000", "top_field_first": true, "file_size": "3686400", "channels": 0, "has_single_image": true, "pixel_ratio": {"num": 1, "den": 1}}, "crop_width": {"Points": [{"interpolation": 2, "co": {"Y": -1.0, "X": 1.0}}]}, "location_y": {"Points": [{"interpolation": 2, "co": {"Y": 0.0, "X": 1.0}}]}, "rotation": {"Points": [{"interpolation": 2, "co": {"Y": 0.0, "X": 1.0}}]}, "start": 0, "channel_mapping": {"Points": [{"interpolation": 2, "co": {"Y": -1.0, "X": 1.0}}]}, "layer": 5, "image": ".openshot_qt\\thumbnail\\5EUZT6ABXY.png", "end": 1, "scale": 1, "shear_y": {"Points": [{"interpolation": 2, "co": {"Y": 0.0, "X": 1.0}}]}, "effects": [], "has_video": {"Points": [{"interpolation": 2, "co": {"Y": -1.0, "X": 1.0}}]}, "gravity": 4, "display": 0, "location_x": {"Points": [{"interpolation": 2, "co": {"Y": 0.0, "X": 1.0}}]}, "volume": {"Points": [{"interpolation": 2, "co": {"Y": 1.0, "X": 1.0}}]}, "wave_color": {"red": {"Points": [{"handle_left": {"Y": 1.0, "X": 0.5}, "handle_right": {"Y": 0.0, "X": 0.5}, "interpolation": 0, "handle_type": 0, "co": {"Y": 0.0, "X": 1.0}}]}, "alpha": {"Points": [{"handle_left": {"Y": 1.0, "X": 0.5}, "handle_right": {"Y": 0.0, "X": 0.5}, "interpolation": 0, "handle_type": 0, "co": {"Y": 255.0, "X": 1.0}}]}, "green": {"Points": [{"handle_left": {"Y": 1.0, "X": 0.5}, "handle_right": {"Y": 0.0, "X": 0.5}, "interpolation": 0, "handle_type": 0, "co": {"Y": 123.0, "X": 1.0}}]}, "blue": {"Points": [{"handle_left": {"Y": 1.0, "X": 0.5}, "handle_right": {"Y": 0.0, "X": 0.5}, "interpolation": 0, "handle_type": 0, "co": {"Y": 255.0, "X": 1.0}}]}}, "perspective_c2_x": {"Points": [{"interpolation": 2, "co": {"Y": -1.0, "X": 1.0}}]}, "crop_x": {"Points": [{"interpolation": 2, "co": {"Y": 0.0, "X": 1.0}}]}, "duration": 86400.0, "anchor": 0, "shear_x": {"Points": [{"interpolation": 2, "co": {"Y": 0.0, "X": 1.0}}]}, "perspective_c1_y": {"Points": [{"interpolation": 2, "co": {"Y": -1.0, "X": 1.0}}]}, "perspective_c2_y": {"Points": [{"interpolation": 2, "co": {"Y": -1.0, "X": 1.0}}]}, "title": "oss exterior night collapse portal.png", "perspective_c4_y": {"Points": [{"interpolation": 2, "co": {"Y": -1.0, "X": 1.0}}]}, "file_id": "5EUZT6ABXY", "perspective_c3_y": {"Points": [{"interpolation": 2, "co": {"Y": -1.0, "X": 1.0}}]}, "scale_y": {"Points": [{"interpolation": 2, "co": {"Y": 1.0, "X": 1.0}}]}, "time": {"Points": [{"interpolation": 2, "co": {"Y": 1.0, "X": 1.0}}]}, "position": 22.12, "channel_filter": {"Points": [{"interpolation": 2, "co": {"Y": -1.0, "X": 1.0}}]}, "perspective_c1_x": {"Points": [{"interpolation": 2, "co": {"Y": -1.0, "X": 1.0}}]}}, {"perspective_c4_x": {"Points": [{"interpolation": 2, "co": {"Y": -1.0, "X": 1.0}}]}, "perspective_c3_x": {"Points": [{"interpolation": 2, "co": {"Y": -1.0, "X": 1.0}}]}, "id": "QIN740KJ0G", "waveform": false, "crop_y": {"Points": [{"interpolation": 2, "co": {"Y": 0.0, "X": 1.0}}]}, "scale_x": {"Points": [{"interpolation": 2, "co": {"Y": 1.0, "X": 1.0}}]}, "has_audio": {"Points": [{"interpolation": 2, "co": {"Y": -1.0, "X": 1.0}}]}, "alpha": {"Points": [{"interpolation": 2, "co": {"Y": 1.0, "X": 1.0}}]}, "crop_height": {"Points": [{"interpolation": 2, "co": {"Y": -1.0, "X": 1.0}}]}, "reader": {"width": 1280, "has_audio": false, "audio_bit_rate": 0, "vcodec": "", "interlaced_frame": false, "pixel_format": -1, "audio_stream_index": -1, "video_bit_rate": 0, "acodec": "", "channel_layout": 4, "video_stream_index": -1, "fps": {"num": 30, "den": 1}, "audio_timebase": {"num": 1, "den": 1}, "has_video": true, "sample_rate": 0, "type": "QtImageReader", "path": "..\\..\\cygwin64\\home\\john\\misc\\Manna for our Malices\\game\\images\\hallway dark.png", "video_timebase": {"num": 1, "den": 30}, "height": 720, "display_ratio": {"num": 16, "den": 9}, "duration": 86400.0, "video_length": "2592000", "top_field_first": true, "file_size": "3686400", "channels": 0, "has_single_image": true, "pixel_ratio": {"num": 1, "den": 1}}, "crop_width": {"Points": [{"interpolation": 2, "co": {"Y": -1.0, "X": 1.0}}]}, "location_y": {"Points": [{"interpolation": 2, "co": {"Y": 0.0, "X": 1.0}}]}, "rotation": {"Points": [{"interpolation": 2, "co": {"Y": 0.0, "X": 1.0}}]}, "start": 0, "channel_mapping": {"Points": [{"interpolation": 2, "co": {"Y": -1.0, "X": 1.0}}]}, "layer": 6, "image": ".openshot_qt\\thumbnail\\FVR00PJ7B0.png", "end": 1, "scale": 1, "shear_y": {"Points": [{"interpolation": 2, "co": {"Y": 0.0, "X": 1.0}}]}, "effects": [], "has_video": {"Points": [{"interpolation": 2, "co": {"Y": -1.0, "X": 1.0}}]}, "gravity": 4, "display": 0, "location_x": {"Points": [{"interpolation": 2, "co": {"Y": 0.0, "X": 1.0}}]}, "volume": {"Points": [{"interpolation": 2, "co": {"Y": 1.0, "X": 1.0}}]}, "wave_color": {"red": {"Points": [{"handle_left": {"Y": 1.0, "X": 0.5}, "handle_right": {"Y": 0.0, "X": 0.5}, "interpolation": 0, "handle_type": 0, "co": {"Y": 0.0, "X": 1.0}}]}, "alpha": {"Points": [{"handle_left": {"Y": 1.0, "X": 0.5}, "handle_right": {"Y": 0.0, "X": 0.5}, "interpolation": 0, "handle_type": 0, "co": {"Y": 255.0, "X": 1.0}}]}, "green": {"Points": [{"handle_left": {"Y": 1.0, "X": 0.5}, "handle_right": {"Y": 0.0, "X": 0.5}, "interpolation": 0, "handle_type": 0, "co": {"Y": 123.0, "X": 1.0}}]}, "blue": {"Points": [{"handle_left": {"Y": 1.0, "X": 0.5}, "handle_right": {"Y": 0.0, "X": 0.5}, "interpolation": 0, "handle_type": 0, "co": {"Y": 255.0, "X": 1.0}}]}}, "perspective_c2_x": {"Points": [{"interpolation": 2, "co": {"Y": -1.0, "X": 1.0}}]}, "crop_x": {"Points": [{"interpolation": 2, "co": {"Y": 0.0, "X": 1.0}}]}, "duration": 86400.0, "anchor": 0, "shear_x": {"Points": [{"interpolation": 2, "co": {"Y": 0.0, "X": 1.0}}]}, "perspective_c1_y": {"Points": [{"interpolation": 2, "co": {"Y": -1.0, "X": 1.0}}]}, "perspective_c2_y": {"Points": [{"interpolation": 2, "co": {"Y": -1.0, "X": 1.0}}]}, "title": "hallway dark.png", "perspective_c4_y": {"Points": [{"interpolation": 2, "co": {"Y": -1.0, "X": 1.0}}]}, "file_id": "FVR00PJ7B0", "perspective_c3_y": {"Points": [{"interpolation": 2, "co": {"Y": -1.0, "X": 1.0}}]}, "scale_y": {"Points": [{"interpolation": 2, "co": {"Y": 1.0, "X": 1.0}}]}, "time": {"Points": [{"interpolation": 2, "co": {"Y": 1.0, "X": 1.0}}]}, "position": 22.25, "channel_filter": {"Points": [{"interpolation": 2, "co": {"Y": -1.0, "X": 1.0}}]}, "perspective_c1_x": {"Points": [{"interpolation": 2, "co": {"Y": -1.0, "X": 1.0}}]}}, {"perspective_c4_x": {"Points": [{"interpolation": 2, "co": {"Y": -1.0, "X": 1.0}}]}, "perspective_c3_x": {"Points": [{"interpolation": 2, "co": {"Y": -1.0, "X": 1.0}}]}, "id": "J8NYK4TYL6", "waveform": false, "crop_y": {"Points": [{"interpolation": 2, "co": {"Y": 0.0, "X": 1.0}}]}, "scale_x": {"Points": [{"interpolation": 2, "co": {"Y": 0.75, "X": 1.0}}]}, "has_audio": {"Points": [{"interpolation": 2, "co": {"Y": -1.0, "X": 1.0}}]}, "alpha": {"Points": [{"interpolation": 2, "co": {"Y": 1.0, "X": 1.0}}]}, "crop_height": {"Points": [{"interpolation": 2, "co": {"Y": -1.0, "X": 1.0}}]}, "reader": {"width": 640, "has_audio": false, "audio_bit_rate": 0, "vcodec": "", "interlaced_frame": false, "pixel_format": -1, "audio_stream_index": -1, "video_bit_rate": 0, "acodec": "", "channel_layout": 4, "video_stream_index": -1, "fps": {"num": 30, "den": 1}, "audio_timebase": {"num": 1, "den": 1}, "has_video": true, "sample_rate": 0, "type": "QtImageReader", "path": "Documents\\ilu.png", "video_timebase": {"num": 1, "den": 30}, "height": 400, "display_ratio": {"num": 8, "den": 5}, "duration": 86400.0, "video_length": "2592000", "top_field_first": true, "file_size": "1024000", "channels": 0, "has_single_image": true, "pixel_ratio": {"num": 1, "den": 1}}, "crop_width": {"Points": [{"interpolation": 2, "co": {"Y": -1.0, "X": 1.0}}]}, "location_y": {"Points": [{"interpolation": 2, "co": {"Y": 0.4000000059604645, "X": 1.0}}]}, "rotation": {"Points": [{"interpolation": 2, "co": {"Y": 0.0, "X": 1.0}}]}, "start": 0, "channel_mapping": {"Points": [{"interpolation": 2, "co": {"Y": -1.0, "X": 1.0}}]}, "layer": 2, "image": ".openshot_qt\\thumbnail\\K9PRFQTG05.png", "end": 4, "scale": 1, "shear_y": {"Points": [{"interpolation": 2, "co": {"Y": 0.0, "X": 1.0}}]}, "effects": [], "has_video": {"Points": [{"interpolation": 2, "co": {"Y": -1.0, "X": 1.0}}]}, "gravity": 4, "display": 0, "location_x": {"Points": [{"interpolation": 1, "co": {"Y": 0.5, "X": 1.0}}, {"interpolation": 1, "co": {"Y": -0.25, "X": 96}}]}, "volume": {"Points": [{"interpolation": 2, "co": {"Y": 1.0, "X": 1.0}}]}, "wave_color": {"red": {"Points": [{"handle_left": {"Y": 1.0, "X": 0.5}, "handle_right": {"Y": 0.0, "X": 0.5}, "interpolation": 0, "handle_type": 0, "co": {"Y": 0.0, "X": 1.0}}]}, "alpha": {"Points": [{"handle_left": {"Y": 1.0, "X": 0.5}, "handle_right": {"Y": 0.0, "X": 0.5}, "interpolation": 0, "handle_type": 0, "co": {"Y": 255.0, "X": 1.0}}]}, "green": {"Points": [{"handle_left": {"Y": 1.0, "X": 0.5}, "handle_right": {"Y": 0.0, "X": 0.5}, "interpolation": 0, "handle_type": 0, "co": {"Y": 123.0, "X": 1.0}}]}, "blue": {"Points": [{"handle_left": {"Y": 1.0, "X": 0.5}, "handle_right": {"Y": 0.0, "X": 0.5}, "interpolation": 0, "handle_type": 0, "co": {"Y": 255.0, "X": 1.0}}]}}, "perspective_c2_x": {"Points": [{"interpolation": 2, "co": {"Y": -1.0, "X": 1.0}}]}, "crop_x": {"Points": [{"interpolation": 2, "co": {"Y": 0.0, "X": 1.0}}]}, "duration": 86400.0, "anchor": 0, "shear_x": {"Points": [{"interpolation": 2, "co": {"Y": 0.0, "X": 1.0}}]}, "perspective_c1_y": {"Points": [{"interpolation": 2, "co": {"Y": -1.0, "X": 1.0}}]}, "perspective_c2_y": {"Points": [{"interpolation": 2, "co": {"Y": -1.0, "X": 1.0}}]}, "title": "ilu.png", "perspective_c4_y": {"Points": [{"interpolation": 2, "co": {"Y": -1.0, "X": 1.0}}]}, "file_id": "K9PRFQTG05", "perspective_c3_y": {"Points": [{"interpolation": 2, "co": {"Y": -1.0, "X": 1.0}}]}, "scale_y": {"Points": [{"interpolation": 2, "co": {"Y": 0.75, "X": 1.0}}]}, "time": {"Points": [{"interpolation": 2, "co": {"Y": 1.0, "X": 1.0}}]}, "position": 4.18, "channel_filter": {"Points": [{"interpolation": 2, "co": {"Y": -1.0, "X": 1.0}}]}, "perspective_c1_x": {"Points": [{"interpolation": 2, "co": {"Y": -1.0, "X": 1.0}}]}}, {"perspective_c4_x": {"Points": [{"interpolation": 2, "co": {"Y": -1.0, "X": 1.0}}]}, "perspective_c3_x": {"Points": [{"interpolation": 2, "co": {"Y": -1.0, "X": 1.0}}]}, "id": "PWWKVGAIX9", "waveform": false, "crop_y": {"Points": [{"interpolation": 2, "co": {"Y": 0.0, "X": 1.0}}]}, "scale_x": {"Points": [{"interpolation": 2, "co": {"Y": 1.0, "X": 1.0}}]}, "has_audio": {"Points": [{"interpolation": 2, "co": {"Y": -1.0, "X": 1.0}}]}, "alpha": {"Points": [{"interpolation": 2, "co": {"Y": 1.0, "X": 1.0}}]}, "crop_height": {"Points": [{"interpolation": 2, "co": {"Y": -1.0, "X": 1.0}}]}, "reader": {"width": 640, "has_audio": false, "audio_bit_rate": 0, "vcodec": "", "interlaced_frame": false, "pixel_format": -1, "audio_stream_index": -1, "video_bit_rate": 0, "acodec": "", "channel_layout": 4, "video_stream_index": -1, "fps": {"num": 30, "den": 1}, "audio_timebase": {"num": 1, "den": 1}, "has_video": true, "sample_rate": 0, "type": "QtImageReader", "path": "Documents\\dtm.png", "video_timebase": {"num": 1, "den": 30}, "height": 400, "display_ratio": {"num": 8, "den": 5}, "duration": 86400.0, "video_length": "2592000", "top_field_first": true, "file_size": "1024000", "channels": 0, "has_single_image": true, "pixel_ratio": {"num": 1, "den": 1}}, "crop_width": {"Points": [{"interpolation": 2, "co": {"Y": -1.0, "X": 1.0}}]}, "location_y": {"Points": [{"interpolation": 2, "co": {"Y": 0.0, "X": 1.0}}]}, "rotation": {"Points": [{"interpolation": 2, "co": {"Y": 0.0, "X": 1.0}}]}, "start": 0, "channel_mapping": {"Points": [{"interpolation": 2, "co": {"Y": -1.0, "X": 1.0}}]}, "layer": 2, "image": ".openshot_qt\\thumbnail\\5DNAQDULEC.png", "end": 4, "scale": 1, "shear_y": {"Points": [{"interpolation": 2, "co": {"Y": 0.0, "X": 1.0}}]}, "effects": [], "has_video": {"Points": [{"interpolation": 2, "co": {"Y": -1.0, "X": 1.0}}]}, "gravity": 4, "display": 0, "location_x": {"Points": [{"interpolation": 2, "co": {"Y": 0.0, "X": 1.0}}, {"interpolation": 1, "co": {"Y": -0.09, "X": 2}}, {"interpolation": 1, "co": {"Y": 0.42, "X": 95}}]}, "volume": {"Points": [{"interpolation": 2, "co": {"Y": 1.0, "X": 1.0}}]}, "wave_color": {"red": {"Points": [{"handle_left": {"Y": 1.0, "X": 0.5}, "handle_right": {"Y": 0.0, "X": 0.5}, "interpolation": 0, "handle_type": 0, "co": {"Y": 0.0, "X": 1.0}}]}, "alpha": {"Points": [{"handle_left": {"Y": 1.0, "X": 0.5}, "handle_right": {"Y": 0.0, "X": 0.5}, "interpolation": 0, "handle_type": 0, "co": {"Y": 255.0, "X": 1.0}}]}, "green": {"Points": [{"handle_left": {"Y": 1.0, "X": 0.5}, "handle_right": {"Y": 0.0, "X": 0.5}, "interpolation": 0, "handle_type": 0, "co": {"Y": 123.0, "X": 1.0}}]}, "blue": {"Points": [{"handle_left": {"Y": 1.0, "X": 0.5}, "handle_right": {"Y": 0.0, "X": 0.5}, "interpolation": 0, "handle_type": 0, "co": {"Y": 255.0, "X": 1.0}}]}}, "perspective_c2_x": {"Points": [{"interpolation": 2, "co": {"Y": -1.0, "X": 1.0}}]}, "crop_x": {"Points": [{"interpolation": 2, "co": {"Y": 0.0, "X": 1.0}}]}, "duration": 86400.0, "anchor": 0, "shear_x": {"Points": [{"interpolation": 2, "co": {"Y": 0.0, "X": 1.0}}]}, "perspective_c1_y": {"Points": [{"interpolation": 2, "co": {"Y": -1.0, "X": 1.0}}]}, "perspective_c2_y": {"Points": [{"interpolation": 2, "co": {"Y": -1.0, "X": 1.0}}]}, "title": "dtm.png", "perspective_c4_y": {"Points": [{"interpolation": 2, "co": {"Y": -1.0, "X": 1.0}}]}, "file_id": "5DNAQDULEC", "perspective_c3_y": {"Points": [{"interpolation": 2, "co": {"Y": -1.0, "X": 1.0}}]}, "scale_y": {"Points": [{"interpolation": 2, "co": {"Y": 1.0, "X": 1.0}}]}, "time": {"Points": [{"interpolation": 2, "co": {"Y": 1.0, "X": 1.0}}]}, "position": 8.5, "channel_filter": {"Points": [{"interpolation": 2, "co": {"Y": -1.0, "X": 1.0}}]}, "perspective_c1_x": {"Points": [{"interpolation": 2, "co": {"Y": -1.0, "X": 1.0}}]}}, {"perspective_c4_x": {"Points": [{"interpolation": 2, "co": {"Y": -1.0, "X": 1.0}}]}, "perspective_c3_x": {"Points": [{"interpolation": 2, "co": {"Y": -1.0, "X": 1.0}}]}, "id": "J0K3X5SFX4", "waveform": false, "crop_y": {"Points": [{"interpolation": 2, "co": {"Y": 0.0, "X": 1.0}}]}, "scale_x": {"Points": [{"interpolation": 2, "co": {"Y": 1.0, "X": 1.0}}]}, "has_audio": {"Points": [{"interpolation": 2, "co": {"Y": -1.0, "X": 1.0}}]}, "alpha": {"Points": [{"interpolation": 1, "co": {"Y": 1.0, "X": 1.0}}, {"interpolation": 1, "co": {"Y": 0.0, "X": 95}}]}, "crop_height": {"Points": [{"interpolation": 2, "co": {"Y": -1.0, "X": 1.0}}]}, "reader": {"width": 640, "has_audio": false, "audio_bit_rate": 0, "vcodec": "", "interlaced_frame": false, "pixel_format": -1, "audio_stream_index": -1, "video_bit_rate": 0, "acodec": "", "channel_layout": 4, "video_stream_index": -1, "fps": {"num": 30, "den": 1}, "audio_timebase": {"num": 1, "den": 1}, "has_video": true, "sample_rate": 0, "type": "QtImageReader", "path": "Documents\\h.png", "video_timebase": {"num": 1, "den": 30}, "height": 400, "display_ratio": {"num": 8, "den": 5}, "duration": 86400.0, "video_length": "2592000", "top_field_first": true, "file_size": "1024000", "channels": 0, "has_single_image": true, "pixel_ratio": {"num": 1, "den": 1}}, "crop_width": {"Points": [{"interpolation": 2, "co": {"Y": -1.0, "X": 1.0}}]}, "location_y": {"Points": [{"interpolation": 2, "co": {"Y": 0.0, "X": 1.0}}]}, "rotation": {"Points": [{"interpolation": 2, "co": {"Y": 0.0, "X": 1.0}}]}, "start": 0, "channel_mapping": {"Points": [{"interpolation": 2, "co": {"Y": -1.0, "X": 1.0}}]}, "layer": 2, "image": ".openshot_qt\\thumbnail\\BRLVTD6S10.png", "end": 4, "scale": 1, "shear_y": {"Points": [{"interpolation": 2, "co": {"Y": 0.0, "X": 1.0}}]}, "effects": [], "has_video": {"Points": [{"interpolation": 2, "co": {"Y": -1.0, "X": 1.0}}]}, "gravity": 4, "display": 0, "location_x": {"Points": [{"interpolation": 2, "co": {"Y": 0.0, "X": 1.0}}]}, "volume": {"Points": [{"interpolation": 2, "co": {"Y": 1.0, "X": 1.0}}]}, "wave_color": {"red": {"Points": [{"handle_left": {"Y": 1.0, "X": 0.5}, "handle_right": {"Y": 0.0, "X": 0.5}, "interpolation": 0, "handle_type": 0, "co": {"Y": 0.0, "X": 1.0}}]}, "alpha": {"Points": [{"handle_left": {"Y": 1.0, "X": 0.5}, "handle_right": {"Y": 0.0, "X": 0.5}, "interpolation": 0, "handle_type": 0, "co": {"Y": 255.0, "X": 1.0}}]}, "green": {"Points": [{"handle_left": {"Y": 1.0, "X": 0.5}, "handle_right": {"Y": 0.0, "X": 0.5}, "interpolation": 0, "handle_type": 0, "co": {"Y": 123.0, "X": 1.0}}]}, "blue": {"Points": [{"handle_left": {"Y": 1.0, "X": 0.5}, "handle_right": {"Y": 0.0, "X": 0.5}, "interpolation": 0, "handle_type": 0, "co": {"Y": 255.0, "X": 1.0}}]}}, "perspective_c2_x": {"Points": [{"interpolation": 2, "co": {"Y": -1.0, "X": 1.0}}]}, "crop_x": {"Points": [{"interpolation": 2, "co": {"Y": 0.0, "X": 1.0}}]}, "duration": 86400.0, "anchor": 0, "shear_x": {"Points": [{"interpolation": 2, "co": {"Y": 0.0, "X": 1.0}}]}, "perspective_c1_y": {"Points": [{"interpolation": 2, "co": {"Y": -1.0, "X": 1.0}}]}, "perspective_c2_y": {"Points": [{"interpolation": 2, "co": {"Y": -1.0, "X": 1.0}}]}, "title": "h.png", "perspective_c4_y": {"Points": [{"interpolation": 2, "co": {"Y": -1.0, "X": 1.0}}]}, "file_id": "BRLVTD6S10", "perspective_c3_y": {"Points": [{"interpolation": 2, "co": {"Y": -1.0, "X": 1.0}}]}, "scale_y": {"Points": [{"interpolation": 2, "co": {"Y": 1.0, "X": 1.0}}]}, "time": {"Points": [{"interpolation": 2, "co": {"Y": 1.0, "X": 1.0}}]}, "position": 12.75, "channel_filter": {"Points": [{"interpolation": 2, "co": {"Y": -1.0, "X": 1.0}}]}, "perspective_c1_x": {"Points": [{"interpolation": 2, "co": {"Y": -1.0, "X": 1.0}}]}}, {"perspective_c4_x": {"Points": [{"interpolation": 2, "co": {"Y": -1.0, "X": 1.0}}]}, "perspective_c3_x": {"Points": [{"interpolation": 2, "co": {"Y": -1.0, "X": 1.0}}]}, "id": "ILNCDK7VOG", "waveform": false, "crop_y": {"Points": [{"interpolation": 2, "co": {"Y": 0.0, "X": 1.0}}]}, "scale_x": {"Points": [{"interpolation": 2, "co": {"Y": 1.0, "X": 1.0}}]}, "has_audio": {"Points": [{"interpolation": 2, "co": {"Y": -1.0, "X": 1.0}}]}, "alpha": {"Points": [{"interpolation": 2, "co": {"Y": 1.0, "X": 1.0}}, {"interpolation": 1, "co": {"Y": 0.0, "X": 2}}, {"interpolation": 1, "co": {"Y": 1.0, "X": 96}}]}, "crop_height": {"Points": [{"interpolation": 2, "co": {"Y": -1.0, "X": 1.0}}]}, "reader": {"width": 640, "has_audio": false, "audio_bit_rate": 0, "vcodec": "", "interlaced_frame": false, "pixel_format": -1, "audio_stream_index": -1, "video_bit_rate": 0, "acodec": "", "channel_layout": 4, "video_stream_index": -1, "fps": {"num": 30, "den": 1}, "audio_timebase": {"num": 1, "den": 1}, "has_video": true, "sample_rate": 0, "type": "QtImageReader", "path": "Documents\\ga.png", "video_timebase": {"num": 1, "den": 30}, "height": 400, "display_ratio": {"num": 8, "den": 5}, "duration": 86400.0, "video_length": "2592000", "top_field_first": true, "file_size": "1024000", "channels": 0, "has_single_image": true, "pixel_ratio": {"num": 1, "den": 1}}, "crop_width": {"Points": [{"interpolation": 2, "co": {"Y": -1.0, "X": 1.0}}]}, "location_y": {"Points": [{"interpolation": 2, "co": {"Y": 0.0, "X": 1.0}}]}, "rotation": {"Points": [{"interpolation": 2, "co": {"Y": 0.0, "X": 1.0}}]}, "start": 0, "channel_mapping": {"Points": [{"interpolation": 2, "co": {"Y": -1.0, "X": 1.0}}]}, "layer": 2, "image": ".openshot_qt\\thumbnail\\6LR2P5OCWN.png", "end": 4, "scale": 1, "shear_y": {"Points": [{"interpolation": 2, "co": {"Y": 0.0, "X": 1.0}}]}, "effects": [], "has_video": {"Points": [{"interpolation": 2, "co": {"Y": -1.0, "X": 1.0}}]}, "gravity": 4, "display": 0, "location_x": {"Points": [{"interpolation": 2, "co": {"Y": 0.0, "X": 1.0}}]}, "volume": {"Points": [{"interpolation": 2, "co": {"Y": 1.0, "X": 1.0}}]}, "wave_color": {"red": {"Points": [{"handle_left": {"Y": 1.0, "X": 0.5}, "handle_right": {"Y": 0.0, "X": 0.5}, "interpolation": 0, "handle_type": 0, "co": {"Y": 0.0, "X": 1.0}}]}, "alpha": {"Points": [{"handle_left": {"Y": 1.0, "X": 0.5}, "handle_right": {"Y": 0.0, "X": 0.5}, "interpolation": 0, "handle_type": 0, "co": {"Y": 255.0, "X": 1.0}}]}, "green": {"Points": [{"handle_left": {"Y": 1.0, "X": 0.5}, "handle_right": {"Y": 0.0, "X": 0.5}, "interpolation": 0, "handle_type": 0, "co": {"Y": 123.0, "X": 1.0}}]}, "blue": {"Points": [{"handle_left": {"Y": 1.0, "X": 0.5}, "handle_right": {"Y": 0.0, "X": 0.5}, "interpolation": 0, "handle_type": 0, "co": {"Y": 255.0, "X": 1.0}}]}}, "perspective_c2_x": {"Points": [{"interpolation": 2, "co": {"Y": -1.0, "X": 1.0}}]}, "crop_x": {"Points": [{"interpolation": 2, "co": {"Y": 0.0, "X": 1.0}}]}, "duration": 86400.0, "anchor": 0, "shear_x": {"Points": [{"interpolation": 2, "co": {"Y": 0.0, "X": 1.0}}]}, "perspective_c1_y": {"Points": [{"interpolation": 2, "co": {"Y": -1.0, "X": 1.0}}]}, "perspective_c2_y": {"Points": [{"interpolation": 2, "co": {"Y": -1.0, "X": 1.0}}]}, "title": "ga.png", "perspective_c4_y": {"Points": [{"interpolation": 2, "co": {"Y": -1.0, "X": 1.0}}]}, "file_id": "6LR2P5OCWN", "perspective_c3_y": {"Points": [{"interpolation": 2, "co": {"Y": -1.0, "X": 1.0}}]}, "scale_y": {"Points": [{"interpolation": 2, "co": {"Y": 1.0, "X": 1.0}}]}, "time": {"Points": [{"interpolation": 2, "co": {"Y": 1.0, "X": 1.0}}]}, "position": 17.0615625, "channel_filter": {"Points": [{"interpolation": 2, "co": {"Y": -1.0, "X": 1.0}}]}, "perspective_c1_x": {"Points": [{"interpolation": 2, "co": {"Y": -1.0, "X": 1.0}}]}}, {"perspective_c4_x": {"Points": [{"interpolation": 2, "co": {"Y": -1.0, "X": 1.0}}]}, "perspective_c3_x": {"Points": [{"interpolation": 2, "co": {"Y": -1.0, "X": 1.0}}]}, "id": "WYMH77WBO4", "waveform": false, "perspective_c1_y": {"Points": [{"interpolation": 2, "co": {"Y": -1.0, "X": 1.0}}]}, "scale_x": {"Points": [{"interpolation": 2, "co": {"Y": 1.0, "X": 1.0}}]}, "has_audio": {"Points": [{"interpolation": 2, "co": {"Y": -1.0, "X": 1.0}}]}, "alpha": {"Points": [{"interpolation": 2, "co": {"Y": 1.0, "X": 1.0}}, {"handle_left": {"Y": 1.0, "X": 0.5}, "handle_right": {"Y": 0.0, "X": 0.5}, "interpolation": 0, "handle_type": 0, "co": {"Y": 0.0, "X": 1.0}}, {"handle_left": {"Y": 1.0, "X": 0.5}, "handle_right": {"Y": 0.0, "X": 0.5}, "interpolation": 0, "handle_type": 0, "co": {"Y": 1.0, "X": 7.0}}]}, "crop_height": {"Points": [{"interpolation": 2, "co": {"Y": -1.0, "X": 1.0}}]}, "reader": {"width": 944, "has_audio": false, "audio_bit_rate": 0, "vcodec": "", "interlaced_frame": false, "pixel_format": -1, "audio_stream_index": -1, "video_bit_rate": 0, "acodec": "", "channel_layout": 4, "video_stream_index": -1, "fps": {"num": 30, "den": 1}, "audio_timebase": {"num": 1, "den": 1}, "has_video": true, "sample_rate": 0, "type": "QtImageReader", "path": "Documents\\mfom1.png", "video_timebase": {"num": 1, "den": 30}, "height": 608, "display_ratio": {"num": 59, "den": 38}, "duration": 86400.0, "video_length": "2592000", "top_field_first": true, "file_size": "2295808", "channels": 0, "has_single_image": true, "pixel_ratio": {"num": 1, "den": 1}}, "crop_width": {"Points": [{"interpolation": 2, "co": {"Y": -1.0, "X": 1.0}}]}, "location_y": {"Points": [{"interpolation": 2, "co": {"Y": 0.0, "X": 1.0}}]}, "rotation": {"Points": [{"interpolation": 2, "co": {"Y": 0.0, "X": 1.0}}]}, "start": 0.0, "scale_y": {"Points": [{"interpolation": 2, "co": {"Y": 1.0, "X": 1.0}}]}, "end": 0.5, "layer": 7, "image": ".openshot_qt\\thumbnail\\ISQTTSP71Z.png", "duration": 86400.0, "scale": 1, "shear_y": {"Points": [{"interpolation": 2, "co": {"Y": 0.0, "X": 1.0}}]}, "effects": [], "has_video": {"Points": [{"interpolation": 2, "co": {"Y": -1.0, "X": 1.0}}]}, "gravity": 4, "display": 0, "location_x": {"Points": [{"interpolation": 2, "co": {"Y": 0.0, "X": 1.0}}]}, "volume": {"Points": [{"interpolation": 2, "co": {"Y": 1.0, "X": 1.0}}]}, "wave_color": {"red": {"Points": [{"handle_left": {"Y": 1.0, "X": 0.5}, "handle_right": {"Y": 0.0, "X": 0.5}, "interpolation": 0, "handle_type": 0, "co": {"Y": 0.0, "X": 1.0}}]}, "alpha": {"Points": [{"handle_left": {"Y": 1.0, "X": 0.5}, "handle_right": {"Y": 0.0, "X": 0.5}, "interpolation": 0, "handle_type": 0, "co": {"Y": 255.0, "X": 1.0}}]}, "green": {"Points": [{"handle_left": {"Y": 1.0, "X": 0.5}, "handle_right": {"Y": 0.0, "X": 0.5}, "interpolation": 0, "handle_type": 0, "co": {"Y": 123.0, "X": 1.0}}]}, "blue": {"Points": [{"handle_left": {"Y": 1.0, "X": 0.5}, "handle_right": {"Y": 0.0, "X": 0.5}, "interpolation": 0, "handle_type": 0, "co": {"Y": 255.0, "X": 1.0}}]}}, "perspective_c2_x": {"Points": [{"interpolation": 2, "co": {"Y": -1.0, "X": 1.0}}]}, "crop_y": {"Points": [{"interpolation": 2, "co": {"Y": 0.0, "X": 1.0}}]}, "anchor": 0, "shear_x": {"Points": [{"interpolation": 2, "co": {"Y": 0.0, "X": 1.0}}]}, "time": {"Points": [{"interpolation": 2, "co": {"Y": 1.0, "X": 1.0}}]}, "perspective_c2_y": {"Points": [{"interpolation": 2, "co": {"Y": -1.0, "X": 1.0}}]}, "title": "mfom1.png", "perspective_c4_y": {"Points": [{"interpolation": 2, "co": {"Y": -1.0, "X": 1.0}}]}, "file_id": "ISQTTSP71Z", "perspective_c3_y": {"Points": [{"interpolation": 2, "co": {"Y": -1.0, "X": 1.0}}]}, "channel_mapping": {"Points": [{"interpolation": 2, "co": {"Y": -1.0, "X": 1.0}}]}, "crop_x": {"Points": [{"interpolation": 2, "co": {"Y": 0.0, "X": 1.0}}]}, "channel_filter": {"Points": [{"interpolation": 2, "co": {"Y": -1.0, "X": 1.0}}]}, "perspective_c1_x": {"Points": [{"interpolation": 2, "co": {"Y": -1.0, "X": 1.0}}]}, "position": 22.46}, {"perspective_c4_x": {"Points": [{"interpolation": 2, "co": {"Y": -1.0, "X": 1.0}}]}, "perspective_c3_x": {"Points": [{"interpolation": 2, "co": {"Y": -1.0, "X": 1.0}}]}, "id": "97U1KNMO9N", "waveform": false, "perspective_c1_y": {"Points": [{"interpolation": 2, "co": {"Y": -1.0, "X": 1.0}}]}, "scale_x": {"Points": [{"interpolation": 2, "co": {"Y": 1.0, "X": 1.0}}]}, "has_audio": {"Points": [{"interpolation": 2, "co": {"Y": -1.0, "X": 1.0}}]}, "alpha": {"Points": [{"interpolation": 2, "co": {"Y": 1.0, "X": 1.0}}, {"handle_left": {"Y": 1.0, "X": 0.5}, "handle_right": {"Y": 0.0, "X": 0.5}, "interpolation": 0, "handle_type": 0, "co": {"Y": 0.0, "X": 1.0}}, {"handle_left": {"Y": 1.0, "X": 0.5}, "handle_right": {"Y": 0.0, "X": 0.5}, "interpolation": 0, "handle_type": 0, "co": {"Y": 1.0, "X": 7.0}}]}, "crop_height": {"Points": [{"interpolation": 2, "co": {"Y": -1.0, "X": 1.0}}]}, "reader": {"width": 944, "has_audio": false, "audio_bit_rate": 0, "vcodec": "", "interlaced_frame": false, "pixel_format": -1, "audio_stream_index": -1, "video_bit_rate": 0, "acodec": "", "channel_layout": 4, "video_stream_index": -1, "fps": {"num": 30, "den": 1}, "audio_timebase": {"num": 1, "den": 1}, "has_video": true, "sample_rate": 0, "type": "QtImageReader", "path": "Documents\\mfom2.png", "video_timebase": {"num": 1, "den": 30}, "height": 608, "display_ratio": {"num": 59, "den": 38}, "duration": 86400.0, "video_length": "2592000", "top_field_first": true, "file_size": "2295808", "channels": 0, "has_single_image": true, "pixel_ratio": {"num": 1, "den": 1}}, "crop_width": {"Points": [{"interpolation": 2, "co": {"Y": -1.0, "X": 1.0}}]}, "location_y": {"Points": [{"interpolation": 2, "co": {"Y": 0.0, "X": 1.0}}]}, "rotation": {"Points": [{"interpolation": 2, "co": {"Y": 0.0, "X": 1.0}}]}, "start": 0.0, "scale_y": {"Points": [{"interpolation": 2, "co": {"Y": 1.0, "X": 1.0}}]}, "end": 0.5, "layer": 7, "image": ".openshot_qt\\thumbnail\\TOQTIBFULH.png", "duration": 86400.0, "scale": 1, "shear_y": {"Points": [{"interpolation": 2, "co": {"Y": 0.0, "X": 1.0}}]}, "effects": [], "has_video": {"Points": [{"interpolation": 2, "co": {"Y": -1.0, "X": 1.0}}]}, "gravity": 4, "display": 0, "location_x": {"Points": [{"interpolation": 2, "co": {"Y": 0.0, "X": 1.0}}]}, "volume": {"Points": [{"interpolation": 2, "co": {"Y": 1.0, "X": 1.0}}]}, "wave_color": {"red": {"Points": [{"handle_left": {"Y": 1.0, "X": 0.5}, "handle_right": {"Y": 0.0, "X": 0.5}, "interpolation": 0, "handle_type": 0, "co": {"Y": 0.0, "X": 1.0}}]}, "alpha": {"Points": [{"handle_left": {"Y": 1.0, "X": 0.5}, "handle_right": {"Y": 0.0, "X": 0.5}, "interpolation": 0, "handle_type": 0, "co": {"Y": 255.0, "X": 1.0}}]}, "green": {"Points": [{"handle_left": {"Y": 1.0, "X": 0.5}, "handle_right": {"Y": 0.0, "X": 0.5}, "interpolation": 0, "handle_type": 0, "co": {"Y": 123.0, "X": 1.0}}]}, "blue": {"Points": [{"handle_left": {"Y": 1.0, "X": 0.5}, "handle_right": {"Y": 0.0, "X": 0.5}, "interpolation": 0, "handle_type": 0, "co": {"Y": 255.0, "X": 1.0}}]}}, "perspective_c2_x": {"Points": [{"interpolation": 2, "co": {"Y": -1.0, "X": 1.0}}]}, "crop_y": {"Points": [{"interpolation": 2, "co": {"Y": 0.0, "X": 1.0}}]}, "anchor": 0, "shear_x": {"Points": [{"interpolation": 2, "co": {"Y": 0.0, "X": 1.0}}]}, "time": {"Points": [{"interpolation": 2, "co": {"Y": 1.0, "X": 1.0}}]}, "perspective_c2_y": {"Points": [{"interpolation": 2, "co": {"Y": -1.0, "X": 1.0}}]}, "title": "mfom2.png", "perspective_c4_y": {"Points": [{"interpolation": 2, "co": {"Y": -1.0, "X": 1.0}}]}, "file_id": "TOQTIBFULH", "perspective_c3_y": {"Points": [{"interpolation": 2, "co": {"Y": -1.0, "X": 1.0}}]}, "channel_mapping": {"Points": [{"interpolation": 2, "co": {"Y": -1.0, "X": 1.0}}]}, "crop_x": {"Points": [{"interpolation": 2, "co": {"Y": 0.0, "X": 1.0}}]}, "channel_filter": {"Points": [{"interpolation": 2, "co": {"Y": -1.0, "X": 1.0}}]}, "perspective_c1_x": {"Points": [{"interpolation": 2, "co": {"Y": -1.0, "X": 1.0}}]}, "position": 22.73}, {"perspective_c4_x": {"Points": [{"interpolation": 2, "co": {"Y": -1.0, "X": 1.0}}]}, "perspective_c3_x": {"Points": [{"interpolation": 2, "co": {"Y": -1.0, "X": 1.0}}]}, "id": "EQPKVYFHDM", "waveform": false, "perspective_c1_y": {"Points": [{"interpolation": 2, "co": {"Y": -1.0, "X": 1.0}}]}, "scale_x": {"Points": [{"interpolation": 2, "co": {"Y": 1.0, "X": 1.0}}]}, "has_audio": {"Points": [{"interpolation": 2, "co": {"Y": -1.0, "X": 1.0}}]}, "alpha": {"Points": [{"interpolation": 2, "co": {"Y": 1.0, "X": 1.0}}, {"handle_left": {"Y": 1.0, "X": 0.5}, "handle_right": {"Y": 0.0, "X": 0.5}, "interpolation": 0, "handle_type": 0, "co": {"Y": 0.0, "X": 1.0}}, {"handle_left": {"Y": 1.0, "X": 0.5}, "handle_right": {"Y": 0.0, "X": 0.5}, "interpolation": 0, "handle_type": 0, "co": {"Y": 1.0, "X": 7.0}}]}, "crop_height": {"Points": [{"interpolation": 2, "co": {"Y": -1.0, "X": 1.0}}]}, "reader": {"width": 944, "has_audio": false, "audio_bit_rate": 0, "vcodec": "", "interlaced_frame": false, "pixel_format": -1, "audio_stream_index": -1, "video_bit_rate": 0, "acodec": "", "channel_layout": 4, "video_stream_index": -1, "fps": {"num": 30, "den": 1}, "audio_timebase": {"num": 1, "den": 1}, "has_video": true, "sample_rate": 0, "type": "QtImageReader", "path": "Documents\\mfom3.png", "video_timebase": {"num": 1, "den": 30}, "height": 608, "display_ratio": {"num": 59, "den": 38}, "duration": 86400.0, "video_length": "2592000", "top_field_first": true, "file_size": "2295808", "channels": 0, "has_single_image": true, "pixel_ratio": {"num": 1, "den": 1}}, "crop_width": {"Points": [{"interpolation": 2, "co": {"Y": -1.0, "X": 1.0}}]}, "location_y": {"Points": [{"interpolation": 2, "co": {"Y": 0.0, "X": 1.0}}]}, "rotation": {"Points": [{"interpolation": 2, "co": {"Y": 0.0, "X": 1.0}}]}, "start": 0.0, "scale_y": {"Points": [{"interpolation": 2, "co": {"Y": 1.0, "X": 1.0}}]}, "end": 0.5, "layer": 7, "image": ".openshot_qt\\thumbnail\\FGVFVQ8H4G.png", "duration": 86400.0, "scale": 1, "shear_y": {"Points": [{"interpolation": 2, "co": {"Y": 0.0, "X": 1.0}}]}, "effects": [], "has_video": {"Points": [{"interpolation": 2, "co": {"Y": -1.0, "X": 1.0}}]}, "gravity": 4, "display": 0, "location_x": {"Points": [{"interpolation": 2, "co": {"Y": 0.0, "X": 1.0}}]}, "volume": {"Points": [{"interpolation": 2, "co": {"Y": 1.0, "X": 1.0}}]}, "wave_color": {"red": {"Points": [{"handle_left": {"Y": 1.0, "X": 0.5}, "handle_right": {"Y": 0.0, "X": 0.5}, "interpolation": 0, "handle_type": 0, "co": {"Y": 0.0, "X": 1.0}}]}, "alpha": {"Points": [{"handle_left": {"Y": 1.0, "X": 0.5}, "handle_right": {"Y": 0.0, "X": 0.5}, "interpolation": 0, "handle_type": 0, "co": {"Y": 255.0, "X": 1.0}}]}, "green": {"Points": [{"handle_left": {"Y": 1.0, "X": 0.5}, "handle_right": {"Y": 0.0, "X": 0.5}, "interpolation": 0, "handle_type": 0, "co": {"Y": 123.0, "X": 1.0}}]}, "blue": {"Points": [{"handle_left": {"Y": 1.0, "X": 0.5}, "handle_right": {"Y": 0.0, "X": 0.5}, "interpolation": 0, "handle_type": 0, "co": {"Y": 255.0, "X": 1.0}}]}}, "perspective_c2_x": {"Points": [{"interpolation": 2, "co": {"Y": -1.0, "X": 1.0}}]}, "crop_y": {"Points": [{"interpolation": 2, "co": {"Y": 0.0, "X": 1.0}}]}, "anchor": 0, "shear_x": {"Points": [{"interpolation": 2, "co": {"Y": 0.0, "X": 1.0}}]}, "time": {"Points": [{"interpolation": 2, "co": {"Y": 1.0, "X": 1.0}}]}, "perspective_c2_y": {"Points": [{"interpolation": 2, "co": {"Y": -1.0, "X": 1.0}}]}, "title": "mfom3.png", "perspective_c4_y": {"Points": [{"interpolation": 2, "co": {"Y": -1.0, "X": 1.0}}]}, "file_id": "FGVFVQ8H4G", "perspective_c3_y": {"Points": [{"interpolation": 2, "co": {"Y": -1.0, "X": 1.0}}]}, "channel_mapping": {"Points": [{"interpolation": 2, "co": {"Y": -1.0, "X": 1.0}}]}, "crop_x": {"Points": [{"interpolation": 2, "co": {"Y": 0.0, "X": 1.0}}]}, "channel_filter": {"Points": [{"interpolation": 2, "co": {"Y": -1.0, "X": 1.0}}]}, "perspective_c1_x": {"Points": [{"interpolation": 2, "co": {"Y": -1.0, "X": 1.0}}]}, "position": 23.0}, {"perspective_c4_x": {"Points": [{"interpolation": 2, "co": {"Y": -1.0, "X": 1.0}}]}, "perspective_c3_x": {"Points": [{"interpolation": 2, "co": {"Y": -1.0, "X": 1.0}}]}, "id": "74O6WOWOH5", "waveform": false, "perspective_c1_y": {"Points": [{"interpolation": 2, "co": {"Y": -1.0, "X": 1.0}}]}, "scale_x": {"Points": [{"interpolation": 2, "co": {"Y": 1.0, "X": 1.0}}]}, "has_audio": {"Points": [{"interpolation": 2, "co": {"Y": -1.0, "X": 1.0}}]}, "alpha": {"Points": [{"interpolation": 2, "co": {"Y": 1.0, "X": 1.0}}, {"handle_left": {"Y": 1.0, "X": 0.5}, "handle_right": {"Y": 0.0, "X": 0.5}, "interpolation": 0, "handle_type": 0, "co": {"Y": 0.0, "X": 1.0}}, {"handle_left": {"Y": 1.0, "X": 0.5}, "handle_right": {"Y": 0.0, "X": 0.5}, "interpolation": 0, "handle_type": 0, "co": {"Y": 1.0, "X": 7.0}}]}, "crop_height": {"Points": [{"interpolation": 2, "co": {"Y": -1.0, "X": 1.0}}]}, "reader": {"width": 944, "has_audio": false, "audio_bit_rate": 0, "vcodec": "", "interlaced_frame": false, "pixel_format": -1, "audio_stream_index": -1, "video_bit_rate": 0, "acodec": "", "channel_layout": 4, "video_stream_index": -1, "fps": {"num": 30, "den": 1}, "audio_timebase": {"num": 1, "den": 1}, "has_video": true, "sample_rate": 0, "type": "QtImageReader", "path": "Documents\\mfom4.png", "video_timebase": {"num": 1, "den": 30}, "height": 608, "display_ratio": {"num": 59, "den": 38}, "duration": 86400.0, "video_length": "2592000", "top_field_first": true, "file_size": "2295808", "channels": 0, "has_single_image": true, "pixel_ratio": {"num": 1, "den": 1}}, "crop_width": {"Points": [{"interpolation": 2, "co": {"Y": -1.0, "X": 1.0}}]}, "location_y": {"Points": [{"interpolation": 2, "co": {"Y": 0.0, "X": 1.0}}]}, "rotation": {"Points": [{"interpolation": 2, "co": {"Y": 0.0, "X": 1.0}}]}, "start": 0.0, "scale_y": {"Points": [{"interpolation": 2, "co": {"Y": 1.0, "X": 1.0}}]}, "end": 0.5, "layer": 7, "image": ".openshot_qt\\thumbnail\\X4TZVB2JH1.png", "duration": 86400.0, "scale": 1, "shear_y": {"Points": [{"interpolation": 2, "co": {"Y": 0.0, "X": 1.0}}]}, "effects": [], "has_video": {"Points": [{"interpolation": 2, "co": {"Y": -1.0, "X": 1.0}}]}, "gravity": 4, "display": 0, "location_x": {"Points": [{"interpolation": 2, "co": {"Y": 0.0, "X": 1.0}}]}, "volume": {"Points": [{"interpolation": 2, "co": {"Y": 1.0, "X": 1.0}}]}, "wave_color": {"red": {"Points": [{"handle_left": {"Y": 1.0, "X": 0.5}, "handle_right": {"Y": 0.0, "X": 0.5}, "interpolation": 0, "handle_type": 0, "co": {"Y": 0.0, "X": 1.0}}]}, "alpha": {"Points": [{"handle_left": {"Y": 1.0, "X": 0.5}, "handle_right": {"Y": 0.0, "X": 0.5}, "interpolation": 0, "handle_type": 0, "co": {"Y": 255.0, "X": 1.0}}]}, "green": {"Points": [{"handle_left": {"Y": 1.0, "X": 0.5}, "handle_right": {"Y": 0.0, "X": 0.5}, "interpolation": 0, "handle_type": 0, "co": {"Y": 123.0, "X": 1.0}}]}, "blue": {"Points": [{"handle_left": {"Y": 1.0, "X": 0.5}, "handle_right": {"Y": 0.0, "X": 0.5}, "interpolation": 0, "handle_type": 0, "co": {"Y": 255.0, "X": 1.0}}]}}, "perspective_c2_x": {"Points": [{"interpolation": 2, "co": {"Y": -1.0, "X": 1.0}}]}, "crop_y": {"Points": [{"interpolation": 2, "co": {"Y": 0.0, "X": 1.0}}]}, "anchor": 0, "shear_x": {"Points": [{"interpolation": 2, "co": {"Y": 0.0, "X": 1.0}}]}, "time": {"Points": [{"interpolation": 2, "co": {"Y": 1.0, "X": 1.0}}]}, "perspective_c2_y": {"Points": [{"interpolation": 2, "co": {"Y": -1.0, "X": 1.0}}]}, "title": "mfom4.png", "perspective_c4_y": {"Points": [{"interpolation": 2, "co": {"Y": -1.0, "X": 1.0}}]}, "file_id": "X4TZVB2JH1", "perspective_c3_y": {"Points": [{"interpolation": 2, "co": {"Y": -1.0, "X": 1.0}}]}, "channel_mapping": {"Points": [{"interpolation": 2, "co": {"Y": -1.0, "X": 1.0}}]}, "crop_x": {"Points": [{"interpolation": 2, "co": {"Y": 0.0, "X": 1.0}}]}, "channel_filter": {"Points": [{"interpolation": 2, "co": {"Y": -1.0, "X": 1.0}}]}, "perspective_c1_x": {"Points": [{"interpolation": 2, "co": {"Y": -1.0, "X": 1.0}}]}, "position": 23.27}, {"perspective_c4_x": {"Points": [{"interpolation": 2, "co": {"Y": -1.0, "X": 1.0}}]}, "perspective_c3_x": {"Points": [{"interpolation": 2, "co": {"Y": -1.0, "X": 1.0}}]}, "id": "6RHFU8SLKW", "waveform": false, "perspective_c1_y": {"Points": [{"interpolation": 2, "co": {"Y": -1.0, "X": 1.0}}]}, "scale_x": {"Points": [{"interpolation": 2, "co": {"Y": 1.0, "X": 1.0}}]}, "has_audio": {"Points": [{"interpolation": 2, "co": {"Y": -1.0, "X": 1.0}}]}, "alpha": {"Points": [{"interpolation": 2, "co": {"Y": 1.0, "X": 1.0}}, {"handle_left": {"Y": 1.0, "X": 0.5}, "handle_right": {"Y": 0.0, "X": 0.5}, "interpolation": 0, "handle_type": 0, "co": {"Y": 0.0, "X": 1.0}}, {"handle_left": {"Y": 1.0, "X": 0.5}, "handle_right": {"Y": 0.0, "X": 0.5}, "interpolation": 0, "handle_type": 0, "co": {"Y": 1.0, "X": 7.0}}]}, "crop_height": {"Points": [{"interpolation": 2, "co": {"Y": -1.0, "X": 1.0}}]}, "reader": {"width": 944, "has_audio": false, "audio_bit_rate": 0, "vcodec": "", "interlaced_frame": false, "pixel_format": -1, "audio_stream_index": -1, "video_bit_rate": 0, "acodec": "", "channel_layout": 4, "video_stream_index": -1, "fps": {"num": 30, "den": 1}, "audio_timebase": {"num": 1, "den": 1}, "has_video": true, "sample_rate": 0, "type": "QtImageReader", "path": "Documents\\mfom5.png", "video_timebase": {"num": 1, "den": 30}, "height": 608, "display_ratio": {"num": 59, "den": 38}, "duration": 86400.0, "video_length": "2592000", "top_field_first": true, "file_size": "2295808", "channels": 0, "has_single_image": true, "pixel_ratio": {"num": 1, "den": 1}}, "crop_width": {"Points": [{"interpolation": 2, "co": {"Y": -1.0, "X": 1.0}}]}, "location_y": {"Points": [{"interpolation": 2, "co": {"Y": 0.0, "X": 1.0}}]}, "rotation": {"Points": [{"interpolation": 2, "co": {"Y": 0.0, "X": 1.0}}]}, "start": 0.0, "scale_y": {"Points": [{"interpolation": 2, "co": {"Y": 1.0, "X": 1.0}}]}, "end": 0.5, "layer": 7, "image": ".openshot_qt\\thumbnail\\SM04TKECNH.png", "duration": 86400.0, "scale": 1, "shear_y": {"Points": [{"interpolation": 2, "co": {"Y": 0.0, "X": 1.0}}]}, "effects": [], "has_video": {"Points": [{"interpolation": 2, "co": {"Y": -1.0, "X": 1.0}}]}, "gravity": 4, "display": 0, "location_x": {"Points": [{"interpolation": 2, "co": {"Y": 0.0, "X": 1.0}}]}, "volume": {"Points": [{"interpolation": 2, "co": {"Y": 1.0, "X": 1.0}}]}, "wave_color": {"red": {"Points": [{"handle_left": {"Y": 1.0, "X": 0.5}, "handle_right": {"Y": 0.0, "X": 0.5}, "interpolation": 0, "handle_type": 0, "co": {"Y": 0.0, "X": 1.0}}]}, "alpha": {"Points": [{"handle_left": {"Y": 1.0, "X": 0.5}, "handle_right": {"Y": 0.0, "X": 0.5}, "interpolation": 0, "handle_type": 0, "co": {"Y": 255.0, "X": 1.0}}]}, "green": {"Points": [{"handle_left": {"Y": 1.0, "X": 0.5}, "handle_right": {"Y": 0.0, "X": 0.5}, "interpolation": 0, "handle_type": 0, "co": {"Y": 123.0, "X": 1.0}}]}, "blue": {"Points": [{"handle_left": {"Y": 1.0, "X": 0.5}, "handle_right": {"Y": 0.0, "X": 0.5}, "interpolation": 0, "handle_type": 0, "co": {"Y": 255.0, "X": 1.0}}]}}, "perspective_c2_x": {"Points": [{"interpolation": 2, "co": {"Y": -1.0, "X": 1.0}}]}, "crop_y": {"Points": [{"interpolation": 2, "co": {"Y": 0.0, "X": 1.0}}]}, "anchor": 0, "shear_x": {"Points": [{"interpolation": 2, "co": {"Y": 0.0, "X": 1.0}}]}, "time": {"Points": [{"interpolation": 2, "co": {"Y": 1.0, "X": 1.0}}]}, "perspective_c2_y": {"Points": [{"interpolation": 2, "co": {"Y": -1.0, "X": 1.0}}]}, "title": "mfom5.png", "perspective_c4_y": {"Points": [{"interpolation": 2, "co": {"Y": -1.0, "X": 1.0}}]}, "file_id": "SM04TKECNH", "perspective_c3_y": {"Points": [{"interpolation": 2, "co": {"Y": -1.0, "X": 1.0}}]}, "channel_mapping": {"Points": [{"interpolation": 2, "co": {"Y": -1.0, "X": 1.0}}]}, "crop_x": {"Points": [{"interpolation": 2, "co": {"Y": 0.0, "X": 1.0}}]}, "channel_filter": {"Points": [{"interpolation": 2, "co": {"Y": -1.0, "X": 1.0}}]}, "perspective_c1_x": {"Points": [{"interpolation": 2, "co": {"Y": -1.0, "X": 1.0}}]}, "position": 23.54}, {"perspective_c4_x": {"Points": [{"interpolation": 2, "co": {"Y": -1.0, "X": 1.0}}]}, "perspective_c3_x": {"Points": [{"interpolation": 2, "co": {"Y": -1.0, "X": 1.0}}]}, "id": "4ZZDENJQWP", "waveform": false, "perspective_c1_y": {"Points": [{"interpolation": 2, "co": {"Y": -1.0, "X": 1.0}}]}, "scale_x": {"Points": [{"interpolation": 2, "co": {"Y": 1.0, "X": 1.0}}]}, "has_audio": {"Points": [{"interpolation": 2, "co": {"Y": -1.0, "X": 1.0}}]}, "alpha": {"Points": [{"interpolation": 2, "co": {"Y": 1.0, "X": 1.0}}, {"handle_left": {"Y": 1.0, "X": 0.5}, "handle_right": {"Y": 0.0, "X": 0.5}, "interpolation": 0, "handle_type": 0, "co": {"Y": 0.0, "X": 1.0}}, {"handle_left": {"Y": 1.0, "X": 0.5}, "handle_right": {"Y": 0.0, "X": 0.5}, "interpolation": 0, "handle_type": 0, "co": {"Y": 1.0, "X": 7.0}}]}, "crop_height": {"Points": [{"interpolation": 2, "co": {"Y": -1.0, "X": 1.0}}]}, "reader": {"width": 944, "has_audio": false, "audio_bit_rate": 0, "vcodec": "", "interlaced_frame": false, "pixel_format": -1, "audio_stream_index": -1, "video_bit_rate": 0, "acodec": "", "channel_layout": 4, "video_stream_index": -1, "fps": {"num": 30, "den": 1}, "audio_timebase": {"num": 1, "den": 1}, "has_video": true, "sample_rate": 0, "type": "QtImageReader", "path": "Documents\\mfom6.png", "video_timebase": {"num": 1, "den": 30}, "height": 608, "display_ratio": {"num": 59, "den": 38}, "duration": 86400.0, "video_length": "2592000", "top_field_first": true, "file_size": "2295808", "channels": 0, "has_single_image": true, "pixel_ratio": {"num": 1, "den": 1}}, "crop_width": {"Points": [{"interpolation": 2, "co": {"Y": -1.0, "X": 1.0}}]}, "location_y": {"Points": [{"interpolation": 2, "co": {"Y": 0.0, "X": 1.0}}]}, "rotation": {"Points": [{"interpolation": 2, "co": {"Y": 0.0, "X": 1.0}}]}, "start": 0.0, "scale_y": {"Points": [{"interpolation": 2, "co": {"Y": 1.0, "X": 1.0}}]}, "end": 0.5, "layer": 7, "image": ".openshot_qt\\thumbnail\\OW0O8C8DF2.png", "duration": 86400.0, "scale": 1, "shear_y": {"Points": [{"interpolation": 2, "co": {"Y": 0.0, "X": 1.0}}]}, "effects": [], "has_video": {"Points": [{"interpolation": 2, "co": {"Y": -1.0, "X": 1.0}}]}, "gravity": 4, "display": 0, "location_x": {"Points": [{"interpolation": 2, "co": {"Y": 0.0, "X": 1.0}}]}, "volume": {"Points": [{"interpolation": 2, "co": {"Y": 1.0, "X": 1.0}}]}, "wave_color": {"red": {"Points": [{"handle_left": {"Y": 1.0, "X": 0.5}, "handle_right": {"Y": 0.0, "X": 0.5}, "interpolation": 0, "handle_type": 0, "co": {"Y": 0.0, "X": 1.0}}]}, "alpha": {"Points": [{"handle_left": {"Y": 1.0, "X": 0.5}, "handle_right": {"Y": 0.0, "X": 0.5}, "interpolation": 0, "handle_type": 0, "co": {"Y": 255.0, "X": 1.0}}]}, "green": {"Points": [{"handle_left": {"Y": 1.0, "X": 0.5}, "handle_right": {"Y": 0.0, "X": 0.5}, "interpolation": 0, "handle_type": 0, "co": {"Y": 123.0, "X": 1.0}}]}, "blue": {"Points": [{"handle_left": {"Y": 1.0, "X": 0.5}, "handle_right": {"Y": 0.0, "X": 0.5}, "interpolation": 0, "handle_type": 0, "co": {"Y": 255.0, "X": 1.0}}]}}, "perspective_c2_x": {"Points": [{"interpolation": 2, "co": {"Y": -1.0, "X": 1.0}}]}, "crop_y": {"Points": [{"interpolation": 2, "co": {"Y": 0.0, "X": 1.0}}]}, "anchor": 0, "shear_x": {"Points": [{"interpolation": 2, "co": {"Y": 0.0, "X": 1.0}}]}, "time": {"Points": [{"interpolation": 2, "co": {"Y": 1.0, "X": 1.0}}]}, "perspective_c2_y": {"Points": [{"interpolation": 2, "co": {"Y": -1.0, "X": 1.0}}]}, "title": "mfom6.png", "perspective_c4_y": {"Points": [{"interpolation": 2, "co": {"Y": -1.0, "X": 1.0}}]}, "file_id": "OW0O8C8DF2", "perspective_c3_y": {"Points": [{"interpolation": 2, "co": {"Y": -1.0, "X": 1.0}}]}, "channel_mapping": {"Points": [{"interpolation": 2, "co": {"Y": -1.0, "X": 1.0}}]}, "crop_x": {"Points": [{"interpolation": 2, "co": {"Y": 0.0, "X": 1.0}}]}, "channel_filter": {"Points": [{"interpolation": 2, "co": {"Y": -1.0, "X": 1.0}}]}, "perspective_c1_x": {"Points": [{"interpolation": 2, "co": {"Y": -1.0, "X": 1.0}}]}, "position": 23.81}, {"perspective_c4_x": {"Points": [{"interpolation": 2, "co": {"Y": -1.0, "X": 1.0}}]}, "perspective_c3_x": {"Points": [{"interpolation": 2, "co": {"Y": -1.0, "X": 1.0}}]}, "id": "0X66TS86FG", "waveform": false, "perspective_c1_y": {"Points": [{"interpolation": 2, "co": {"Y": -1.0, "X": 1.0}}]}, "scale_x": {"Points": [{"interpolation": 2, "co": {"Y": 1.0, "X": 1.0}}]}, "has_audio": {"Points": [{"interpolation": 2, "co": {"Y": -1.0, "X": 1.0}}]}, "alpha": {"Points": [{"interpolation": 2, "co": {"Y": 1.0, "X": 1.0}}, {"handle_left": {"Y": 1.0, "X": 0.5}, "handle_right": {"Y": 0.0, "X": 0.5}, "interpolation": 0, "handle_type": 0, "co": {"Y": 0.0, "X": 1.0}}, {"handle_left": {"Y": 1.0, "X": 0.5}, "handle_right": {"Y": 0.0, "X": 0.5}, "interpolation": 0, "handle_type": 0, "co": {"Y": 1.0, "X": 7.0}}]}, "crop_height": {"Points": [{"interpolation": 2, "co": {"Y": -1.0, "X": 1.0}}]}, "reader": {"width": 944, "has_audio": false, "audio_bit_rate": 0, "vcodec": "", "interlaced_frame": false, "pixel_format": -1, "audio_stream_index": -1, "video_bit_rate": 0, "acodec": "", "channel_layout": 4, "video_stream_index": -1, "fps": {"num": 30, "den": 1}, "audio_timebase": {"num": 1, "den": 1}, "has_video": true, "sample_rate": 0, "type": "QtImageReader", "path": "Documents\\mfom7.png", "video_timebase": {"num": 1, "den": 30}, "height": 608, "display_ratio": {"num": 59, "den": 38}, "duration": 86400.0, "video_length": "2592000", "top_field_first": true, "file_size": "2295808", "channels": 0, "has_single_image": true, "pixel_ratio": {"num": 1, "den": 1}}, "crop_width": {"Points": [{"interpolation": 2, "co": {"Y": -1.0, "X": 1.0}}]}, "location_y": {"Points": [{"interpolation": 2, "co": {"Y": 0.0, "X": 1.0}}]}, "rotation": {"Points": [{"interpolation": 2, "co": {"Y": 0.0, "X": 1.0}}]}, "start": 0.0, "scale_y": {"Points": [{"interpolation": 2, "co": {"Y": 1.0, "X": 1.0}}]}, "end": 0.5, "layer": 7, "image": ".openshot_qt\\thumbnail\\DSWPXMYKYY.png", "duration": 86400.0, "scale": 1, "shear_y": {"Points": [{"interpolation": 2, "co": {"Y": 0.0, "X": 1.0}}]}, "effects": [], "has_video": {"Points": [{"interpolation": 2, "co": {"Y": -1.0, "X": 1.0}}]}, "gravity": 4, "display": 0, "location_x": {"Points": [{"interpolation": 2, "co": {"Y": 0.0, "X": 1.0}}]}, "volume": {"Points": [{"interpolation": 2, "co": {"Y": 1.0, "X": 1.0}}]}, "wave_color": {"red": {"Points": [{"handle_left": {"Y": 1.0, "X": 0.5}, "handle_right": {"Y": 0.0, "X": 0.5}, "interpolation": 0, "handle_type": 0, "co": {"Y": 0.0, "X": 1.0}}]}, "alpha": {"Points": [{"handle_left": {"Y": 1.0, "X": 0.5}, "handle_right": {"Y": 0.0, "X": 0.5}, "interpolation": 0, "handle_type": 0, "co": {"Y": 255.0, "X": 1.0}}]}, "green": {"Points": [{"handle_left": {"Y": 1.0, "X": 0.5}, "handle_right": {"Y": 0.0, "X": 0.5}, "interpolation": 0, "handle_type": 0, "co": {"Y": 123.0, "X": 1.0}}]}, "blue": {"Points": [{"handle_left": {"Y": 1.0, "X": 0.5}, "handle_right": {"Y": 0.0, "X": 0.5}, "interpolation": 0, "handle_type": 0, "co": {"Y": 255.0, "X": 1.0}}]}}, "perspective_c2_x": {"Points": [{"interpolation": 2, "co": {"Y": -1.0, "X": 1.0}}]}, "crop_y": {"Points": [{"interpolation": 2, "co": {"Y": 0.0, "X": 1.0}}]}, "anchor": 0, "shear_x": {"Points": [{"interpolation": 2, "co": {"Y": 0.0, "X": 1.0}}]}, "time": {"Points": [{"interpolation": 2, "co": {"Y": 1.0, "X": 1.0}}]}, "perspective_c2_y": {"Points": [{"interpolation": 2, "co": {"Y": -1.0, "X": 1.0}}]}, "title": "mfom7.png", "perspective_c4_y": {"Points": [{"interpolation": 2, "co": {"Y": -1.0, "X": 1.0}}]}, "file_id": "DSWPXMYKYY", "perspective_c3_y": {"Points": [{"interpolation": 2, "co": {"Y": -1.0, "X": 1.0}}]}, "channel_mapping": {"Points": [{"interpolation": 2, "co": {"Y": -1.0, "X": 1.0}}]}, "crop_x": {"Points": [{"interpolation": 2, "co": {"Y": 0.0, "X": 1.0}}]}, "channel_filter": {"Points": [{"interpolation": 2, "co": {"Y": -1.0, "X": 1.0}}]}, "perspective_c1_x": {"Points": [{"interpolation": 2, "co": {"Y": -1.0, "X": 1.0}}]}, "position": 24.08}, {"perspective_c4_x": {"Points": [{"interpolation": 2, "co": {"Y": -1.0, "X": 1.0}}]}, "perspective_c3_x": {"Points": [{"interpolation": 2, "co": {"Y": -1.0, "X": 1.0}}]}, "id": "NZVF02PY8T", "waveform": false, "perspective_c1_y": {"Points": [{"interpolation": 2, "co": {"Y": -1.0, "X": 1.0}}]}, "scale_x": {"Points": [{"interpolation": 2, "co": {"Y": 1.0, "X": 1.0}}]}, "has_audio": {"Points": [{"interpolation": 2, "co": {"Y": -1.0, "X": 1.0}}]}, "alpha": {"Points": [{"interpolation": 2, "co": {"Y": 1.0, "X": 1.0}}, {"handle_left": {"Y": 1.0, "X": 0.5}, "handle_right": {"Y": 0.0, "X": 0.5}, "interpolation": 0, "handle_type": 0, "co": {"Y": 0.0, "X": 1.0}}, {"handle_left": {"Y": 1.0, "X": 0.5}, "handle_right": {"Y": 0.0, "X": 0.5}, "interpolation": 0, "handle_type": 0, "co": {"Y": 1.0, "X": 7.0}}]}, "crop_height": {"Points": [{"interpolation": 2, "co": {"Y": -1.0, "X": 1.0}}]}, "reader": {"width": 944, "has_audio": false, "audio_bit_rate": 0, "vcodec": "", "interlaced_frame": false, "pixel_format": -1, "audio_stream_index": -1, "video_bit_rate": 0, "acodec": "", "channel_layout": 4, "video_stream_index": -1, "fps": {"num": 30, "den": 1}, "audio_timebase": {"num": 1, "den": 1}, "has_video": true, "sample_rate": 0, "type": "QtImageReader", "path": "Documents\\mfom8.png", "video_timebase": {"num": 1, "den": 30}, "height": 608, "display_ratio": {"num": 59, "den": 38}, "duration": 86400.0, "video_length": "2592000", "top_field_first": true, "file_size": "2295808", "channels": 0, "has_single_image": true, "pixel_ratio": {"num": 1, "den": 1}}, "crop_width": {"Points": [{"interpolation": 2, "co": {"Y": -1.0, "X": 1.0}}]}, "location_y": {"Points": [{"interpolation": 2, "co": {"Y": 0.0, "X": 1.0}}]}, "rotation": {"Points": [{"interpolation": 2, "co": {"Y": 0.0, "X": 1.0}}]}, "start": 0.0, "scale_y": {"Points": [{"interpolation": 2, "co": {"Y": 1.0, "X": 1.0}}]}, "end": 0.5, "layer": 7, "image": ".openshot_qt\\thumbnail\\4JPWQLMGTX.png", "duration": 86400.0, "scale": 1, "shear_y": {"Points": [{"interpolation": 2, "co": {"Y": 0.0, "X": 1.0}}]}, "effects": [], "has_video": {"Points": [{"interpolation": 2, "co": {"Y": -1.0, "X": 1.0}}]}, "gravity": 4, "display": 0, "location_x": {"Points": [{"interpolation": 2, "co": {"Y": 0.0, "X": 1.0}}]}, "volume": {"Points": [{"interpolation": 2, "co": {"Y": 1.0, "X": 1.0}}]}, "wave_color": {"red": {"Points": [{"handle_left": {"Y": 1.0, "X": 0.5}, "handle_right": {"Y": 0.0, "X": 0.5}, "interpolation": 0, "handle_type": 0, "co": {"Y": 0.0, "X": 1.0}}]}, "alpha": {"Points": [{"handle_left": {"Y": 1.0, "X": 0.5}, "handle_right": {"Y": 0.0, "X": 0.5}, "interpolation": 0, "handle_type": 0, "co": {"Y": 255.0, "X": 1.0}}]}, "green": {"Points": [{"handle_left": {"Y": 1.0, "X": 0.5}, "handle_right": {"Y": 0.0, "X": 0.5}, "interpolation": 0, "handle_type": 0, "co": {"Y": 123.0, "X": 1.0}}]}, "blue": {"Points": [{"handle_left": {"Y": 1.0, "X": 0.5}, "handle_right": {"Y": 0.0, "X": 0.5}, "interpolation": 0, "handle_type": 0, "co": {"Y": 255.0, "X": 1.0}}]}}, "perspective_c2_x": {"Points": [{"interpolation": 2, "co": {"Y": -1.0, "X": 1.0}}]}, "crop_y": {"Points": [{"interpolation": 2, "co": {"Y": 0.0, "X": 1.0}}]}, "anchor": 0, "shear_x": {"Points": [{"interpolation": 2, "co": {"Y": 0.0, "X": 1.0}}]}, "time": {"Points": [{"interpolation": 2, "co": {"Y": 1.0, "X": 1.0}}]}, "perspective_c2_y": {"Points": [{"interpolation": 2, "co": {"Y": -1.0, "X": 1.0}}]}, "title": "mfom8.png", "perspective_c4_y": {"Points": [{"interpolation": 2, "co": {"Y": -1.0, "X": 1.0}}]}, "file_id": "4JPWQLMGTX", "perspective_c3_y": {"Points": [{"interpolation": 2, "co": {"Y": -1.0, "X": 1.0}}]}, "channel_mapping": {"Points": [{"interpolation": 2, "co": {"Y": -1.0, "X": 1.0}}]}, "crop_x": {"Points": [{"interpolation": 2, "co": {"Y": 0.0, "X": 1.0}}]}, "channel_filter": {"Points": [{"interpolation": 2, "co": {"Y": -1.0, "X": 1.0}}]}, "perspective_c1_x": {"Points": [{"interpolation": 2, "co": {"Y": -1.0, "X": 1.0}}]}, "position": 24.349999999999998}, {"perspective_c4_x": {"Points": [{"interpolation": 2, "co": {"Y": -1.0, "X": 1.0}}]}, "perspective_c3_x": {"Points": [{"interpolation": 2, "co": {"Y": -1.0, "X": 1.0}}]}, "id": "01KIOKWW2W", "waveform": false, "perspective_c1_y": {"Points": [{"interpolation": 2, "co": {"Y": -1.0, "X": 1.0}}]}, "scale_x": {"Points": [{"interpolation": 2, "co": {"Y": 1.0, "X": 1.0}}]}, "has_audio": {"Points": [{"interpolation": 2, "co": {"Y": -1.0, "X": 1.0}}]}, "alpha": {"Points": [{"interpolation": 2, "co": {"Y": 1.0, "X": 1.0}}, {"handle_left": {"Y": 1.0, "X": 0.5}, "handle_right": {"Y": 0.0, "X": 0.5}, "interpolation": 0, "handle_type": 0, "co": {"Y": 0.0, "X": 1.0}}, {"handle_left": {"Y": 1.0, "X": 0.5}, "handle_right": {"Y": 0.0, "X": 0.5}, "interpolation": 0, "handle_type": 0, "co": {"Y": 1.0, "X": 7.0}}]}, "crop_height": {"Points": [{"interpolation": 2, "co": {"Y": -1.0, "X": 1.0}}]}, "reader": {"width": 944, "has_audio": false, "audio_bit_rate": 0, "vcodec": "", "interlaced_frame": false, "pixel_format": -1, "audio_stream_index": -1, "video_bit_rate": 0, "acodec": "", "channel_layout": 4, "video_stream_index": -1, "fps": {"num": 30, "den": 1}, "audio_timebase": {"num": 1, "den": 1}, "has_video": true, "sample_rate": 0, "type": "QtImageReader", "path": "Documents\\mfom9.png", "video_timebase": {"num": 1, "den": 30}, "height": 608, "display_ratio": {"num": 59, "den": 38}, "duration": 86400.0, "video_length": "2592000", "top_field_first": true, "file_size": "2295808", "channels": 0, "has_single_image": true, "pixel_ratio": {"num": 1, "den": 1}}, "crop_width": {"Points": [{"interpolation": 2, "co": {"Y": -1.0, "X": 1.0}}]}, "location_y": {"Points": [{"interpolation": 2, "co": {"Y": 0.0, "X": 1.0}}]}, "rotation": {"Points": [{"interpolation": 2, "co": {"Y": 0.0, "X": 1.0}}]}, "start": 0.0, "scale_y": {"Points": [{"interpolation": 2, "co": {"Y": 1.0, "X": 1.0}}]}, "end": 0.5, "layer": 7, "image": ".openshot_qt\\thumbnail\\GOIGJD5762.png", "duration": 86400.0, "scale": 1, "shear_y": {"Points": [{"interpolation": 2, "co": {"Y": 0.0, "X": 1.0}}]}, "effects": [], "has_video": {"Points": [{"interpolation": 2, "co": {"Y": -1.0, "X": 1.0}}]}, "gravity": 4, "display": 0, "location_x": {"Points": [{"interpolation": 2, "co": {"Y": 0.0, "X": 1.0}}]}, "volume": {"Points": [{"interpolation": 2, "co": {"Y": 1.0, "X": 1.0}}]}, "wave_color": {"red": {"Points": [{"handle_left": {"Y": 1.0, "X": 0.5}, "handle_right": {"Y": 0.0, "X": 0.5}, "interpolation": 0, "handle_type": 0, "co": {"Y": 0.0, "X": 1.0}}]}, "alpha": {"Points": [{"handle_left": {"Y": 1.0, "X": 0.5}, "handle_right": {"Y": 0.0, "X": 0.5}, "interpolation": 0, "handle_type": 0, "co": {"Y": 255.0, "X": 1.0}}]}, "green": {"Points": [{"handle_left": {"Y": 1.0, "X": 0.5}, "handle_right": {"Y": 0.0, "X": 0.5}, "interpolation": 0, "handle_type": 0, "co": {"Y": 123.0, "X": 1.0}}]}, "blue": {"Points": [{"handle_left": {"Y": 1.0, "X": 0.5}, "handle_right": {"Y": 0.0, "X": 0.5}, "interpolation": 0, "handle_type": 0, "co": {"Y": 255.0, "X": 1.0}}]}}, "perspective_c2_x": {"Points": [{"interpolation": 2, "co": {"Y": -1.0, "X": 1.0}}]}, "crop_y": {"Points": [{"interpolation": 2, "co": {"Y": 0.0, "X": 1.0}}]}, "anchor": 0, "shear_x": {"Points": [{"interpolation": 2, "co": {"Y": 0.0, "X": 1.0}}]}, "time": {"Points": [{"interpolation": 2, "co": {"Y": 1.0, "X": 1.0}}]}, "perspective_c2_y": {"Points": [{"interpolation": 2, "co": {"Y": -1.0, "X": 1.0}}]}, "title": "mfom9.png", "perspective_c4_y": {"Points": [{"interpolation": 2, "co": {"Y": -1.0, "X": 1.0}}]}, "file_id": "GOIGJD5762", "perspective_c3_y": {"Points": [{"interpolation": 2, "co": {"Y": -1.0, "X": 1.0}}]}, "channel_mapping": {"Points": [{"interpolation": 2, "co": {"Y": -1.0, "X": 1.0}}]}, "crop_x": {"Points": [{"interpolation": 2, "co": {"Y": 0.0, "X": 1.0}}]}, "channel_filter": {"Points": [{"interpolation": 2, "co": {"Y": -1.0, "X": 1.0}}]}, "perspective_c1_x": {"Points": [{"interpolation": 2, "co": {"Y": -1.0, "X": 1.0}}]}, "position": 24.619999999999997}, {"perspective_c4_x": {"Points": [{"interpolation": 2, "co": {"Y": -1.0, "X": 1.0}}]}, "perspective_c3_x": {"Points": [{"interpolation": 2, "co": {"Y": -1.0, "X": 1.0}}]}, "id": "TQIMWRDM26", "waveform": false, "perspective_c1_y": {"Points": [{"interpolation": 2, "co": {"Y": -1.0, "X": 1.0}}]}, "scale_x": {"Points": [{"interpolation": 2, "co": {"Y": 1.0, "X": 1.0}}]}, "has_audio": {"Points": [{"interpolation": 2, "co": {"Y": -1.0, "X": 1.0}}]}, "alpha": {"Points": [{"interpolation": 2, "co": {"Y": 1.0, "X": 1.0}}, {"handle_left": {"Y": 1.0, "X": 0.5}, "handle_right": {"Y": 0.0, "X": 0.5}, "interpolation": 0, "handle_type": 0, "co": {"Y": 0.0, "X": 1.0}}, {"handle_left": {"Y": 1.0, "X": 0.5}, "handle_right": {"Y": 0.0, "X": 0.5}, "interpolation": 0, "handle_type": 0, "co": {"Y": 1.0, "X": 7.0}}]}, "crop_height": {"Points": [{"interpolation": 2, "co": {"Y": -1.0, "X": 1.0}}]}, "reader": {"width": 944, "has_audio": false, "audio_bit_rate": 0, "vcodec": "", "interlaced_frame": false, "pixel_format": -1, "audio_stream_index": -1, "video_bit_rate": 0, "acodec": "", "channel_layout": 4, "video_stream_index": -1, "fps": {"num": 30, "den": 1}, "audio_timebase": {"num": 1, "den": 1}, "has_video": true, "sample_rate": 0, "type": "QtImageReader", "path": "Documents\\mfom10.png", "video_timebase": {"num": 1, "den": 30}, "height": 608, "display_ratio": {"num": 59, "den": 38}, "duration": 86400.0, "video_length": "2592000", "top_field_first": true, "file_size": "2295808", "channels": 0, "has_single_image": true, "pixel_ratio": {"num": 1, "den": 1}}, "crop_width": {"Points": [{"interpolation": 2, "co": {"Y": -1.0, "X": 1.0}}]}, "location_y": {"Points": [{"interpolation": 2, "co": {"Y": 0.0, "X": 1.0}}]}, "rotation": {"Points": [{"interpolation": 2, "co": {"Y": 0.0, "X": 1.0}}]}, "start": 0.0, "scale_y": {"Points": [{"interpolation": 2, "co": {"Y": 1.0, "X": 1.0}}]}, "end": 0.5, "layer": 7, "image": ".openshot_qt\\thumbnail\\YGZWI1WXJI.png", "duration": 86400.0, "scale": 1, "shear_y": {"Points": [{"interpolation": 2, "co": {"Y": 0.0, "X": 1.0}}]}, "effects": [], "has_video": {"Points": [{"interpolation": 2, "co": {"Y": -1.0, "X": 1.0}}]}, "gravity": 4, "display": 0, "location_x": {"Points": [{"interpolation": 2, "co": {"Y": 0.0, "X": 1.0}}]}, "volume": {"Points": [{"interpolation": 2, "co": {"Y": 1.0, "X": 1.0}}]}, "wave_color": {"red": {"Points": [{"handle_left": {"Y": 1.0, "X": 0.5}, "handle_right": {"Y": 0.0, "X": 0.5}, "interpolation": 0, "handle_type": 0, "co": {"Y": 0.0, "X": 1.0}}]}, "alpha": {"Points": [{"handle_left": {"Y": 1.0, "X": 0.5}, "handle_right": {"Y": 0.0, "X": 0.5}, "interpolation": 0, "handle_type": 0, "co": {"Y": 255.0, "X": 1.0}}]}, "green": {"Points": [{"handle_left": {"Y": 1.0, "X": 0.5}, "handle_right": {"Y": 0.0, "X": 0.5}, "interpolation": 0, "handle_type": 0, "co": {"Y": 123.0, "X": 1.0}}]}, "blue": {"Points": [{"handle_left": {"Y": 1.0, "X": 0.5}, "handle_right": {"Y": 0.0, "X": 0.5}, "interpolation": 0, "handle_type": 0, "co": {"Y": 255.0, "X": 1.0}}]}}, "perspective_c2_x": {"Points": [{"interpolation": 2, "co": {"Y": -1.0, "X": 1.0}}]}, "crop_y": {"Points": [{"interpolation": 2, "co": {"Y": 0.0, "X": 1.0}}]}, "anchor": 0, "shear_x": {"Points": [{"interpolation": 2, "co": {"Y": 0.0, "X": 1.0}}]}, "time": {"Points": [{"interpolation": 2, "co": {"Y": 1.0, "X": 1.0}}]}, "perspective_c2_y": {"Points": [{"interpolation": 2, "co": {"Y": -1.0, "X": 1.0}}]}, "title": "mfom10.png", "perspective_c4_y": {"Points": [{"interpolation": 2, "co": {"Y": -1.0, "X": 1.0}}]}, "file_id": "YGZWI1WXJI", "perspective_c3_y": {"Points": [{"interpolation": 2, "co": {"Y": -1.0, "X": 1.0}}]}, "channel_mapping": {"Points": [{"interpolation": 2, "co": {"Y": -1.0, "X": 1.0}}]}, "crop_x": {"Points": [{"interpolation": 2, "co": {"Y": 0.0, "X": 1.0}}]}, "channel_filter": {"Points": [{"interpolation": 2, "co": {"Y": -1.0, "X": 1.0}}]}, "perspective_c1_x": {"Points": [{"interpolation": 2, "co": {"Y": -1.0, "X": 1.0}}]}, "position": 24.889999999999997}, {"perspective_c4_x": {"Points": [{"interpolation": 2, "co": {"Y": -1.0, "X": 1.0}}]}, "perspective_c3_x": {"Points": [{"interpolation": 2, "co": {"Y": -1.0, "X": 1.0}}]}, "id": "PUVSG8EH2M", "waveform": false, "perspective_c1_y": {"Points": [{"interpolation": 2, "co": {"Y": -1.0, "X": 1.0}}]}, "scale_x": {"Points": [{"interpolation": 2, "co": {"Y": 1.0, "X": 1.0}}]}, "has_audio": {"Points": [{"interpolation": 2, "co": {"Y": -1.0, "X": 1.0}}]}, "alpha": {"Points": [{"interpolation": 2, "co": {"Y": 1.0, "X": 1.0}}, {"handle_left": {"Y": 1.0, "X": 0.5}, "handle_right": {"Y": 0.0, "X": 0.5}, "interpolation": 0, "handle_type": 0, "co": {"Y": 0.0, "X": 1.0}}, {"handle_left": {"Y": 1.0, "X": 0.5}, "handle_right": {"Y": 0.0, "X": 0.5}, "interpolation": 0, "handle_type": 0, "co": {"Y": 1.0, "X": 7.0}}]}, "crop_height": {"Points": [{"interpolation": 2, "co": {"Y": -1.0, "X": 1.0}}]}, "reader": {"width": 944, "has_audio": false, "audio_bit_rate": 0, "vcodec": "", "interlaced_frame": false, "pixel_format": -1, "audio_stream_index": -1, "video_bit_rate": 0, "acodec": "", "channel_layout": 4, "video_stream_index": -1, "fps": {"num": 30, "den": 1}, "audio_timebase": {"num": 1, "den": 1}, "has_video": true, "sample_rate": 0, "type": "QtImageReader", "path": "Documents\\mfom11.png", "video_timebase": {"num": 1, "den": 30}, "height": 608, "display_ratio": {"num": 59, "den": 38}, "duration": 86400.0, "video_length": "2592000", "top_field_first": true, "file_size": "2295808", "channels": 0, "has_single_image": true, "pixel_ratio": {"num": 1, "den": 1}}, "crop_width": {"Points": [{"interpolation": 2, "co": {"Y": -1.0, "X": 1.0}}]}, "location_y": {"Points": [{"interpolation": 2, "co": {"Y": 0.0, "X": 1.0}}]}, "rotation": {"Points": [{"interpolation": 2, "co": {"Y": 0.0, "X": 1.0}}]}, "start": 0.0, "scale_y": {"Points": [{"interpolation": 2, "co": {"Y": 1.0, "X": 1.0}}]}, "end": 0.5, "layer": 7, "image": ".openshot_qt\\thumbnail\\I3NID6TSGE.png", "duration": 86400.0, "scale": 1, "shear_y": {"Points": [{"interpolation": 2, "co": {"Y": 0.0, "X": 1.0}}]}, "effects": [], "has_video": {"Points": [{"interpolation": 2, "co": {"Y": -1.0, "X": 1.0}}]}, "gravity": 4, "display": 0, "location_x": {"Points": [{"interpolation": 2, "co": {"Y": 0.0, "X": 1.0}}]}, "volume": {"Points": [{"interpolation": 2, "co": {"Y": 1.0, "X": 1.0}}]}, "wave_color": {"red": {"Points": [{"handle_left": {"Y": 1.0, "X": 0.5}, "handle_right": {"Y": 0.0, "X": 0.5}, "interpolation": 0, "handle_type": 0, "co": {"Y": 0.0, "X": 1.0}}]}, "alpha": {"Points": [{"handle_left": {"Y": 1.0, "X": 0.5}, "handle_right": {"Y": 0.0, "X": 0.5}, "interpolation": 0, "handle_type": 0, "co": {"Y": 255.0, "X": 1.0}}]}, "green": {"Points": [{"handle_left": {"Y": 1.0, "X": 0.5}, "handle_right": {"Y": 0.0, "X": 0.5}, "interpolation": 0, "handle_type": 0, "co": {"Y": 123.0, "X": 1.0}}]}, "blue": {"Points": [{"handle_left": {"Y": 1.0, "X": 0.5}, "handle_right": {"Y": 0.0, "X": 0.5}, "interpolation": 0, "handle_type": 0, "co": {"Y": 255.0, "X": 1.0}}]}}, "perspective_c2_x": {"Points": [{"interpolation": 2, "co": {"Y": -1.0, "X": 1.0}}]}, "crop_y": {"Points": [{"interpolation": 2, "co": {"Y": 0.0, "X": 1.0}}]}, "anchor": 0, "shear_x": {"Points": [{"interpolation": 2, "co": {"Y": 0.0, "X": 1.0}}]}, "time": {"Points": [{"interpolation": 2, "co": {"Y": 1.0, "X": 1.0}}]}, "perspective_c2_y": {"Points": [{"interpolation": 2, "co": {"Y": -1.0, "X": 1.0}}]}, "title": "mfom11.png", "perspective_c4_y": {"Points": [{"interpolation": 2, "co": {"Y": -1.0, "X": 1.0}}]}, "file_id": "I3NID6TSGE", "perspective_c3_y": {"Points": [{"interpolation": 2, "co": {"Y": -1.0, "X": 1.0}}]}, "channel_mapping": {"Points": [{"interpolation": 2, "co": {"Y": -1.0, "X": 1.0}}]}, "crop_x": {"Points": [{"interpolation": 2, "co": {"Y": 0.0, "X": 1.0}}]}, "channel_filter": {"Points": [{"interpolation": 2, "co": {"Y": -1.0, "X": 1.0}}]}, "perspective_c1_x": {"Points": [{"interpolation": 2, "co": {"Y": -1.0, "X": 1.0}}]}, "position": 25.159999999999997}, {"perspective_c4_x": {"Points": [{"interpolation": 2, "co": {"Y": -1.0, "X": 1.0}}]}, "perspective_c3_x": {"Points": [{"interpolation": 2, "co": {"Y": -1.0, "X": 1.0}}]}, "id": "EB9EBU2TH7", "waveform": false, "perspective_c1_y": {"Points": [{"interpolation": 2, "co": {"Y": -1.0, "X": 1.0}}]}, "scale_x": {"Points": [{"interpolation": 2, "co": {"Y": 1.0, "X": 1.0}}]}, "has_audio": {"Points": [{"interpolation": 2, "co": {"Y": -1.0, "X": 1.0}}]}, "alpha": {"Points": [{"interpolation": 2, "co": {"Y": 1.0, "X": 1.0}}, {"handle_left": {"Y": 1.0, "X": 0.5}, "handle_right": {"Y": 0.0, "X": 0.5}, "interpolation": 0, "handle_type": 0, "co": {"Y": 0.0, "X": 1.0}}, {"handle_left": {"Y": 1.0, "X": 0.5}, "handle_right": {"Y": 0.0, "X": 0.5}, "interpolation": 0, "handle_type": 0, "co": {"Y": 1.0, "X": 7.0}}]}, "crop_height": {"Points": [{"interpolation": 2, "co": {"Y": -1.0, "X": 1.0}}]}, "reader": {"width": 944, "has_audio": false, "audio_bit_rate": 0, "vcodec": "", "interlaced_frame": false, "pixel_format": -1, "audio_stream_index": -1, "video_bit_rate": 0, "acodec": "", "channel_layout": 4, "video_stream_index": -1, "fps": {"num": 30, "den": 1}, "audio_timebase": {"num": 1, "den": 1}, "has_video": true, "sample_rate": 0, "type": "QtImageReader", "path": "Documents\\mfom12.png", "video_timebase": {"num": 1, "den": 30}, "height": 608, "display_ratio": {"num": 59, "den": 38}, "duration": 86400.0, "video_length": "2592000", "top_field_first": true, "file_size": "2295808", "channels": 0, "has_single_image": true, "pixel_ratio": {"num": 1, "den": 1}}, "crop_width": {"Points": [{"interpolation": 2, "co": {"Y": -1.0, "X": 1.0}}]}, "location_y": {"Points": [{"interpolation": 2, "co": {"Y": 0.0, "X": 1.0}}]}, "rotation": {"Points": [{"interpolation": 2, "co": {"Y": 0.0, "X": 1.0}}]}, "start": 0.0, "scale_y": {"Points": [{"interpolation": 2, "co": {"Y": 1.0, "X": 1.0}}]}, "end": 0.5, "layer": 7, "image": ".openshot_qt\\thumbnail\\B72ZALR6SA.png", "duration": 86400.0, "scale": 1, "shear_y": {"Points": [{"interpolation": 2, "co": {"Y": 0.0, "X": 1.0}}]}, "effects": [], "has_video": {"Points": [{"interpolation": 2, "co": {"Y": -1.0, "X": 1.0}}]}, "gravity": 4, "display": 0, "location_x": {"Points": [{"interpolation": 2, "co": {"Y": 0.0, "X": 1.0}}]}, "volume": {"Points": [{"interpolation": 2, "co": {"Y": 1.0, "X": 1.0}}]}, "wave_color": {"red": {"Points": [{"handle_left": {"Y": 1.0, "X": 0.5}, "handle_right": {"Y": 0.0, "X": 0.5}, "interpolation": 0, "handle_type": 0, "co": {"Y": 0.0, "X": 1.0}}]}, "alpha": {"Points": [{"handle_left": {"Y": 1.0, "X": 0.5}, "handle_right": {"Y": 0.0, "X": 0.5}, "interpolation": 0, "handle_type": 0, "co": {"Y": 255.0, "X": 1.0}}]}, "green": {"Points": [{"handle_left": {"Y": 1.0, "X": 0.5}, "handle_right": {"Y": 0.0, "X": 0.5}, "interpolation": 0, "handle_type": 0, "co": {"Y": 123.0, "X": 1.0}}]}, "blue": {"Points": [{"handle_left": {"Y": 1.0, "X": 0.5}, "handle_right": {"Y": 0.0, "X": 0.5}, "interpolation": 0, "handle_type": 0, "co": {"Y": 255.0, "X": 1.0}}]}}, "perspective_c2_x": {"Points": [{"interpolation": 2, "co": {"Y": -1.0, "X": 1.0}}]}, "crop_y": {"Points": [{"interpolation": 2, "co": {"Y": 0.0, "X": 1.0}}]}, "anchor": 0, "shear_x": {"Points": [{"interpolation": 2, "co": {"Y": 0.0, "X": 1.0}}]}, "time": {"Points": [{"interpolation": 2, "co": {"Y": 1.0, "X": 1.0}}]}, "perspective_c2_y": {"Points": [{"interpolation": 2, "co": {"Y": -1.0, "X": 1.0}}]}, "title": "mfom12.png", "perspective_c4_y": {"Points": [{"interpolation": 2, "co": {"Y": -1.0, "X": 1.0}}]}, "file_id": "B72ZALR6SA", "perspective_c3_y": {"Points": [{"interpolation": 2, "co": {"Y": -1.0, "X": 1.0}}]}, "channel_mapping": {"Points": [{"interpolation": 2, "co": {"Y": -1.0, "X": 1.0}}]}, "crop_x": {"Points": [{"interpolation": 2, "co": {"Y": 0.0, "X": 1.0}}]}, "channel_filter": {"Points": [{"interpolation": 2, "co": {"Y": -1.0, "X": 1.0}}]}, "perspective_c1_x": {"Points": [{"interpolation": 2, "co": {"Y": -1.0, "X": 1.0}}]}, "position": 25.429999999999996}, {"perspective_c4_x": {"Points": [{"interpolation": 2, "co": {"Y": -1.0, "X": 1.0}}]}, "perspective_c3_x": {"Points": [{"interpolation": 2, "co": {"Y": -1.0, "X": 1.0}}]}, "id": "1ZI0TI1XS5", "waveform": false, "perspective_c1_y": {"Points": [{"interpolation": 2, "co": {"Y": -1.0, "X": 1.0}}]}, "scale_x": {"Points": [{"interpolation": 2, "co": {"Y": 1.0, "X": 1.0}}]}, "has_audio": {"Points": [{"interpolation": 2, "co": {"Y": -1.0, "X": 1.0}}]}, "alpha": {"Points": [{"interpolation": 2, "co": {"Y": 1.0, "X": 1.0}}, {"handle_left": {"Y": 1.0, "X": 0.5}, "handle_right": {"Y": 0.0, "X": 0.5}, "interpolation": 0, "handle_type": 0, "co": {"Y": 0.0, "X": 1.0}}, {"handle_left": {"Y": 1.0, "X": 0.5}, "handle_right": {"Y": 0.0, "X": 0.5}, "interpolation": 0, "handle_type": 0, "co": {"Y": 1.0, "X": 7.0}}]}, "crop_height": {"Points": [{"interpolation": 2, "co": {"Y": -1.0, "X": 1.0}}]}, "reader": {"width": 944, "has_audio": false, "audio_bit_rate": 0, "vcodec": "", "interlaced_frame": false, "pixel_format": -1, "audio_stream_index": -1, "video_bit_rate": 0, "acodec": "", "channel_layout": 4, "video_stream_index": -1, "fps": {"num": 30, "den": 1}, "audio_timebase": {"num": 1, "den": 1}, "has_video": true, "sample_rate": 0, "type": "QtImageReader", "path": "Documents\\mfom13.png", "video_timebase": {"num": 1, "den": 30}, "height": 608, "display_ratio": {"num": 59, "den": 38}, "duration": 86400.0, "video_length": "2592000", "top_field_first": true, "file_size": "2295808", "channels": 0, "has_single_image": true, "pixel_ratio": {"num": 1, "den": 1}}, "crop_width": {"Points": [{"interpolation": 2, "co": {"Y": -1.0, "X": 1.0}}]}, "location_y": {"Points": [{"interpolation": 2, "co": {"Y": 0.0, "X": 1.0}}]}, "rotation": {"Points": [{"interpolation": 2, "co": {"Y": 0.0, "X": 1.0}}]}, "start": 0.0, "scale_y": {"Points": [{"interpolation": 2, "co": {"Y": 1.0, "X": 1.0}}]}, "end": 0.5, "layer": 7, "image": ".openshot_qt\\thumbnail\\XE7D0CK9N3.png", "duration": 86400.0, "scale": 1, "shear_y": {"Points": [{"interpolation": 2, "co": {"Y": 0.0, "X": 1.0}}]}, "effects": [], "has_video": {"Points": [{"interpolation": 2, "co": {"Y": -1.0, "X": 1.0}}]}, "gravity": 4, "display": 0, "location_x": {"Points": [{"interpolation": 2, "co": {"Y": 0.0, "X": 1.0}}]}, "volume": {"Points": [{"interpolation": 2, "co": {"Y": 1.0, "X": 1.0}}]}, "wave_color": {"red": {"Points": [{"handle_left": {"Y": 1.0, "X": 0.5}, "handle_right": {"Y": 0.0, "X": 0.5}, "interpolation": 0, "handle_type": 0, "co": {"Y": 0.0, "X": 1.0}}]}, "alpha": {"Points": [{"handle_left": {"Y": 1.0, "X": 0.5}, "handle_right": {"Y": 0.0, "X": 0.5}, "interpolation": 0, "handle_type": 0, "co": {"Y": 255.0, "X": 1.0}}]}, "green": {"Points": [{"handle_left": {"Y": 1.0, "X": 0.5}, "handle_right": {"Y": 0.0, "X": 0.5}, "interpolation": 0, "handle_type": 0, "co": {"Y": 123.0, "X": 1.0}}]}, "blue": {"Points": [{"handle_left": {"Y": 1.0, "X": 0.5}, "handle_right": {"Y": 0.0, "X": 0.5}, "interpolation": 0, "handle_type": 0, "co": {"Y": 255.0, "X": 1.0}}]}}, "perspective_c2_x": {"Points": [{"interpolation": 2, "co": {"Y": -1.0, "X": 1.0}}]}, "crop_y": {"Points": [{"interpolation": 2, "co": {"Y": 0.0, "X": 1.0}}]}, "anchor": 0, "shear_x": {"Points": [{"interpolation": 2, "co": {"Y": 0.0, "X": 1.0}}]}, "time": {"Points": [{"interpolation": 2, "co": {"Y": 1.0, "X": 1.0}}]}, "perspective_c2_y": {"Points": [{"interpolation": 2, "co": {"Y": -1.0, "X": 1.0}}]}, "title": "mfom13.png", "perspective_c4_y": {"Points": [{"interpolation": 2, "co": {"Y": -1.0, "X": 1.0}}]}, "file_id": "XE7D0CK9N3", "perspective_c3_y": {"Points": [{"interpolation": 2, "co": {"Y": -1.0, "X": 1.0}}]}, "channel_mapping": {"Points": [{"interpolation": 2, "co": {"Y": -1.0, "X": 1.0}}]}, "crop_x": {"Points": [{"interpolation": 2, "co": {"Y": 0.0, "X": 1.0}}]}, "channel_filter": {"Points": [{"interpolation": 2, "co": {"Y": -1.0, "X": 1.0}}]}, "perspective_c1_x": {"Points": [{"interpolation": 2, "co": {"Y": -1.0, "X": 1.0}}]}, "position": 25.699999999999996}, {"perspective_c4_x": {"Points": [{"interpolation": 2, "co": {"Y": -1.0, "X": 1.0}}]}, "perspective_c3_x": {"Points": [{"interpolation": 2, "co": {"Y": -1.0, "X": 1.0}}]}, "id": "HZ17FKQ30K", "waveform": false, "perspective_c1_y": {"Points": [{"interpolation": 2, "co": {"Y": -1.0, "X": 1.0}}]}, "scale_x": {"Points": [{"interpolation": 2, "co": {"Y": 1.0, "X": 1.0}}]}, "has_audio": {"Points": [{"interpolation": 2, "co": {"Y": -1.0, "X": 1.0}}]}, "alpha": {"Points": [{"interpolation": 2, "co": {"Y": 1.0, "X": 1.0}}, {"handle_left": {"Y": 1.0, "X": 0.5}, "handle_right": {"Y": 0.0, "X": 0.5}, "interpolation": 0, "handle_type": 0, "co": {"Y": 0.0, "X": 1.0}}, {"handle_left": {"Y": 1.0, "X": 0.5}, "handle_right": {"Y": 0.0, "X": 0.5}, "interpolation": 0, "handle_type": 0, "co": {"Y": 1.0, "X": 7.0}}]}, "crop_height": {"Points": [{"interpolation": 2, "co": {"Y": -1.0, "X": 1.0}}]}, "reader": {"width": 944, "has_audio": false, "audio_bit_rate": 0, "vcodec": "", "interlaced_frame": false, "pixel_format": -1, "audio_stream_index": -1, "video_bit_rate": 0, "acodec": "", "channel_layout": 4, "video_stream_index": -1, "fps": {"num": 30, "den": 1}, "audio_timebase": {"num": 1, "den": 1}, "has_video": true, "sample_rate": 0, "type": "QtImageReader", "path": "Documents\\mfom14.png", "video_timebase": {"num": 1, "den": 30}, "height": 608, "display_ratio": {"num": 59, "den": 38}, "duration": 86400.0, "video_length": "2592000", "top_field_first": true, "file_size": "2295808", "channels": 0, "has_single_image": true, "pixel_ratio": {"num": 1, "den": 1}}, "crop_width": {"Points": [{"interpolation": 2, "co": {"Y": -1.0, "X": 1.0}}]}, "location_y": {"Points": [{"interpolation": 2, "co": {"Y": 0.0, "X": 1.0}}]}, "rotation": {"Points": [{"interpolation": 2, "co": {"Y": 0.0, "X": 1.0}}]}, "start": 0.0, "scale_y": {"Points": [{"interpolation": 2, "co": {"Y": 1.0, "X": 1.0}}]}, "end": 0.5, "layer": 7, "image": ".openshot_qt\\thumbnail\\LBOQII7HDG.png", "duration": 86400.0, "scale": 1, "shear_y": {"Points": [{"interpolation": 2, "co": {"Y": 0.0, "X": 1.0}}]}, "effects": [], "has_video": {"Points": [{"interpolation": 2, "co": {"Y": -1.0, "X": 1.0}}]}, "gravity": 4, "display": 0, "location_x": {"Points": [{"interpolation": 2, "co": {"Y": 0.0, "X": 1.0}}]}, "volume": {"Points": [{"interpolation": 2, "co": {"Y": 1.0, "X": 1.0}}]}, "wave_color": {"red": {"Points": [{"handle_left": {"Y": 1.0, "X": 0.5}, "handle_right": {"Y": 0.0, "X": 0.5}, "interpolation": 0, "handle_type": 0, "co": {"Y": 0.0, "X": 1.0}}]}, "alpha": {"Points": [{"handle_left": {"Y": 1.0, "X": 0.5}, "handle_right": {"Y": 0.0, "X": 0.5}, "interpolation": 0, "handle_type": 0, "co": {"Y": 255.0, "X": 1.0}}]}, "green": {"Points": [{"handle_left": {"Y": 1.0, "X": 0.5}, "handle_right": {"Y": 0.0, "X": 0.5}, "interpolation": 0, "handle_type": 0, "co": {"Y": 123.0, "X": 1.0}}]}, "blue": {"Points": [{"handle_left": {"Y": 1.0, "X": 0.5}, "handle_right": {"Y": 0.0, "X": 0.5}, "interpolation": 0, "handle_type": 0, "co": {"Y": 255.0, "X": 1.0}}]}}, "perspective_c2_x": {"Points": [{"interpolation": 2, "co": {"Y": -1.0, "X": 1.0}}]}, "crop_y": {"Points": [{"interpolation": 2, "co": {"Y": 0.0, "X": 1.0}}]}, "anchor": 0, "shear_x": {"Points": [{"interpolation": 2, "co": {"Y": 0.0, "X": 1.0}}]}, "time": {"Points": [{"interpolation": 2, "co": {"Y": 1.0, "X": 1.0}}]}, "perspective_c2_y": {"Points": [{"interpolation": 2, "co": {"Y": -1.0, "X": 1.0}}]}, "title": "mfom14.png", "perspective_c4_y": {"Points": [{"interpolation": 2, "co": {"Y": -1.0, "X": 1.0}}]}, "file_id": "LBOQII7HDG", "perspective_c3_y": {"Points": [{"interpolation": 2, "co": {"Y": -1.0, "X": 1.0}}]}, "channel_mapping": {"Points": [{"interpolation": 2, "co": {"Y": -1.0, "X": 1.0}}]}, "crop_x": {"Points": [{"interpolation": 2, "co": {"Y": 0.0, "X": 1.0}}]}, "channel_filter": {"Points": [{"interpolation": 2, "co": {"Y": -1.0, "X": 1.0}}]}, "perspective_c1_x": {"Points": [{"interpolation": 2, "co": {"Y": -1.0, "X": 1.0}}]}, "position": 25.969999999999995}, {"alpha": {"Points": [{"co": {"X": 1.0, "Y": 0.0}, "interpolation": 2}]}, "anchor": 0, "channel_filter": {"Points": [{"co": {"X": 1.0, "Y": -1.0}, "interpolation": 2}]}, "channel_mapping": {"Points": [{"co": {"X": 1.0, "Y": -1.0}, "interpolation": 2}]}, "crop_height": {"Points": [{"co": {"X": 1.0, "Y": -1.0}, "interpolation": 2}]}, "crop_width": {"Points": [{"co": {"X": 1.0, "Y": -1.0}, "interpolation": 2}]}, "crop_x": {"Points": [{"co": {"X": 1.0, "Y": 0.0}, "interpolation": 2}]}, "crop_y": {"Points": [{"co": {"X": 1.0, "Y": 0.0}, "interpolation": 2}]}, "display": 0, "duration": 98.08979797363281, "effects": [], "end": 3.2083333333333335, "gravity": 4, "has_audio": {"Points": [{"co": {"X": 1.0, "Y": -1.0}, "interpolation": 2}]}, "has_video": {"Points": [{"co": {"X": 1.0, "Y": -1.0}, "interpolation": 2}]}, "id": "ZX4IF3EL24", "layer": 8, "location_x": {"Points": [{"co": {"X": 1.0, "Y": 0.0}, "interpolation": 2}]}, "location_y": {"Points": [{"co": {"X": 1.0, "Y": 0.0}, "interpolation": 2}]}, "mixing": 0, "perspective_c1_x": {"Points": [{"co": {"X": 1.0, "Y": -1.0}, "interpolation": 2}]}, "perspective_c1_y": {"Points": [{"co": {"X": 1.0, "Y": -1.0}, "interpolation": 2}]}, "perspective_c2_x": {"Points": [{"co": {"X": 1.0, "Y": -1.0}, "interpolation": 2}]}, "perspective_c2_y": {"Points": [{"co": {"X": 1.0, "Y": -1.0}, "interpolation": 2}]}, "perspective_c3_x": {"Points": [{"co": {"X": 1.0, "Y": -1.0}, "interpolation": 2}]}, "perspective_c3_y": {"Points": [{"co": {"X": 1.0, "Y": -1.0}, "interpolation": 2}]}, "perspective_c4_x": {"Points": [{"co": {"X": 1.0, "Y": -1.0}, "interpolation": 2}]}, "perspective_c4_y": {"Points": [{"co": {"X": 1.0, "Y": -1.0}, "interpolation": 2}]}, "position": 0, "reader": {"acodec": "mp3", "audio_bit_rate": 159922, "audio_stream_index": 0, "audio_timebase": {"den": 14112000, "num": 1}, "channel_layout": 3, "channels": 2, "display_ratio": {"den": 1, "num": 1}, "duration": 98.08979797363281, "file_size": "1970666", "fps": {"den": 1, "num": 30}, "has_audio": true, "has_single_image": false, "has_video": true, "height": 400, "interlaced_frame": false, "metadata": {"ID3 v1 Comment": "Attribution-Share Alike 3.0", "TDTG": "2014-06-03T16:37:00", "album": "MDA-904", "artist": "Infocalypse", "comment": "http://www.jamendo.com Attribution-Share Alike 3.0", "copyright": "2012-02-15T11:00:17+01:00 Infocalypse. Licensed to the public under http://creativecommons.org/licenses/by-sa/3.0/ verify at http://www.jamendo.com/album/106504/", "date": "2012", "encoded_by": "Jamendo : http://www.jamendo.com | LAME", "encoder": "LAME3.98r", "genre": "(255)", "publisher": "Jamendo", "title": "Grudge", "track": "03"}, "path": "..\\..\\cygwin64\\home\\john\\misc\\Manna for our Malices\\game\\music\\Infocalypse_-_Grudge.mp3", "pixel_format": 12, "pixel_ratio": {"den": 72, "num": 72}, "sample_rate": 44100, "top_field_first": false, "type": "FFmpegReader", "vcodec": "mjpeg", "video_bit_rate": 20090, "video_length": "2942", "video_stream_index": 1, "video_timebase": {"den": 90000, "num": 1}, "width": 400}, "rotation": {"Points": [{"co": {"X": 1.0, "Y": 0.0}, "interpolation": 2}]}, "scale": 1, "scale_x": {"Points": [{"co": {"X": 1.0, "Y": 1.0}, "interpolation": 2}]}, "scale_y": {"Points": [{"co": {"X": 1.0, "Y": 1.0}, "interpolation": 2}]}, "shear_x": {"Points": [{"co": {"X": 1.0, "Y": 0.0}, "interpolation": 2}]}, "shear_y": {"Points": [{"co": {"X": 1.0, "Y": 0.0}, "interpolation": 2}]}, "start": 0, "time": {"Points": [{"co": {"X": 1.0, "Y": 1.0}, "interpolation": 2}]}, "volume": {"Points": [{"co": {"X": 1.0, "Y": 1.0}, "interpolation": 2}]}, "wave_color": {"alpha": {"Points": [{"co": {"X": 1.0, "Y": 255.0}, "handle_left": {"X": 0.5, "Y": 1.0}, "handle_right": {"X": 0.5, "Y": 0.0}, "handle_type": 0, "interpolation": 0}]}, "blue": {"Points": [{"co": {"X": 1.0, "Y": 255.0}, "handle_left": {"X": 0.5, "Y": 1.0}, "handle_right": {"X": 0.5, "Y": 0.0}, "handle_type": 0, "interpolation": 0}]}, "green": {"Points": [{"co": {"X": 1.0, "Y": 123.0}, "handle_left": {"X": 0.5, "Y": 1.0}, "handle_right": {"X": 0.5, "Y": 0.0}, "handle_type": 0, "interpolation": 0}]}, "red": {"Points": [{"co": {"X": 1.0, "Y": 0.0}, "handle_left": {"X": 0.5, "Y": 1.0}, "handle_right": {"X": 0.5, "Y": 0.0}, "handle_type": 0, "interpolation": 0}]}}, "waveform": false, "file_id": "VLG468LRHI", "title": "Infocalypse_-_Grudge.mp3", "image": ".openshot_qt\\thumbnail\\VLG468LRHI.png"}, {"alpha": {"Points": [{"co": {"X": 1.0, "Y": 0.0}, "interpolation": 2}, {"co": {"X": 54, "Y": 0.0}, "interpolation": 1}, {"co": {"X": 2, "Y": 0.0}, "interpolation": 1}]}, "anchor": 0, "channel_filter": {"Points": [{"co": {"X": 1.0, "Y": -1.0}, "interpolation": 2}]}, "channel_mapping": {"Points": [{"co": {"X": 1.0, "Y": -1.0}, "interpolation": 2}]}, "crop_height": {"Points": [{"co": {"X": 1.0, "Y": -1.0}, "interpolation": 2}]}, "crop_width": {"Points": [{"co": {"X": 1.0, "Y": -1.0}, "interpolation": 2}]}, "crop_x": {"Points": [{"co": {"X": 1.0, "Y": 0.0}, "interpolation": 2}]}, "crop_y": {"Points": [{"co": {"X": 1.0, "Y": 0.0}, "interpolation": 2}]}, "display": 0, "duration": 92.23836517333984, "effects": [], "end": 23.291666666666668, "gravity": 4, "has_audio": {"Points": [{"co": {"X": 1.0, "Y": -1.0}, "interpolation": 2}]}, "has_video": {"Points": [{"co": {"X": 1.0, "Y": -1.0}, "interpolation": 2}]}, "id": "6DSN7NFQPA", "layer": 8, "location_x": {"Points": [{"co": {"X": 1.0, "Y": 0.0}, "interpolation": 2}]}, "location_y": {"Points": [{"co": {"X": 1.0, "Y": 0.0}, "interpolation": 2}]}, "mixing": 0, "perspective_c1_x": {"Points": [{"co": {"X": 1.0, "Y": -1.0}, "interpolation": 2}]}, "perspective_c1_y": {"Points": [{"co": {"X": 1.0, "Y": -1.0}, "interpolation": 2}]}, "perspective_c2_x": {"Points": [{"co": {"X": 1.0, "Y": -1.0}, "interpolation": 2}]}, "perspective_c2_y": {"Points": [{"co": {"X": 1.0, "Y": -1.0}, "interpolation": 2}]}, "perspective_c3_x": {"Points": [{"co": {"X": 1.0, "Y": -1.0}, "interpolation": 2}]}, "perspective_c3_y": {"Points": [{"co": {"X": 1.0, "Y": -1.0}, "interpolation": 2}]}, "perspective_c4_x": {"Points": [{"co": {"X": 1.0, "Y": -1.0}, "interpolation": 2}]}, "perspective_c4_y": {"Points": [{"co": {"X": 1.0, "Y": -1.0}, "interpolation": 2}]}, "position": 3.2083333333333335, "reader": {"acodec": "mp3", "audio_bit_rate": 195915, "audio_stream_index": 0, "audio_timebase": {"den": 14112000, "num": 1}, "channel_layout": 3, "channels": 2, "display_ratio": {"den": 1, "num": 1}, "duration": 92.23836517333984, "file_size": "2286291", "fps": {"den": 1, "num": 30}, "has_audio": true, "has_single_image": false, "has_video": true, "height": 400, "interlaced_frame": false, "metadata": {"ID3 v1 Comment": "Attribution-Share Alike 3.0", "TDTG": "2013-10-04T10:57:24", "album": "Pretty Demon Lines EP", "artist": "Infocalypse", "comment": "http://www.jamendo.com Attribution-Share Alike 3.0", "copyright": "2013-04-14T08:56:55+01:00 Infocalypse. Licensed to the public under http://creativecommons.org/licenses/by-sa/3.0/ verify at http://www.jamendo.com/album/120657/", "date": "2013", "encoded_by": "Jamendo : http://www.jamendo.com | LAME", "encoder": "LAME3.98r", "genre": "(255)", "publisher": "Jamendo", "title": "Grey Metallum (my tits sell anarchy)", "track": "02"}, "path": "..\\..\\cygwin64\\home\\john\\misc\\Manna for our Malices\\game\\music\\Infocalypse_-_Grey_Metallum__my_tits_sell_anarchy_.mp3", "pixel_format": 8, "pixel_ratio": {"den": 72, "num": 72}, "sample_rate": 44100, "top_field_first": false, "type": "FFmpegReader", "vcodec": "mjpeg", "video_bit_rate": 24786, "video_length": "2767", "video_stream_index": 1, "video_timebase": {"den": 90000, "num": 1}, "width": 400}, "rotation": {"Points": [{"co": {"X": 1.0, "Y": 0.0}, "interpolation": 2}]}, "scale": 1, "scale_x": {"Points": [{"co": {"X": 1.0, "Y": 1.0}, "interpolation": 2}]}, "scale_y": {"Points": [{"co": {"X": 1.0, "Y": 1.0}, "interpolation": 2}]}, "shear_x": {"Points": [{"co": {"X": 1.0, "Y": 0.0}, "interpolation": 2}]}, "shear_y": {"Points": [{"co": {"X": 1.0, "Y": 0.0}, "interpolation": 2}]}, "start": 0, "time": {"Points": [{"co": {"X": 1.0, "Y": 1.0}, "interpolation": 2}]}, "volume": {"Points": [{"co": {"X": 1.0, "Y": 1.0}, "interpolation": 2}]}, "wave_color": {"alpha": {"Points": [{"co": {"X": 1.0, "Y": 255.0}, "handle_left": {"X": 0.5, "Y": 1.0}, "handle_right": {"X": 0.5, "Y": 0.0}, "handle_type": 0, "interpolation": 0}]}, "blue": {"Points": [{"co": {"X": 1.0, "Y": 255.0}, "handle_left": {"X": 0.5, "Y": 1.0}, "handle_right": {"X": 0.5, "Y": 0.0}, "handle_type": 0, "interpolation": 0}]}, "green": {"Points": [{"co": {"X": 1.0, "Y": 123.0}, "handle_left": {"X": 0.5, "Y": 1.0}, "handle_right": {"X": 0.5, "Y": 0.0}, "handle_type": 0, "interpolation": 0}]}, "red": {"Points": [{"co": {"X": 1.0, "Y": 0.0}, "handle_left": {"X": 0.5, "Y": 1.0}, "handle_right": {"X": 0.5, "Y": 0.0}, "handle_type": 0, "interpolation": 0}]}}, "waveform": false, "file_id": "IA60T4WE68", "title": "Infocalypse_-_Grey_Metallum__my_tits_sell_anarchy_.mp3", "image": ".openshot_qt\\thumbnail\\IA60T4WE68.png"}], "height": 720, "scale": 3, "effects": [], "history": {"redo": [], "undo": [{"type": "insert", "key": ["effects"], "value": {"id": "HZSMXDNJGC", "layer": 8, "title": "Transition", "type": "Mask", "position": 2.625, "start": 0, "end": 0.5833333333333335, "brightness": {"Points": [{"co": {"X": 1.0, "Y": 1.0}, "handle_left": {"X": 0.5, "Y": 1.0}, "handle_right": {"X": 0.5, "Y": 0.0}, "handle_type": 0, "interpolation": 0}, {"co": {"X": 15.0, "Y": -1.0}, "handle_left": {"X": 0.5, "Y": 1.0}, "handle_right": {"X": 0.5, "Y": 0.0}, "handle_type": 0, "interpolation": 0}]}, "contrast": {"Points": [{"co": {"X": 1.0, "Y": 3.0}, "interpolation": 2}]}, "reader": {"acodec": "", "audio_bit_rate": 0, "audio_stream_index": -1, "audio_timebase": {"den": 1, "num": 1}, "channel_layout": 4, "channels": 0, "display_ratio": {"den": 4, "num": 5}, "duration": 86400.0, "file_size": "1658880", "fps": {"den": 1, "num": 30}, "has_audio": false, "has_single_image": true, "has_video": true, "height": 576, "interlaced_frame": false, "metadata": {}, "path": "C:\\Program Files\\OpenShot Video Editor\\transitions\\common\\fade.svg", "pixel_format": -1, "pixel_ratio": {"den": 1, "num": 1}, "sample_rate": 0, "top_field_first": true, "type": "QtImageReader", "vcodec": "", "video_bit_rate": 0, "video_length": "2592000", "video_stream_index": -1, "video_timebase": {"den": 30, "num": 1}, "width": 720}, "replace_image": false}, "partial": false, "old_values": []}, {"type": "update", "key": ["clips", {"id": "6DSN7NFQPA"}], "value": {"id": "6DSN7NFQPA", "layer": 8, "position": 2.875, "image": "C:\\Users\\john\\.openshot_qt\\thumbnail\\IA60T4WE68.png", "start": 0, "end": 92.23836517333984}, "partial": false, "old_values": {"alpha": {"Points": [{"co": {"X": 1.0, "Y": 1.0}, "interpolation": 2}]}, "anchor": 0, "channel_filter": {"Points": [{"co": {"X": 1.0, "Y": -1.0}, "interpolation": 2}]}, "channel_mapping": {"Points": [{"co": {"X": 1.0, "Y": -1.0}, "interpolation": 2}]}, "crop_height": {"Points": [{"co": {"X": 1.0, "Y": -1.0}, "interpolation": 2}]}, "crop_width": {"Points": [{"co": {"X": 1.0, "Y": -1.0}, "interpolation": 2}]}, "crop_x": {"Points": [{"co": {"X": 1.0, "Y": 0.0}, "interpolation": 2}]}, "crop_y": {"Points": [{"co": {"X": 1.0, "Y": 0.0}, "interpolation": 2}]}, "display": 0, "duration": 92.23836517333984, "effects": [], "end": 92.23836517333984, "gravity": 4, "has_audio": {"Points": [{"co": {"X": 1.0, "Y": -1.0}, "interpolation": 2}]}, "has_video": {"Points": [{"co": {"X": 1.0, "Y": -1.0}, "interpolation": 2}]}, "id": "6DSN7NFQPA", "layer": 8, "location_x": {"Points": [{"co": {"X": 1.0, "Y": 0.0}, "interpolation": 2}]}, "location_y": {"Points": [{"co": {"X": 1.0, "Y": 0.0}, "interpolation": 2}]}, "mixing": 0, "perspective_c1_x": {"Points": [{"co": {"X": 1.0, "Y": -1.0}, "interpolation": 2}]}, "perspective_c1_y": {"Points": [{"co": {"X": 1.0, "Y": -1.0}, "interpolation": 2}]}, "perspective_c2_x": {"Points": [{"co": {"X": 1.0, "Y": -1.0}, "interpolation": 2}]}, "perspective_c2_y": {"Points": [{"co": {"X": 1.0, "Y": -1.0}, "interpolation": 2}]}, "perspective_c3_x": {"Points": [{"co": {"X": 1.0, "Y": -1.0}, "interpolation": 2}]}, "perspective_c3_y": {"Points": [{"co": {"X": 1.0, "Y": -1.0}, "interpolation": 2}]}, "perspective_c4_x": {"Points": [{"co": {"X": 1.0, "Y": -1.0}, "interpolation": 2}]}, "perspective_c4_y": {"Points": [{"co": {"X": 1.0, "Y": -1.0}, "interpolation": 2}]}, "position": 2.625, "reader": {"acodec": "mp3", "audio_bit_rate": 195915, "audio_stream_index": 0, "audio_timebase": {"den": 14112000, "num": 1}, "channel_layout": 3, "channels": 2, "display_ratio": {"den": 1, "num": 1}, "duration": 92.23836517333984, "file_size": "2286291", "fps": {"den": 1, "num": 30}, "has_audio": true, "has_single_image": false, "has_video": true, "height": 400, "interlaced_frame": false, "metadata": {"ID3 v1 Comment": "Attribution-Share Alike 3.0", "TDTG": "2013-10-04T10:57:24", "album": "Pretty Demon Lines EP", "artist": "Infocalypse", "comment": "http://www.jamendo.com Attribution-Share Alike 3.0", "copyright": "2013-04-14T08:56:55+01:00 Infocalypse. Licensed to the public under http://creativecommons.org/licenses/by-sa/3.0/ verify at http://www.jamendo.com/album/120657/", "date": "2013", "encoded_by": "Jamendo : http://www.jamendo.com | LAME", "encoder": "LAME3.98r", "genre": "(255)", "publisher": "Jamendo", "title": "Grey Metallum (my tits sell anarchy)", "track": "02"}, "path": "C:\\cygwin64\\home\\john\\misc\\Manna for our Malices\\game\\music\\Infocalypse_-_Grey_Metallum__my_tits_sell_anarchy_.mp3", "pixel_format": 8, "pixel_ratio": {"den": 72, "num": 72}, "sample_rate": 44100, "top_field_first": false, "type": "FFmpegReader", "vcodec": "mjpeg", "video_bit_rate": 24786, "video_length": "2767", "video_stream_index": 1, "video_timebase": {"den": 90000, "num": 1}, "width": 400}, "rotation": {"Points": [{"co": {"X": 1.0, "Y": 0.0}, "interpolation": 2}]}, "scale": 1, "scale_x": {"Points": [{"co": {"X": 1.0, "Y": 1.0}, "interpolation": 2}]}, "scale_y": {"Points": [{"co": {"X": 1.0, "Y": 1.0}, "interpolation": 2}]}, "shear_x": {"Points": [{"co": {"X": 1.0, "Y": 0.0}, "interpolation": 2}]}, "shear_y": {"Points": [{"co": {"X": 1.0, "Y": 0.0}, "interpolation": 2}]}, "start": 0, "time": {"Points": [{"co": {"X": 1.0, "Y": 1.0}, "interpolation": 2}]}, "volume": {"Points": [{"co": {"X": 1.0, "Y": 1.0}, "interpolation": 2}]}, "wave_color": {"alpha": {"Points": [{"co": {"X": 1.0, "Y": 255.0}, "handle_left": {"X": 0.5, "Y": 1.0}, "handle_right": {"X": 0.5, "Y": 0.0}, "handle_type": 0, "interpolation": 0}]}, "blue": {"Points": [{"co": {"X": 1.0, "Y": 255.0}, "handle_left": {"X": 0.5, "Y": 1.0}, "handle_right": {"X": 0.5, "Y": 0.0}, "handle_type": 0, "interpolation": 0}]}, "green": {"Points": [{"co": {"X": 1.0, "Y": 123.0}, "handle_left": {"X": 0.5, "Y": 1.0}, "handle_right": {"X": 0.5, "Y": 0.0}, "handle_type": 0, "interpolation": 0}]}, "red": {"Points": [{"co": {"X": 1.0, "Y": 0.0}, "handle_left": {"X": 0.5, "Y": 1.0}, "handle_right": {"X": 0.5, "Y": 0.0}, "handle_type": 0, "interpolation": 0}]}}, "waveform": false, "file_id": "IA60T4WE68", "title": "Infocalypse_-_Grey_Metallum__my_tits_sell_anarchy_.mp3", "image": "C:\\Users\\john\\.openshot_qt\\thumbnail\\IA60T4WE68.png"}}, {"type": "update", "key": ["clips", {"id": "6DSN7NFQPA"}], "value": {"id": "6DSN7NFQPA", "layer": 8, "position": 3.375, "image": "C:\\Users\\john\\.openshot_qt\\thumbnail\\IA60T4WE68.png", "start": 0, "end": 92.23836517333984}, "partial": false, "old_values": {"alpha": {"Points": [{"co": {"X": 1.0, "Y": 1.0}, "interpolation": 2}]}, "anchor": 0, "channel_filter": {"Points": [{"co": {"X": 1.0, "Y": -1.0}, "interpolation": 2}]}, "channel_mapping": {"Points": [{"co": {"X": 1.0, "Y": -1.0}, "interpolation": 2}]}, "crop_height": {"Points": [{"co": {"X": 1.0, "Y": -1.0}, "interpolation": 2}]}, "crop_width": {"Points": [{"co": {"X": 1.0, "Y": -1.0}, "interpolation": 2}]}, "crop_x": {"Points": [{"co": {"X": 1.0, "Y": 0.0}, "interpolation": 2}]}, "crop_y": {"Points": [{"co": {"X": 1.0, "Y": 0.0}, "interpolation": 2}]}, "display": 0, "duration": 92.23836517333984, "effects": [], "end": 92.23836517333984, "gravity": 4, "has_audio": {"Points": [{"co": {"X": 1.0, "Y": -1.0}, "interpolation": 2}]}, "has_video": {"Points": [{"co": {"X": 1.0, "Y": -1.0}, "interpolation": 2}]}, "id": "6DSN7NFQPA", "layer": 8, "location_x": {"Points": [{"co": {"X": 1.0, "Y": 0.0}, "interpolation": 2}]}, "location_y": {"Points": [{"co": {"X": 1.0, "Y": 0.0}, "interpolation": 2}]}, "mixing": 0, "perspective_c1_x": {"Points": [{"co": {"X": 1.0, "Y": -1.0}, "interpolation": 2}]}, "perspective_c1_y": {"Points": [{"co": {"X": 1.0, "Y": -1.0}, "interpolation": 2}]}, "perspective_c2_x": {"Points": [{"co": {"X": 1.0, "Y": -1.0}, "interpolation": 2}]}, "perspective_c2_y": {"Points": [{"co": {"X": 1.0, "Y": -1.0}, "interpolation": 2}]}, "perspective_c3_x": {"Points": [{"co": {"X": 1.0, "Y": -1.0}, "interpolation": 2}]}, "perspective_c3_y": {"Points": [{"co": {"X": 1.0, "Y": -1.0}, "interpolation": 2}]}, "perspective_c4_x": {"Points": [{"co": {"X": 1.0, "Y": -1.0}, "interpolation": 2}]}, "perspective_c4_y": {"Points": [{"co": {"X": 1.0, "Y": -1.0}, "interpolation": 2}]}, "position": 2.875, "reader": {"acodec": "mp3", "audio_bit_rate": 195915, "audio_stream_index": 0, "audio_timebase": {"den": 14112000, "num": 1}, "channel_layout": 3, "channels": 2, "display_ratio": {"den": 1, "num": 1}, "duration": 92.23836517333984, "file_size": "2286291", "fps": {"den": 1, "num": 30}, "has_audio": true, "has_single_image": false, "has_video": true, "height": 400, "interlaced_frame": false, "metadata": {"ID3 v1 Comment": "Attribution-Share Alike 3.0", "TDTG": "2013-10-04T10:57:24", "album": "Pretty Demon Lines EP", "artist": "Infocalypse", "comment": "http://www.jamendo.com Attribution-Share Alike 3.0", "copyright": "2013-04-14T08:56:55+01:00 Infocalypse. Licensed to the public under http://creativecommons.org/licenses/by-sa/3.0/ verify at http://www.jamendo.com/album/120657/", "date": "2013", "encoded_by": "Jamendo : http://www.jamendo.com | LAME", "encoder": "LAME3.98r", "genre": "(255)", "publisher": "Jamendo", "title": "Grey Metallum (my tits sell anarchy)", "track": "02"}, "path": "C:\\cygwin64\\home\\john\\misc\\Manna for our Malices\\game\\music\\Infocalypse_-_Grey_Metallum__my_tits_sell_anarchy_.mp3", "pixel_format": 8, "pixel_ratio": {"den": 72, "num": 72}, "sample_rate": 44100, "top_field_first": false, "type": "FFmpegReader", "vcodec": "mjpeg", "video_bit_rate": 24786, "video_length": "2767", "video_stream_index": 1, "video_timebase": {"den": 90000, "num": 1}, "width": 400}, "rotation": {"Points": [{"co": {"X": 1.0, "Y": 0.0}, "interpolation": 2}]}, "scale": 1, "scale_x": {"Points": [{"co": {"X": 1.0, "Y": 1.0}, "interpolation": 2}]}, "scale_y": {"Points": [{"co": {"X": 1.0, "Y": 1.0}, "interpolation": 2}]}, "shear_x": {"Points": [{"co": {"X": 1.0, "Y": 0.0}, "interpolation": 2}]}, "shear_y": {"Points": [{"co": {"X": 1.0, "Y": 0.0}, "interpolation": 2}]}, "start": 0, "time": {"Points": [{"co": {"X": 1.0, "Y": 1.0}, "interpolation": 2}]}, "volume": {"Points": [{"co": {"X": 1.0, "Y": 1.0}, "interpolation": 2}]}, "wave_color": {"alpha": {"Points": [{"co": {"X": 1.0, "Y": 255.0}, "handle_left": {"X": 0.5, "Y": 1.0}, "handle_right": {"X": 0.5, "Y": 0.0}, "handle_type": 0, "interpolation": 0}]}, "blue": {"Points": [{"co": {"X": 1.0, "Y": 255.0}, "handle_left": {"X": 0.5, "Y": 1.0}, "handle_right": {"X": 0.5, "Y": 0.0}, "handle_type": 0, "interpolation": 0}]}, "green": {"Points": [{"co": {"X": 1.0, "Y": 123.0}, "handle_left": {"X": 0.5, "Y": 1.0}, "handle_right": {"X": 0.5, "Y": 0.0}, "handle_type": 0, "interpolation": 0}]}, "red": {"Points": [{"co": {"X": 1.0, "Y": 0.0}, "handle_left": {"X": 0.5, "Y": 1.0}, "handle_right": {"X": 0.5, "Y": 0.0}, "handle_type": 0, "interpolation": 0}]}}, "waveform": false, "file_id": "IA60T4WE68", "title": "Infocalypse_-_Grey_Metallum__my_tits_sell_anarchy_.mp3", "image": "C:\\Users\\john\\.openshot_qt\\thumbnail\\IA60T4WE68.png"}}, {"type": "delete", "key": ["effects", {"id": "HZSMXDNJGC"}], "value": null, "partial": false, "old_values": null}, {"type": "delete", "key": ["effects", {"id": "HZSMXDNJGC"}], "value": null, "partial": false, "old_values": null}, {"type": "delete", "key": ["effects", {"id": "HZSMXDNJGC"}], "value": null, "partial": false, "old_values": null}, {"type": "delete", "key": ["effects", {"id": "HZSMXDNJGC"}], "value": null, "partial": false, "old_values": null}, {"type": "update", "key": ["clips", {"id": "6DSN7NFQPA"}], "value": {"alpha": {"Points": [{"co": {"X": 1.0, "Y": 1.0}, "interpolation": 2}, {"co": {"X": 54, "Y": 0.0}, "interpolation": 1}]}}, "partial": false, "old_values": {"alpha": {"Points": [{"co": {"X": 1.0, "Y": 1.0}, "interpolation": 2}]}, "anchor": 0, "channel_filter": {"Points": [{"co": {"X": 1.0, "Y": -1.0}, "interpolation": 2}]}, "channel_mapping": {"Points": [{"co": {"X": 1.0, "Y": -1.0}, "interpolation": 2}]}, "crop_height": {"Points": [{"co": {"X": 1.0, "Y": -1.0}, "interpolation": 2}]}, "crop_width": {"Points": [{"co": {"X": 1.0, "Y": -1.0}, "interpolation": 2}]}, "crop_x": {"Points": [{"co": {"X": 1.0, "Y": 0.0}, "interpolation": 2}]}, "crop_y": {"Points": [{"co": {"X": 1.0, "Y": 0.0}, "interpolation": 2}]}, "display": 0, "duration": 92.23836517333984, "effects": [], "end": 92.23836517333984, "gravity": 4, "has_audio": {"Points": [{"co": {"X": 1.0, "Y": -1.0}, "interpolation": 2}]}, "has_video": {"Points": [{"co": {"X": 1.0, "Y": -1.0}, "interpolation": 2}]}, "id": "6DSN7NFQPA", "layer": 8, "location_x": {"Points": [{"co": {"X": 1.0, "Y": 0.0}, "interpolation": 2}]}, "location_y": {"Points": [{"co": {"X": 1.0, "Y": 0.0}, "interpolation": 2}]}, "mixing": 0, "perspective_c1_x": {"Points": [{"co": {"X": 1.0, "Y": -1.0}, "interpolation": 2}]}, "perspective_c1_y": {"Points": [{"co": {"X": 1.0, "Y": -1.0}, "interpolation": 2}]}, "perspective_c2_x": {"Points": [{"co": {"X": 1.0, "Y": -1.0}, "interpolation": 2}]}, "perspective_c2_y": {"Points": [{"co": {"X": 1.0, "Y": -1.0}, "interpolation": 2}]}, "perspective_c3_x": {"Points": [{"co": {"X": 1.0, "Y": -1.0}, "interpolation": 2}]}, "perspective_c3_y": {"Points": [{"co": {"X": 1.0, "Y": -1.0}, "interpolation": 2}]}, "perspective_c4_x": {"Points": [{"co": {"X": 1.0, "Y": -1.0}, "interpolation": 2}]}, "perspective_c4_y": {"Points": [{"co": {"X": 1.0, "Y": -1.0}, "interpolation": 2}]}, "position": 3.375, "reader": {"acodec": "mp3", "audio_bit_rate": 195915, "audio_stream_index": 0, "audio_timebase": {"den": 14112000, "num": 1}, "channel_layout": 3, "channels": 2, "display_ratio": {"den": 1, "num": 1}, "duration": 92.23836517333984, "file_size": "2286291", "fps": {"den": 1, "num": 30}, "has_audio": true, "has_single_image": false, "has_video": true, "height": 400, "interlaced_frame": false, "metadata": {"ID3 v1 Comment": "Attribution-Share Alike 3.0", "TDTG": "2013-10-04T10:57:24", "album": "Pretty Demon Lines EP", "artist": "Infocalypse", "comment": "http://www.jamendo.com Attribution-Share Alike 3.0", "copyright": "2013-04-14T08:56:55+01:00 Infocalypse. Licensed to the public under http://creativecommons.org/licenses/by-sa/3.0/ verify at http://www.jamendo.com/album/120657/", "date": "2013", "encoded_by": "Jamendo : http://www.jamendo.com | LAME", "encoder": "LAME3.98r", "genre": "(255)", "publisher": "Jamendo", "title": "Grey Metallum (my tits sell anarchy)", "track": "02"}, "path": "C:\\cygwin64\\home\\john\\misc\\Manna for our Malices\\game\\music\\Infocalypse_-_Grey_Metallum__my_tits_sell_anarchy_.mp3", "pixel_format": 8, "pixel_ratio": {"den": 72, "num": 72}, "sample_rate": 44100, "top_field_first": false, "type": "FFmpegReader", "vcodec": "mjpeg", "video_bit_rate": 24786, "video_length": "2767", "video_stream_index": 1, "video_timebase": {"den": 90000, "num": 1}, "width": 400}, "rotation": {"Points": [{"co": {"X": 1.0, "Y": 0.0}, "interpolation": 2}]}, "scale": 1, "scale_x": {"Points": [{"co": {"X": 1.0, "Y": 1.0}, "interpolation": 2}]}, "scale_y": {"Points": [{"co": {"X": 1.0, "Y": 1.0}, "interpolation": 2}]}, "shear_x": {"Points": [{"co": {"X": 1.0, "Y": 0.0}, "interpolation": 2}]}, "shear_y": {"Points": [{"co": {"X": 1.0, "Y": 0.0}, "interpolation": 2}]}, "start": 0, "time": {"Points": [{"co": {"X": 1.0, "Y": 1.0}, "interpolation": 2}]}, "volume": {"Points": [{"co": {"X": 1.0, "Y": 1.0}, "interpolation": 2}]}, "wave_color": {"alpha": {"Points": [{"co": {"X": 1.0, "Y": 255.0}, "handle_left": {"X": 0.5, "Y": 1.0}, "handle_right": {"X": 0.5, "Y": 0.0}, "handle_type": 0, "interpolation": 0}]}, "blue": {"Points": [{"co": {"X": 1.0, "Y": 255.0}, "handle_left": {"X": 0.5, "Y": 1.0}, "handle_right": {"X": 0.5, "Y": 0.0}, "handle_type": 0, "interpolation": 0}]}, "green": {"Points": [{"co": {"X": 1.0, "Y": 123.0}, "handle_left": {"X": 0.5, "Y": 1.0}, "handle_right": {"X": 0.5, "Y": 0.0}, "handle_type": 0, "interpolation": 0}]}, "red": {"Points": [{"co": {"X": 1.0, "Y": 0.0}, "handle_left": {"X": 0.5, "Y": 1.0}, "handle_right": {"X": 0.5, "Y": 0.0}, "handle_type": 0, "interpolation": 0}]}}, "waveform": false, "file_id": "IA60T4WE68", "title": "Infocalypse_-_Grey_Metallum__my_tits_sell_anarchy_.mp3", "image": "C:\\Users\\john\\.openshot_qt\\thumbnail\\IA60T4WE68.png"}}, {"type": "update", "key": ["clips", {"id": "6DSN7NFQPA"}], "value": {"alpha": {"Points": [{"co": {"X": 1.0, "Y": 1.0}, "interpolation": 2}, {"co": {"X": 54, "Y": 0.0}, "interpolation": 1}]}, "anchor": 0, "channel_filter": {"Points": [{"co": {"X": 1.0, "Y": -1.0}, "interpolation": 2}]}, "channel_mapping": {"Points": [{"co": {"X": 1.0, "Y": -1.0}, "interpolation": 2}]}, "crop_height": {"Points": [{"co": {"X": 1.0, "Y": -1.0}, "interpolation": 2}]}, "crop_width": {"Points": [{"co": {"X": 1.0, "Y": -1.0}, "interpolation": 2}]}, "crop_x": {"Points": [{"co": {"X": 1.0, "Y": 0.0}, "interpolation": 2}]}, "crop_y": {"Points": [{"co": {"X": 1.0, "Y": 0.0}, "interpolation": 2}]}, "display": 0, "duration": 92.23836517333984, "effects": [], "end": 23.625, "gravity": 4, "has_audio": {"Points": [{"co": {"X": 1.0, "Y": -1.0}, "interpolation": 2}]}, "has_video": {"Points": [{"co": {"X": 1.0, "Y": -1.0}, "interpolation": 2}]}, "id": "6DSN7NFQPA", "layer": 8, "location_x": {"Points": [{"co": {"X": 1.0, "Y": 0.0}, "interpolation": 2}]}, "location_y": {"Points": [{"co": {"X": 1.0, "Y": 0.0}, "interpolation": 2}]}, "mixing": 0, "perspective_c1_x": {"Points": [{"co": {"X": 1.0, "Y": -1.0}, "interpolation": 2}]}, "perspective_c1_y": {"Points": [{"co": {"X": 1.0, "Y": -1.0}, "interpolation": 2}]}, "perspective_c2_x": {"Points": [{"co": {"X": 1.0, "Y": -1.0}, "interpolation": 2}]}, "perspective_c2_y": {"Points": [{"co": {"X": 1.0, "Y": -1.0}, "interpolation": 2}]}, "perspective_c3_x": {"Points": [{"co": {"X": 1.0, "Y": -1.0}, "interpolation": 2}]}, "perspective_c3_y": {"Points": [{"co": {"X": 1.0, "Y": -1.0}, "interpolation": 2}]}, "perspective_c4_x": {"Points": [{"co": {"X": 1.0, "Y": -1.0}, "interpolation": 2}]}, "perspective_c4_y": {"Points": [{"co": {"X": 1.0, "Y": -1.0}, "interpolation": 2}]}, "position": 3.375, "rotation": {"Points": [{"co": {"X": 1.0, "Y": 0.0}, "interpolation": 2}]}, "scale": 1, "scale_x": {"Points": [{"co": {"X": 1.0, "Y": 1.0}, "interpolation": 2}]}, "scale_y": {"Points": [{"co": {"X": 1.0, "Y": 1.0}, "interpolation": 2}]}, "shear_x": {"Points": [{"co": {"X": 1.0, "Y": 0.0}, "interpolation": 2}]}, "shear_y": {"Points": [{"co": {"X": 1.0, "Y": 0.0}, "interpolation": 2}]}, "start": 0, "time": {"Points": [{"co": {"X": 1.0, "Y": 1.0}, "interpolation": 2}]}, "volume": {"Points": [{"co": {"X": 1.0, "Y": 1.0}, "interpolation": 2}]}, "wave_color": {"alpha": {"Points": [{"co": {"X": 1.0, "Y": 255.0}, "handle_left": {"X": 0.5, "Y": 1.0}, "handle_right": {"X": 0.5, "Y": 0.0}, "handle_type": 0, "interpolation": 0}]}, "blue": {"Points": [{"co": {"X": 1.0, "Y": 255.0}, "handle_left": {"X": 0.5, "Y": 1.0}, "handle_right": {"X": 0.5, "Y": 0.0}, "handle_type": 0, "interpolation": 0}]}, "green": {"Points": [{"co": {"X": 1.0, "Y": 123.0}, "handle_left": {"X": 0.5, "Y": 1.0}, "handle_right": {"X": 0.5, "Y": 0.0}, "handle_type": 0, "interpolation": 0}]}, "red": {"Points": [{"co": {"X": 1.0, "Y": 0.0}, "handle_left": {"X": 0.5, "Y": 1.0}, "handle_right": {"X": 0.5, "Y": 0.0}, "handle_type": 0, "interpolation": 0}]}}, "waveform": false, "file_id": "IA60T4WE68", "title": "Infocalypse_-_Grey_Metallum__my_tits_sell_anarchy_.mp3", "image": "C:\\Users\\john\\.openshot_qt\\thumbnail\\IA60T4WE68.png"}, "partial": false, "old_values": {"alpha": {"Points": [{"co": {"X": 1.0, "Y": 1.0}, "interpolation": 2}, {"co": {"X": 54, "Y": 0.0}, "interpolation": 1}]}, "anchor": 0, "channel_filter": {"Points": [{"co": {"X": 1.0, "Y": -1.0}, "interpolation": 2}]}, "channel_mapping": {"Points": [{"co": {"X": 1.0, "Y": -1.0}, "interpolation": 2}]}, "crop_height": {"Points": [{"co": {"X": 1.0, "Y": -1.0}, "interpolation": 2}]}, "crop_width": {"Points": [{"co": {"X": 1.0, "Y": -1.0}, "interpolation": 2}]}, "crop_x": {"Points": [{"co": {"X": 1.0, "Y": 0.0}, "interpolation": 2}]}, "crop_y": {"Points": [{"co": {"X": 1.0, "Y": 0.0}, "interpolation": 2}]}, "display": 0, "duration": 92.23836517333984, "effects": [], "end": 92.23836517333984, "gravity": 4, "has_audio": {"Points": [{"co": {"X": 1.0, "Y": -1.0}, "interpolation": 2}]}, "has_video": {"Points": [{"co": {"X": 1.0, "Y": -1.0}, "interpolation": 2}]}, "id": "6DSN7NFQPA", "layer": 8, "location_x": {"Points": [{"co": {"X": 1.0, "Y": 0.0}, "interpolation": 2}]}, "location_y": {"Points": [{"co": {"X": 1.0, "Y": 0.0}, "interpolation": 2}]}, "mixing": 0, "perspective_c1_x": {"Points": [{"co": {"X": 1.0, "Y": -1.0}, "interpolation": 2}]}, "perspective_c1_y": {"Points": [{"co": {"X": 1.0, "Y": -1.0}, "interpolation": 2}]}, "perspective_c2_x": {"Points": [{"co": {"X": 1.0, "Y": -1.0}, "interpolation": 2}]}, "perspective_c2_y": {"Points": [{"co": {"X": 1.0, "Y": -1.0}, "interpolation": 2}]}, "perspective_c3_x": {"Points": [{"co": {"X": 1.0, "Y": -1.0}, "interpolation": 2}]}, "perspective_c3_y": {"Points": [{"co": {"X": 1.0, "Y": -1.0}, "interpolation": 2}]}, "perspective_c4_x": {"Points": [{"co": {"X": 1.0, "Y": -1.0}, "interpolation": 2}]}, "perspective_c4_y": {"Points": [{"co": {"X": 1.0, "Y": -1.0}, "interpolation": 2}]}, "position": 3.375, "reader": {"acodec": "mp3", "audio_bit_rate": 195915, "audio_stream_index": 0, "audio_timebase": {"den": 14112000, "num": 1}, "channel_layout": 3, "channels": 2, "display_ratio": {"den": 1, "num": 1}, "duration": 92.23836517333984, "file_size": "2286291", "fps": {"den": 1, "num": 30}, "has_audio": true, "has_single_image": false, "has_video": true, "height": 400, "interlaced_frame": false, "metadata": {"ID3 v1 Comment": "Attribution-Share Alike 3.0", "TDTG": "2013-10-04T10:57:24", "album": "Pretty Demon Lines EP", "artist": "Infocalypse", "comment": "http://www.jamendo.com Attribution-Share Alike 3.0", "copyright": "2013-04-14T08:56:55+01:00 Infocalypse. Licensed to the public under http://creativecommons.org/licenses/by-sa/3.0/ verify at http://www.jamendo.com/album/120657/", "date": "2013", "encoded_by": "Jamendo : http://www.jamendo.com | LAME", "encoder": "LAME3.98r", "genre": "(255)", "publisher": "Jamendo", "title": "Grey Metallum (my tits sell anarchy)", "track": "02"}, "path": "C:\\cygwin64\\home\\john\\misc\\Manna for our Malices\\game\\music\\Infocalypse_-_Grey_Metallum__my_tits_sell_anarchy_.mp3", "pixel_format": 8, "pixel_ratio": {"den": 72, "num": 72}, "sample_rate": 44100, "top_field_first": false, "type": "FFmpegReader", "vcodec": "mjpeg", "video_bit_rate": 24786, "video_length": "2767", "video_stream_index": 1, "video_timebase": {"den": 90000, "num": 1}, "width": 400}, "rotation": {"Points": [{"co": {"X": 1.0, "Y": 0.0}, "interpolation": 2}]}, "scale": 1, "scale_x": {"Points": [{"co": {"X": 1.0, "Y": 1.0}, "interpolation": 2}]}, "scale_y": {"Points": [{"co": {"X": 1.0, "Y": 1.0}, "interpolation": 2}]}, "shear_x": {"Points": [{"co": {"X": 1.0, "Y": 0.0}, "interpolation": 2}]}, "shear_y": {"Points": [{"co": {"X": 1.0, "Y": 0.0}, "interpolation": 2}]}, "start": 0, "time": {"Points": [{"co": {"X": 1.0, "Y": 1.0}, "interpolation": 2}]}, "volume": {"Points": [{"co": {"X": 1.0, "Y": 1.0}, "interpolation": 2}]}, "wave_color": {"alpha": {"Points": [{"co": {"X": 1.0, "Y": 255.0}, "handle_left": {"X": 0.5, "Y": 1.0}, "handle_right": {"X": 0.5, "Y": 0.0}, "handle_type": 0, "interpolation": 0}]}, "blue": {"Points": [{"co": {"X": 1.0, "Y": 255.0}, "handle_left": {"X": 0.5, "Y": 1.0}, "handle_right": {"X": 0.5, "Y": 0.0}, "handle_type": 0, "interpolation": 0}]}, "green": {"Points": [{"co": {"X": 1.0, "Y": 123.0}, "handle_left": {"X": 0.5, "Y": 1.0}, "handle_right": {"X": 0.5, "Y": 0.0}, "handle_type": 0, "interpolation": 0}]}, "red": {"Points": [{"co": {"X": 1.0, "Y": 0.0}, "handle_left": {"X": 0.5, "Y": 1.0}, "handle_right": {"X": 0.5, "Y": 0.0}, "handle_type": 0, "interpolation": 0}]}}, "waveform": false, "file_id": "IA60T4WE68", "title": "Infocalypse_-_Grey_Metallum__my_tits_sell_anarchy_.mp3", "image": "C:\\Users\\john\\.openshot_qt\\thumbnail\\IA60T4WE68.png"}}, {"type": "update", "key": ["clips", {"id": "6DSN7NFQPA"}], "value": {"id": "6DSN7NFQPA", "layer": 8, "position": 3.3333333333333335, "image": "C:\\Users\\john\\.openshot_qt\\thumbnail\\IA60T4WE68.png", "start": 0, "end": 23.625}, "partial": false, "old_values": {"alpha": {"Points": [{"co": {"X": 1.0, "Y": 1.0}, "interpolation": 2}, {"co": {"X": 54, "Y": 0.0}, "interpolation": 1}]}, "anchor": 0, "channel_filter": {"Points": [{"co": {"X": 1.0, "Y": -1.0}, "interpolation": 2}]}, "channel_mapping": {"Points": [{"co": {"X": 1.0, "Y": -1.0}, "interpolation": 2}]}, "crop_height": {"Points": [{"co": {"X": 1.0, "Y": -1.0}, "interpolation": 2}]}, "crop_width": {"Points": [{"co": {"X": 1.0, "Y": -1.0}, "interpolation": 2}]}, "crop_x": {"Points": [{"co": {"X": 1.0, "Y": 0.0}, "interpolation": 2}]}, "crop_y": {"Points": [{"co": {"X": 1.0, "Y": 0.0}, "interpolation": 2}]}, "display": 0, "duration": 92.23836517333984, "effects": [], "end": 23.625, "gravity": 4, "has_audio": {"Points": [{"co": {"X": 1.0, "Y": -1.0}, "interpolation": 2}]}, "has_video": {"Points": [{"co": {"X": 1.0, "Y": -1.0}, "interpolation": 2}]}, "id": "6DSN7NFQPA", "layer": 8, "location_x": {"Points": [{"co": {"X": 1.0, "Y": 0.0}, "interpolation": 2}]}, "location_y": {"Points": [{"co": {"X": 1.0, "Y": 0.0}, "interpolation": 2}]}, "mixing": 0, "perspective_c1_x": {"Points": [{"co": {"X": 1.0, "Y": -1.0}, "interpolation": 2}]}, "perspective_c1_y": {"Points": [{"co": {"X": 1.0, "Y": -1.0}, "interpolation": 2}]}, "perspective_c2_x": {"Points": [{"co": {"X": 1.0, "Y": -1.0}, "interpolation": 2}]}, "perspective_c2_y": {"Points": [{"co": {"X": 1.0, "Y": -1.0}, "interpolation": 2}]}, "perspective_c3_x": {"Points": [{"co": {"X": 1.0, "Y": -1.0}, "interpolation": 2}]}, "perspective_c3_y": {"Points": [{"co": {"X": 1.0, "Y": -1.0}, "interpolation": 2}]}, "perspective_c4_x": {"Points": [{"co": {"X": 1.0, "Y": -1.0}, "interpolation": 2}]}, "perspective_c4_y": {"Points": [{"co": {"X": 1.0, "Y": -1.0}, "interpolation": 2}]}, "position": 3.375, "reader": {"acodec": "mp3", "audio_bit_rate": 195915, "audio_stream_index": 0, "audio_timebase": {"den": 14112000, "num": 1}, "channel_layout": 3, "channels": 2, "display_ratio": {"den": 1, "num": 1}, "duration": 92.23836517333984, "file_size": "2286291", "fps": {"den": 1, "num": 30}, "has_audio": true, "has_single_image": false, "has_video": true, "height": 400, "interlaced_frame": false, "metadata": {"ID3 v1 Comment": "Attribution-Share Alike 3.0", "TDTG": "2013-10-04T10:57:24", "album": "Pretty Demon Lines EP", "artist": "Infocalypse", "comment": "http://www.jamendo.com Attribution-Share Alike 3.0", "copyright": "2013-04-14T08:56:55+01:00 Infocalypse. Licensed to the public under http://creativecommons.org/licenses/by-sa/3.0/ verify at http://www.jamendo.com/album/120657/", "date": "2013", "encoded_by": "Jamendo : http://www.jamendo.com | LAME", "encoder": "LAME3.98r", "genre": "(255)", "publisher": "Jamendo", "title": "Grey Metallum (my tits sell anarchy)", "track": "02"}, "path": "C:\\cygwin64\\home\\john\\misc\\Manna for our Malices\\game\\music\\Infocalypse_-_Grey_Metallum__my_tits_sell_anarchy_.mp3", "pixel_format": 8, "pixel_ratio": {"den": 72, "num": 72}, "sample_rate": 44100, "top_field_first": false, "type": "FFmpegReader", "vcodec": "mjpeg", "video_bit_rate": 24786, "video_length": "2767", "video_stream_index": 1, "video_timebase": {"den": 90000, "num": 1}, "width": 400}, "rotation": {"Points": [{"co": {"X": 1.0, "Y": 0.0}, "interpolation": 2}]}, "scale": 1, "scale_x": {"Points": [{"co": {"X": 1.0, "Y": 1.0}, "interpolation": 2}]}, "scale_y": {"Points": [{"co": {"X": 1.0, "Y": 1.0}, "interpolation": 2}]}, "shear_x": {"Points": [{"co": {"X": 1.0, "Y": 0.0}, "interpolation": 2}]}, "shear_y": {"Points": [{"co": {"X": 1.0, "Y": 0.0}, "interpolation": 2}]}, "start": 0, "time": {"Points": [{"co": {"X": 1.0, "Y": 1.0}, "interpolation": 2}]}, "volume": {"Points": [{"co": {"X": 1.0, "Y": 1.0}, "interpolation": 2}]}, "wave_color": {"alpha": {"Points": [{"co": {"X": 1.0, "Y": 255.0}, "handle_left": {"X": 0.5, "Y": 1.0}, "handle_right": {"X": 0.5, "Y": 0.0}, "handle_type": 0, "interpolation": 0}]}, "blue": {"Points": [{"co": {"X": 1.0, "Y": 255.0}, "handle_left": {"X": 0.5, "Y": 1.0}, "handle_right": {"X": 0.5, "Y": 0.0}, "handle_type": 0, "interpolation": 0}]}, "green": {"Points": [{"co": {"X": 1.0, "Y": 123.0}, "handle_left": {"X": 0.5, "Y": 1.0}, "handle_right": {"X": 0.5, "Y": 0.0}, "handle_type": 0, "interpolation": 0}]}, "red": {"Points": [{"co": {"X": 1.0, "Y": 0.0}, "handle_left": {"X": 0.5, "Y": 1.0}, "handle_right": {"X": 0.5, "Y": 0.0}, "handle_type": 0, "interpolation": 0}]}}, "waveform": false, "file_id": "IA60T4WE68", "title": "Infocalypse_-_Grey_Metallum__my_tits_sell_anarchy_.mp3", "image": "C:\\Users\\john\\.openshot_qt\\thumbnail\\IA60T4WE68.png"}}, {"type": "update", "key": ["clips", {"id": "6DSN7NFQPA"}], "value": {"id": "6DSN7NFQPA", "layer": 8, "position": 3.2083333333333335, "image": "C:\\Users\\john\\.openshot_qt\\thumbnail\\IA60T4WE68.png", "start": 0, "end": 23.625}, "partial": false, "old_values": {"alpha": {"Points": [{"co": {"X": 1.0, "Y": 1.0}, "interpolation": 2}, {"co": {"X": 54, "Y": 0.0}, "interpolation": 1}]}, "anchor": 0, "channel_filter": {"Points": [{"co": {"X": 1.0, "Y": -1.0}, "interpolation": 2}]}, "channel_mapping": {"Points": [{"co": {"X": 1.0, "Y": -1.0}, "interpolation": 2}]}, "crop_height": {"Points": [{"co": {"X": 1.0, "Y": -1.0}, "interpolation": 2}]}, "crop_width": {"Points": [{"co": {"X": 1.0, "Y": -1.0}, "interpolation": 2}]}, "crop_x": {"Points": [{"co": {"X": 1.0, "Y": 0.0}, "interpolation": 2}]}, "crop_y": {"Points": [{"co": {"X": 1.0, "Y": 0.0}, "interpolation": 2}]}, "display": 0, "duration": 92.23836517333984, "effects": [], "end": 23.625, "gravity": 4, "has_audio": {"Points": [{"co": {"X": 1.0, "Y": -1.0}, "interpolation": 2}]}, "has_video": {"Points": [{"co": {"X": 1.0, "Y": -1.0}, "interpolation": 2}]}, "id": "6DSN7NFQPA", "layer": 8, "location_x": {"Points": [{"co": {"X": 1.0, "Y": 0.0}, "interpolation": 2}]}, "location_y": {"Points": [{"co": {"X": 1.0, "Y": 0.0}, "interpolation": 2}]}, "mixing": 0, "perspective_c1_x": {"Points": [{"co": {"X": 1.0, "Y": -1.0}, "interpolation": 2}]}, "perspective_c1_y": {"Points": [{"co": {"X": 1.0, "Y": -1.0}, "interpolation": 2}]}, "perspective_c2_x": {"Points": [{"co": {"X": 1.0, "Y": -1.0}, "interpolation": 2}]}, "perspective_c2_y": {"Points": [{"co": {"X": 1.0, "Y": -1.0}, "interpolation": 2}]}, "perspective_c3_x": {"Points": [{"co": {"X": 1.0, "Y": -1.0}, "interpolation": 2}]}, "perspective_c3_y": {"Points": [{"co": {"X": 1.0, "Y": -1.0}, "interpolation": 2}]}, "perspective_c4_x": {"Points": [{"co": {"X": 1.0, "Y": -1.0}, "interpolation": 2}]}, "perspective_c4_y": {"Points": [{"co": {"X": 1.0, "Y": -1.0}, "interpolation": 2}]}, "position": 3.3333333333333335, "reader": {"acodec": "mp3", "audio_bit_rate": 195915, "audio_stream_index": 0, "audio_timebase": {"den": 14112000, "num": 1}, "channel_layout": 3, "channels": 2, "display_ratio": {"den": 1, "num": 1}, "duration": 92.23836517333984, "file_size": "2286291", "fps": {"den": 1, "num": 30}, "has_audio": true, "has_single_image": false, "has_video": true, "height": 400, "interlaced_frame": false, "metadata": {"ID3 v1 Comment": "Attribution-Share Alike 3.0", "TDTG": "2013-10-04T10:57:24", "album": "Pretty Demon Lines EP", "artist": "Infocalypse", "comment": "http://www.jamendo.com Attribution-Share Alike 3.0", "copyright": "2013-04-14T08:56:55+01:00 Infocalypse. Licensed to the public under http://creativecommons.org/licenses/by-sa/3.0/ verify at http://www.jamendo.com/album/120657/", "date": "2013", "encoded_by": "Jamendo : http://www.jamendo.com | LAME", "encoder": "LAME3.98r", "genre": "(255)", "publisher": "Jamendo", "title": "Grey Metallum (my tits sell anarchy)", "track": "02"}, "path": "C:\\cygwin64\\home\\john\\misc\\Manna for our Malices\\game\\music\\Infocalypse_-_Grey_Metallum__my_tits_sell_anarchy_.mp3", "pixel_format": 8, "pixel_ratio": {"den": 72, "num": 72}, "sample_rate": 44100, "top_field_first": false, "type": "FFmpegReader", "vcodec": "mjpeg", "video_bit_rate": 24786, "video_length": "2767", "video_stream_index": 1, "video_timebase": {"den": 90000, "num": 1}, "width": 400}, "rotation": {"Points": [{"co": {"X": 1.0, "Y": 0.0}, "interpolation": 2}]}, "scale": 1, "scale_x": {"Points": [{"co": {"X": 1.0, "Y": 1.0}, "interpolation": 2}]}, "scale_y": {"Points": [{"co": {"X": 1.0, "Y": 1.0}, "interpolation": 2}]}, "shear_x": {"Points": [{"co": {"X": 1.0, "Y": 0.0}, "interpolation": 2}]}, "shear_y": {"Points": [{"co": {"X": 1.0, "Y": 0.0}, "interpolation": 2}]}, "start": 0, "time": {"Points": [{"co": {"X": 1.0, "Y": 1.0}, "interpolation": 2}]}, "volume": {"Points": [{"co": {"X": 1.0, "Y": 1.0}, "interpolation": 2}]}, "wave_color": {"alpha": {"Points": [{"co": {"X": 1.0, "Y": 255.0}, "handle_left": {"X": 0.5, "Y": 1.0}, "handle_right": {"X": 0.5, "Y": 0.0}, "handle_type": 0, "interpolation": 0}]}, "blue": {"Points": [{"co": {"X": 1.0, "Y": 255.0}, "handle_left": {"X": 0.5, "Y": 1.0}, "handle_right": {"X": 0.5, "Y": 0.0}, "handle_type": 0, "interpolation": 0}]}, "green": {"Points": [{"co": {"X": 1.0, "Y": 123.0}, "handle_left": {"X": 0.5, "Y": 1.0}, "handle_right": {"X": 0.5, "Y": 0.0}, "handle_type": 0, "interpolation": 0}]}, "red": {"Points": [{"co": {"X": 1.0, "Y": 0.0}, "handle_left": {"X": 0.5, "Y": 1.0}, "handle_right": {"X": 0.5, "Y": 0.0}, "handle_type": 0, "interpolation": 0}]}}, "waveform": false, "file_id": "IA60T4WE68", "title": "Infocalypse_-_Grey_Metallum__my_tits_sell_anarchy_.mp3", "image": "C:\\Users\\john\\.openshot_qt\\thumbnail\\IA60T4WE68.png"}}, {"type": "update", "key": ["clips", {"id": "6DSN7NFQPA"}], "value": {"alpha": {"Points": [{"co": {"X": 1.0, "Y": 1.0}, "interpolation": 2}, {"co": {"X": 54, "Y": 0.0}, "interpolation": 1}]}, "anchor": 0, "channel_filter": {"Points": [{"co": {"X": 1.0, "Y": -1.0}, "interpolation": 2}]}, "channel_mapping": {"Points": [{"co": {"X": 1.0, "Y": -1.0}, "interpolation": 2}]}, "crop_height": {"Points": [{"co": {"X": 1.0, "Y": -1.0}, "interpolation": 2}]}, "crop_width": {"Points": [{"co": {"X": 1.0, "Y": -1.0}, "interpolation": 2}]}, "crop_x": {"Points": [{"co": {"X": 1.0, "Y": 0.0}, "interpolation": 2}]}, "crop_y": {"Points": [{"co": {"X": 1.0, "Y": 0.0}, "interpolation": 2}]}, "display": 0, "duration": 92.23836517333984, "effects": [], "end": 23.291666666666668, "gravity": 4, "has_audio": {"Points": [{"co": {"X": 1.0, "Y": -1.0}, "interpolation": 2}]}, "has_video": {"Points": [{"co": {"X": 1.0, "Y": -1.0}, "interpolation": 2}]}, "id": "6DSN7NFQPA", "layer": 8, "location_x": {"Points": [{"co": {"X": 1.0, "Y": 0.0}, "interpolation": 2}]}, "location_y": {"Points": [{"co": {"X": 1.0, "Y": 0.0}, "interpolation": 2}]}, "mixing": 0, "perspective_c1_x": {"Points": [{"co": {"X": 1.0, "Y": -1.0}, "interpolation": 2}]}, "perspective_c1_y": {"Points": [{"co": {"X": 1.0, "Y": -1.0}, "interpolation": 2}]}, "perspective_c2_x": {"Points": [{"co": {"X": 1.0, "Y": -1.0}, "interpolation": 2}]}, "perspective_c2_y": {"Points": [{"co": {"X": 1.0, "Y": -1.0}, "interpolation": 2}]}, "perspective_c3_x": {"Points": [{"co": {"X": 1.0, "Y": -1.0}, "interpolation": 2}]}, "perspective_c3_y": {"Points": [{"co": {"X": 1.0, "Y": -1.0}, "interpolation": 2}]}, "perspective_c4_x": {"Points": [{"co": {"X": 1.0, "Y": -1.0}, "interpolation": 2}]}, "perspective_c4_y": {"Points": [{"co": {"X": 1.0, "Y": -1.0}, "interpolation": 2}]}, "position": 3.2083333333333335, "rotation": {"Points": [{"co": {"X": 1.0, "Y": 0.0}, "interpolation": 2}]}, "scale": 1, "scale_x": {"Points": [{"co": {"X": 1.0, "Y": 1.0}, "interpolation": 2}]}, "scale_y": {"Points": [{"co": {"X": 1.0, "Y": 1.0}, "interpolation": 2}]}, "shear_x": {"Points": [{"co": {"X": 1.0, "Y": 0.0}, "interpolation": 2}]}, "shear_y": {"Points": [{"co": {"X": 1.0, "Y": 0.0}, "interpolation": 2}]}, "start": 0, "time": {"Points": [{"co": {"X": 1.0, "Y": 1.0}, "interpolation": 2}]}, "volume": {"Points": [{"co": {"X": 1.0, "Y": 1.0}, "interpolation": 2}]}, "wave_color": {"alpha": {"Points": [{"co": {"X": 1.0, "Y": 255.0}, "handle_left": {"X": 0.5, "Y": 1.0}, "handle_right": {"X": 0.5, "Y": 0.0}, "handle_type": 0, "interpolation": 0}]}, "blue": {"Points": [{"co": {"X": 1.0, "Y": 255.0}, "handle_left": {"X": 0.5, "Y": 1.0}, "handle_right": {"X": 0.5, "Y": 0.0}, "handle_type": 0, "interpolation": 0}]}, "green": {"Points": [{"co": {"X": 1.0, "Y": 123.0}, "handle_left": {"X": 0.5, "Y": 1.0}, "handle_right": {"X": 0.5, "Y": 0.0}, "handle_type": 0, "interpolation": 0}]}, "red": {"Points": [{"co": {"X": 1.0, "Y": 0.0}, "handle_left": {"X": 0.5, "Y": 1.0}, "handle_right": {"X": 0.5, "Y": 0.0}, "handle_type": 0, "interpolation": 0}]}}, "waveform": false, "file_id": "IA60T4WE68", "title": "Infocalypse_-_Grey_Metallum__my_tits_sell_anarchy_.mp3", "image": "C:\\Users\\john\\.openshot_qt\\thumbnail\\IA60T4WE68.png"}, "partial": false, "old_values": null}, {"type": "update", "key": ["clips", {"id": "6DSN7NFQPA"}], "value": {"alpha": {"Points": [{"co": {"X": 1.0, "Y": 1.0}, "interpolation": 2}, {"co": {"X": 54, "Y": 0.0}, "interpolation": 1}]}, "anchor": 0, "channel_filter": {"Points": [{"co": {"X": 1.0, "Y": -1.0}, "interpolation": 2}]}, "channel_mapping": {"Points": [{"co": {"X": 1.0, "Y": -1.0}, "interpolation": 2}]}, "crop_height": {"Points": [{"co": {"X": 1.0, "Y": -1.0}, "interpolation": 2}]}, "crop_width": {"Points": [{"co": {"X": 1.0, "Y": -1.0}, "interpolation": 2}]}, "crop_x": {"Points": [{"co": {"X": 1.0, "Y": 0.0}, "interpolation": 2}]}, "crop_y": {"Points": [{"co": {"X": 1.0, "Y": 0.0}, "interpolation": 2}]}, "display": 0, "duration": 92.23836517333984, "effects": [], "end": 23.291666666666668, "gravity": 4, "has_audio": {"Points": [{"co": {"X": 1.0, "Y": -1.0}, "interpolation": 2}]}, "has_video": {"Points": [{"co": {"X": 1.0, "Y": -1.0}, "interpolation": 2}]}, "id": "6DSN7NFQPA", "layer": 8, "location_x": {"Points": [{"co": {"X": 1.0, "Y": 0.0}, "interpolation": 2}]}, "location_y": {"Points": [{"co": {"X": 1.0, "Y": 0.0}, "interpolation": 2}]}, "mixing": 0, "perspective_c1_x": {"Points": [{"co": {"X": 1.0, "Y": -1.0}, "interpolation": 2}]}, "perspective_c1_y": {"Points": [{"co": {"X": 1.0, "Y": -1.0}, "interpolation": 2}]}, "perspective_c2_x": {"Points": [{"co": {"X": 1.0, "Y": -1.0}, "interpolation": 2}]}, "perspective_c2_y": {"Points": [{"co": {"X": 1.0, "Y": -1.0}, "interpolation": 2}]}, "perspective_c3_x": {"Points": [{"co": {"X": 1.0, "Y": -1.0}, "interpolation": 2}]}, "perspective_c3_y": {"Points": [{"co": {"X": 1.0, "Y": -1.0}, "interpolation": 2}]}, "perspective_c4_x": {"Points": [{"co": {"X": 1.0, "Y": -1.0}, "interpolation": 2}]}, "perspective_c4_y": {"Points": [{"co": {"X": 1.0, "Y": -1.0}, "interpolation": 2}]}, "position": 3.2083333333333335, "rotation": {"Points": [{"co": {"X": 1.0, "Y": 0.0}, "interpolation": 2}]}, "scale": 1, "scale_x": {"Points": [{"co": {"X": 1.0, "Y": 1.0}, "interpolation": 2}]}, "scale_y": {"Points": [{"co": {"X": 1.0, "Y": 1.0}, "interpolation": 2}]}, "shear_x": {"Points": [{"co": {"X": 1.0, "Y": 0.0}, "interpolation": 2}]}, "shear_y": {"Points": [{"co": {"X": 1.0, "Y": 0.0}, "interpolation": 2}]}, "start": 0, "time": {"Points": [{"co": {"X": 1.0, "Y": 1.0}, "interpolation": 2}]}, "volume": {"Points": [{"co": {"X": 1.0, "Y": 1.0}, "interpolation": 2}]}, "wave_color": {"alpha": {"Points": [{"co": {"X": 1.0, "Y": 255.0}, "handle_left": {"X": 0.5, "Y": 1.0}, "handle_right": {"X": 0.5, "Y": 0.0}, "handle_type": 0, "interpolation": 0}]}, "blue": {"Points": [{"co": {"X": 1.0, "Y": 255.0}, "handle_left": {"X": 0.5, "Y": 1.0}, "handle_right": {"X": 0.5, "Y": 0.0}, "handle_type": 0, "interpolation": 0}]}, "green": {"Points": [{"co": {"X": 1.0, "Y": 123.0}, "handle_left": {"X": 0.5, "Y": 1.0}, "handle_right": {"X": 0.5, "Y": 0.0}, "handle_type": 0, "interpolation": 0}]}, "red": {"Points": [{"co": {"X": 1.0, "Y": 0.0}, "handle_left": {"X": 0.5, "Y": 1.0}, "handle_right": {"X": 0.5, "Y": 0.0}, "handle_type": 0, "interpolation": 0}]}}, "waveform": false, "file_id": "IA60T4WE68", "title": "Infocalypse_-_Grey_Metallum__my_tits_sell_anarchy_.mp3", "image": "C:\\Users\\john\\.openshot_qt\\thumbnail\\IA60T4WE68.png"}, "partial": false, "old_values": null}, {"type": "update", "key": ["clips", {"id": "6DSN7NFQPA"}], "value": {"alpha": {"Points": [{"co": {"X": 1.0, "Y": 1.0}, "interpolation": 2}, {"co": {"X": 54, "Y": 0.0}, "interpolation": 1}]}, "anchor": 0, "channel_filter": {"Points": [{"co": {"X": 1.0, "Y": -1.0}, "interpolation": 2}]}, "channel_mapping": {"Points": [{"co": {"X": 1.0, "Y": -1.0}, "interpolation": 2}]}, "crop_height": {"Points": [{"co": {"X": 1.0, "Y": -1.0}, "interpolation": 2}]}, "crop_width": {"Points": [{"co": {"X": 1.0, "Y": -1.0}, "interpolation": 2}]}, "crop_x": {"Points": [{"co": {"X": 1.0, "Y": 0.0}, "interpolation": 2}]}, "crop_y": {"Points": [{"co": {"X": 1.0, "Y": 0.0}, "interpolation": 2}]}, "display": 0, "duration": 92.23836517333984, "effects": [], "end": 23.291666666666668, "gravity": 4, "has_audio": {"Points": [{"co": {"X": 1.0, "Y": -1.0}, "interpolation": 2}]}, "has_video": {"Points": [{"co": {"X": 1.0, "Y": -1.0}, "interpolation": 2}]}, "id": "6DSN7NFQPA", "layer": 8, "location_x": {"Points": [{"co": {"X": 1.0, "Y": 0.0}, "interpolation": 2}]}, "location_y": {"Points": [{"co": {"X": 1.0, "Y": 0.0}, "interpolation": 2}]}, "mixing": 0, "perspective_c1_x": {"Points": [{"co": {"X": 1.0, "Y": -1.0}, "interpolation": 2}]}, "perspective_c1_y": {"Points": [{"co": {"X": 1.0, "Y": -1.0}, "interpolation": 2}]}, "perspective_c2_x": {"Points": [{"co": {"X": 1.0, "Y": -1.0}, "interpolation": 2}]}, "perspective_c2_y": {"Points": [{"co": {"X": 1.0, "Y": -1.0}, "interpolation": 2}]}, "perspective_c3_x": {"Points": [{"co": {"X": 1.0, "Y": -1.0}, "interpolation": 2}]}, "perspective_c3_y": {"Points": [{"co": {"X": 1.0, "Y": -1.0}, "interpolation": 2}]}, "perspective_c4_x": {"Points": [{"co": {"X": 1.0, "Y": -1.0}, "interpolation": 2}]}, "perspective_c4_y": {"Points": [{"co": {"X": 1.0, "Y": -1.0}, "interpolation": 2}]}, "position": 3.2083333333333335, "rotation": {"Points": [{"co": {"X": 1.0, "Y": 0.0}, "interpolation": 2}]}, "scale": 1, "scale_x": {"Points": [{"co": {"X": 1.0, "Y": 1.0}, "interpolation": 2}]}, "scale_y": {"Points": [{"co": {"X": 1.0, "Y": 1.0}, "interpolation": 2}]}, "shear_x": {"Points": [{"co": {"X": 1.0, "Y": 0.0}, "interpolation": 2}]}, "shear_y": {"Points": [{"co": {"X": 1.0, "Y": 0.0}, "interpolation": 2}]}, "start": 0, "time": {"Points": [{"co": {"X": 1.0, "Y": 1.0}, "interpolation": 2}]}, "volume": {"Points": [{"co": {"X": 1.0, "Y": 1.0}, "interpolation": 2}]}, "wave_color": {"alpha": {"Points": [{"co": {"X": 1.0, "Y": 255.0}, "handle_left": {"X": 0.5, "Y": 1.0}, "handle_right": {"X": 0.5, "Y": 0.0}, "handle_type": 0, "interpolation": 0}]}, "blue": {"Points": [{"co": {"X": 1.0, "Y": 255.0}, "handle_left": {"X": 0.5, "Y": 1.0}, "handle_right": {"X": 0.5, "Y": 0.0}, "handle_type": 0, "interpolation": 0}]}, "green": {"Points": [{"co": {"X": 1.0, "Y": 123.0}, "handle_left": {"X": 0.5, "Y": 1.0}, "handle_right": {"X": 0.5, "Y": 0.0}, "handle_type": 0, "interpolation": 0}]}, "red": {"Points": [{"co": {"X": 1.0, "Y": 0.0}, "handle_left": {"X": 0.5, "Y": 1.0}, "handle_right": {"X": 0.5, "Y": 0.0}, "handle_type": 0, "interpolation": 0}]}}, "waveform": false, "file_id": "IA60T4WE68", "title": "Infocalypse_-_Grey_Metallum__my_tits_sell_anarchy_.mp3", "image": "C:\\Users\\john\\.openshot_qt\\thumbnail\\IA60T4WE68.png"}, "partial": false, "old_values": null}, {"type": "update", "key": ["clips", {"id": "6DSN7NFQPA"}], "value": {"alpha": {"Points": [{"co": {"X": 1.0, "Y": 1.0}, "interpolation": 2}, {"co": {"X": 54, "Y": 0.0}, "interpolation": 1}, {"co": {"X": 2, "Y": 0.0}, "interpolation": 1}]}}, "partial": false, "old_values": null}, {"type": "update", "key": ["clips", {"id": "6DSN7NFQPA"}], "value": {"alpha": {"Points": [{"co": {"X": 1.0, "Y": 1.0}, "interpolation": 2}, {"co": {"X": 54, "Y": 0.0}, "interpolation": 1}, {"co": {"X": 2, "Y": 0.0}, "interpolation": 1}]}}, "partial": false, "old_values": null}, {"type": "update", "key": ["clips", {"id": "6DSN7NFQPA"}], "value": {"alpha": {"Points": [{"co": {"X": 1.0, "Y": 1.0}, "interpolation": 2}, {"co": {"X": 54, "Y": 0.0}, "interpolation": 1}, {"co": {"X": 2, "Y": 0.0}, "interpolation": 1}]}}, "partial": false, "old_values": null}, {"type": "update", "key": ["clips", {"id": "6DSN7NFQPA"}], "value": {"alpha": {"Points": [{"co": {"X": 1.0, "Y": 0.0}, "interpolation": 2}, {"co": {"X": 54, "Y": 0.0}, "interpolation": 1}, {"co": {"X": 2, "Y": 0.0}, "interpolation": 1}]}}, "partial": false, "old_values": null}, {"type": "update", "key": ["clips", {"id": "6DSN7NFQPA"}], "value": {"alpha": {"Points": [{"co": {"X": 1.0, "Y": 0.0}, "interpolation": 2}, {"co": {"X": 54, "Y": 0.0}, "interpolation": 1}, {"co": {"X": 2, "Y": 0.0}, "interpolation": 1}]}}, "partial": false, "old_values": null}, {"type": "update", "key": ["clips", {"id": "6DSN7NFQPA"}], "value": {"alpha": {"Points": [{"co": {"X": 1.0, "Y": 0.0}, "interpolation": 2}, {"co": {"X": 54, "Y": 0.0}, "interpolation": 1}, {"co": {"X": 2, "Y": 0.0}, "interpolation": 1}]}}, "partial": false, "old_values": {"alpha": {"Points": [{"co": {"X": 1.0, "Y": 0.0}, "interpolation": 2}, {"co": {"X": 54, "Y": 0.0}, "interpolation": 1}, {"co": {"X": 2, "Y": 0.0}, "interpolation": 1}]}, "anchor": 0, "channel_filter": {"Points": [{"co": {"X": 1.0, "Y": -1.0}, "interpolation": 2}]}, "channel_mapping": {"Points": [{"co": {"X": 1.0, "Y": -1.0}, "interpolation": 2}]}, "crop_height": {"Points": [{"co": {"X": 1.0, "Y": -1.0}, "interpolation": 2}]}, "crop_width": {"Points": [{"co": {"X": 1.0, "Y": -1.0}, "interpolation": 2}]}, "crop_x": {"Points": [{"co": {"X": 1.0, "Y": 0.0}, "interpolation": 2}]}, "crop_y": {"Points": [{"co": {"X": 1.0, "Y": 0.0}, "interpolation": 2}]}, "display": 0, "duration": 92.23836517333984, "effects": [], "end": 23.291666666666668, "gravity": 4, "has_audio": {"Points": [{"co": {"X": 1.0, "Y": -1.0}, "interpolation": 2}]}, "has_video": {"Points": [{"co": {"X": 1.0, "Y": -1.0}, "interpolation": 2}]}, "id": "6DSN7NFQPA", "layer": 8, "location_x": {"Points": [{"co": {"X": 1.0, "Y": 0.0}, "interpolation": 2}]}, "location_y": {"Points": [{"co": {"X": 1.0, "Y": 0.0}, "interpolation": 2}]}, "mixing": 0, "perspective_c1_x": {"Points": [{"co": {"X": 1.0, "Y": -1.0}, "interpolation": 2}]}, "perspective_c1_y": {"Points": [{"co": {"X": 1.0, "Y": -1.0}, "interpolation": 2}]}, "perspective_c2_x": {"Points": [{"co": {"X": 1.0, "Y": -1.0}, "interpolation": 2}]}, "perspective_c2_y": {"Points": [{"co": {"X": 1.0, "Y": -1.0}, "interpolation": 2}]}, "perspective_c3_x": {"Points": [{"co": {"X": 1.0, "Y": -1.0}, "interpolation": 2}]}, "perspective_c3_y": {"Points": [{"co": {"X": 1.0, "Y": -1.0}, "interpolation": 2}]}, "perspective_c4_x": {"Points": [{"co": {"X": 1.0, "Y": -1.0}, "interpolation": 2}]}, "perspective_c4_y": {"Points": [{"co": {"X": 1.0, "Y": -1.0}, "interpolation": 2}]}, "position": 3.2083333333333335, "reader": {"acodec": "mp3", "audio_bit_rate": 195915, "audio_stream_index": 0, "audio_timebase": {"den": 14112000, "num": 1}, "channel_layout": 3, "channels": 2, "display_ratio": {"den": 1, "num": 1}, "duration": 92.23836517333984, "file_size": "2286291", "fps": {"den": 1, "num": 30}, "has_audio": true, "has_single_image": false, "has_video": true, "height": 400, "interlaced_frame": false, "metadata": {"ID3 v1 Comment": "Attribution-Share Alike 3.0", "TDTG": "2013-10-04T10:57:24", "album": "Pretty Demon Lines EP", "artist": "Infocalypse", "comment": "http://www.jamendo.com Attribution-Share Alike 3.0", "copyright": "2013-04-14T08:56:55+01:00 Infocalypse. Licensed to the public under http://creativecommons.org/licenses/by-sa/3.0/ verify at http://www.jamendo.com/album/120657/", "date": "2013", "encoded_by": "Jamendo : http://www.jamendo.com | LAME", "encoder": "LAME3.98r", "genre": "(255)", "publisher": "Jamendo", "title": "Grey Metallum (my tits sell anarchy)", "track": "02"}, "path": "C:\\cygwin64\\home\\john\\misc\\Manna for our Malices\\game\\music\\Infocalypse_-_Grey_Metallum__my_tits_sell_anarchy_.mp3", "pixel_format": 8, "pixel_ratio": {"den": 72, "num": 72}, "sample_rate": 44100, "top_field_first": false, "type": "FFmpegReader", "vcodec": "mjpeg", "video_bit_rate": 24786, "video_length": "2767", "video_stream_index": 1, "video_timebase": {"den": 90000, "num": 1}, "width": 400}, "rotation": {"Points": [{"co": {"X": 1.0, "Y": 0.0}, "interpolation": 2}]}, "scale": 1, "scale_x": {"Points": [{"co": {"X": 1.0, "Y": 1.0}, "interpolation": 2}]}, "scale_y": {"Points": [{"co": {"X": 1.0, "Y": 1.0}, "interpolation": 2}]}, "shear_x": {"Points": [{"co": {"X": 1.0, "Y": 0.0}, "interpolation": 2}]}, "shear_y": {"Points": [{"co": {"X": 1.0, "Y": 0.0}, "interpolation": 2}]}, "start": 0, "time": {"Points": [{"co": {"X": 1.0, "Y": 1.0}, "interpolation": 2}]}, "volume": {"Points": [{"co": {"X": 1.0, "Y": 1.0}, "interpolation": 2}]}, "wave_color": {"alpha": {"Points": [{"co": {"X": 1.0, "Y": 255.0}, "handle_left": {"X": 0.5, "Y": 1.0}, "handle_right": {"X": 0.5, "Y": 0.0}, "handle_type": 0, "interpolation": 0}]}, "blue": {"Points": [{"co": {"X": 1.0, "Y": 255.0}, "handle_left": {"X": 0.5, "Y": 1.0}, "handle_right": {"X": 0.5, "Y": 0.0}, "handle_type": 0, "interpolation": 0}]}, "green": {"Points": [{"co": {"X": 1.0, "Y": 123.0}, "handle_left": {"X": 0.5, "Y": 1.0}, "handle_right": {"X": 0.5, "Y": 0.0}, "handle_type": 0, "interpolation": 0}]}, "red": {"Points": [{"co": {"X": 1.0, "Y": 0.0}, "handle_left": {"X": 0.5, "Y": 1.0}, "handle_right": {"X": 0.5, "Y": 0.0}, "handle_type": 0, "interpolation": 0}]}}, "waveform": false, "file_id": "IA60T4WE68", "title": "Infocalypse_-_Grey_Metallum__my_tits_sell_anarchy_.mp3", "image": "C:\\Users\\john\\.openshot_qt\\thumbnail\\IA60T4WE68.png"}}]}, "files": [{"width": 1280, "pixel_format": 0, "audio_bit_rate": 0, "id": "JKS6ET2OHD", "vcodec": "mpeg4", "has_audio": false, "video_length": "64", "sample_rate": 0, "audio_stream_index": -1, "video_bit_rate": 1949153, "acodec": "", "channel_layout": 4, "video_stream_index": 0, "fps": {"num": 24, "den": 1}, "audio_timebase": {"num": 1, "den": 1}, "has_video": true, "path": "..\\..\\cygwin64\\home\\john\\misc\\Manna for our Malices\\clock-logo.avi", "video_timebase": {"num": 1, "den": 24}, "height": 720, "display_ratio": {"num": 16, "den": 9}, "duration": 2.666666746139526, "type": "FFmpegReader", "top_field_first": true, "media_type": "video", "file_size": "649718", "channels": 0, "interlaced_frame": false, "has_single_image": false, "pixel_ratio": {"num": 1, "den": 1}}, {"vcodec": "", "width": 480, "pixel_format": -1, "audio_bit_rate": 0, "id": "E5AF822S8G", "type": "QtImageReader", "has_audio": false, "sample_rate": 0, "audio_stream_index": -1, "video_bit_rate": 0, "acodec": "", "channel_layout": 4, "video_stream_index": -1, "fps": {"num": 30, "den": 1}, "audio_timebase": {"num": 1, "den": 1}, "has_video": true, "path": "..\\..\\cygwin64\\home\\john\\misc\\Manna for our Malices\\game\\images\\aoi hearteyes.png", "video_timebase": {"num": 1, "den": 30}, "height": 640, "display_ratio": {"num": 3, "den": 4}, "duration": 86400.0, "video_length": "2592000", "top_field_first": true, "media_type": "image", "file_size": "1228800", "channels": 0, "interlaced_frame": false, "has_single_image": true, "pixel_ratio": {"num": 1, "den": 1}}, {"vcodec": "", "width": 480, "pixel_format": -1, "audio_bit_rate": 0, "id": "T6B8VZ699H", "type": "QtImageReader", "has_audio": false, "sample_rate": 0, "audio_stream_index": -1, "video_bit_rate": 0, "acodec": "", "channel_layout": 4, "video_stream_index": -1, "fps": {"num": 30, "den": 1}, "audio_timebase": {"num": 1, "den": 1}, "has_video": true, "path": "..\\..\\cygwin64\\home\\john\\misc\\Manna for our Malices\\game\\images\\aoi yandere2.png", "video_timebase": {"num": 1, "den": 30}, "height": 640, "display_ratio": {"num": 3, "den": 4}, "duration": 86400.0, "video_length": "2592000", "top_field_first": true, "media_type": "image", "file_size": "1228800", "channels": 0, "interlaced_frame": false, "has_single_image": true, "pixel_ratio": {"num": 1, "den": 1}}, {"vcodec": "", "width": 1280, "pixel_format": -1, "audio_bit_rate": 0, "id": "7WWUKZ8YO1", "type": "QtImageReader", "has_audio": false, "sample_rate": 0, "audio_stream_index": -1, "video_bit_rate": 0, "acodec": "", "channel_layout": 4, "video_stream_index": -1, "fps": {"num": 30, "den": 1}, "audio_timebase": {"num": 1, "den": 1}, "has_video": true, "path": "..\\..\\cygwin64\\home\\john\\misc\\Manna for our Malices\\game\\images\\bad end aoi epilogue.png", "video_timebase": {"num": 1, "den": 30}, "height": 720, "display_ratio": {"num": 16, "den": 9}, "duration": 86400.0, "video_length": "2592000", "top_field_first": true, "media_type": "image", "file_size": "3686400", "channels": 0, "interlaced_frame": false, "has_single_image": true, "pixel_ratio": {"num": 1, "den": 1}}, {"vcodec": "", "width": 1280, "pixel_format": -1, "audio_bit_rate": 0, "id": "R9DQYF4FVX", "type": "QtImageReader", "has_audio": false, "sample_rate": 0, "audio_stream_index": -1, "video_bit_rate": 0, "acodec": "", "channel_layout": 4, "video_stream_index": -1, "fps": {"num": 30, "den": 1}, "audio_timebase": {"num": 1, "den": 1}, "has_video": true, "path": "..\\..\\cygwin64\\home\\john\\misc\\Manna for our Malices\\game\\images\\science room.png", "video_timebase": {"num": 1, "den": 30}, "height": 720, "display_ratio": {"num": 16, "den": 9}, "duration": 86400.0, "video_length": "2592000", "top_field_first": true, "media_type": "image", "file_size": "3686400", "channels": 0, "interlaced_frame": false, "has_single_image": true, "pixel_ratio": {"num": 1, "den": 1}}, {"width": 1280, "has_audio": false, "audio_bit_rate": 0, "id": "PJIR2PEEWP", "vcodec": "", "interlaced_frame": false, "pixel_format": -1, "audio_stream_index": -1, "video_bit_rate": 0, "acodec": "", "channel_layout": 4, "video_stream_index": -1, "fps": {"num": 30, "den": 1}, "audio_timebase": {"num": 1, "den": 1}, "has_video": true, "sample_rate": 0, "type": "QtImageReader", "path": "..\\..\\cygwin64\\home\\john\\misc\\Manna for our Malices\\game\\images\\track.png", "video_timebase": {"num": 1, "den": 30}, "height": 720, "display_ratio": {"num": 16, "den": 9}, "duration": 86400.0, "video_length": "2592000", "top_field_first": true, "media_type": "image", "file_size": "3686400", "channels": 0, "has_single_image": true, "pixel_ratio": {"num": 1, "den": 1}}, {"width": 480, "has_audio": false, "audio_bit_rate": 0, "id": "9O8FMYR5ZH", "vcodec": "", "interlaced_frame": false, "pixel_format": -1, "audio_stream_index": -1, "video_bit_rate": 0, "acodec": "", "channel_layout": 4, "video_stream_index": -1, "fps": {"num": 30, "den": 1}, "audio_timebase": {"num": 1, "den": 1}, "has_video": true, "sample_rate": 0, "type": "QtImageReader", "path": "..\\..\\cygwin64\\home\\john\\misc\\Manna for our Malices\\game\\images\\koneko pout.png", "video_timebase": {"num": 1, "den": 30}, "height": 640, "display_ratio": {"num": 3, "den": 4}, "duration": 86400.0, "video_length": "2592000", "top_field_first": true, "media_type": "image", "file_size": "1228800", "channels": 0, "has_single_image": true, "pixel_ratio": {"num": 1, "den": 1}}, {"width": 1280, "has_audio": false, "audio_bit_rate": 0, "id": "4ZFF0B0IWN", "vcodec": "", "interlaced_frame": false, "pixel_format": -1, "audio_stream_index": -1, "video_bit_rate": 0, "acodec": "", "channel_layout": 4, "video_stream_index": -1, "fps": {"num": 30, "den": 1}, "audio_timebase": {"num": 1, "den": 1}, "has_video": true, "sample_rate": 0, "type": "QtImageReader", "path": "..\\..\\cygwin64\\home\\john\\misc\\Manna for our Malices\\game\\images\\milpsi corridor massacre.png", "video_timebase": {"num": 1, "den": 30}, "height": 720, "display_ratio": {"num": 16, "den": 9}, "duration": 86400.0, "video_length": "2592000", "top_field_first": true, "media_type": "image", "file_size": "3686400", "channels": 0, "has_single_image": true, "pixel_ratio": {"num": 1, "den": 1}}, {"width": 1280, "has_audio": false, "audio_bit_rate": 0, "id": "KNSKKNIX1O", "vcodec": "", "interlaced_frame": false, "pixel_format": -1, "audio_stream_index": -1, "video_bit_rate": 0, "acodec": "", "channel_layout": 4, "video_stream_index": -1, "fps": {"num": 30, "den": 1}, "audio_timebase": {"num": 1, "den": 1}, "has_video": true, "sample_rate": 0, "type": "QtImageReader", "path": "..\\..\\cygwin64\\home\\john\\misc\\Manna for our Malices\\game\\images\\musicroom.png", "video_timebase": {"num": 1, "den": 30}, "height": 720, "display_ratio": {"num": 16, "den": 9}, "duration": 86400.0, "video_length": "2592000", "top_field_first": true, "media_type": "image", "file_size": "3686400", "channels": 0, "has_single_image": true, "pixel_ratio": {"num": 1, "den": 1}}, {"width": 480, "has_audio": false, "audio_bit_rate": 0, "id": "B8BXF63I92", "vcodec": "", "interlaced_frame": false, "pixel_format": -1, "audio_stream_index": -1, "video_bit_rate": 0, "acodec": "", "channel_layout": 4, "video_stream_index": -1, "fps": {"num": 30, "den": 1}, "audio_timebase": {"num": 1, "den": 1}, "has_video": true, "sample_rate": 0, "type": "QtImageReader", "path": "..\\..\\cygwin64\\home\\john\\misc\\Manna for our Malices\\game\\images\\kuroneko pout.png", "video_timebase": {"num": 1, "den": 30}, "height": 640, "display_ratio": {"num": 3, "den": 4}, "duration": 86400.0, "video_length": "2592000", "top_field_first": true, "media_type": "image", "file_size": "1228800", "channels": 0, "has_single_image": true, "pixel_ratio": {"num": 1, "den": 1}}, {"width": 1280, "has_audio": false, "audio_bit_rate": 0, "id": "OG249WYFNP", "vcodec": "", "interlaced_frame": false, "pixel_format": -1, "audio_stream_index": -1, "video_bit_rate": 0, "acodec": "", "channel_layout": 4, "video_stream_index": -1, "fps": {"num": 30, "den": 1}, "audio_timebase": {"num": 1, "den": 1}, "has_video": true, "sample_rate": 0, "type": "QtImageReader", "path": "..\\..\\cygwin64\\home\\john\\misc\\Manna for our Malices\\game\\images\\oss altar.png", "video_timebase": {"num": 1, "den": 30}, "height": 720, "display_ratio": {"num": 16, "den": 9}, "duration": 86400.0, "video_length": "2592000", "top_field_first": true, "media_type": "image", "file_size": "3686400", "channels": 0, "has_single_image": true, "pixel_ratio": {"num": 1, "den": 1}}, {"width": 266, "has_audio": false, "audio_bit_rate": 0, "id": "XQH6I4TO6R", "vcodec": "", "interlaced_frame": false, "pixel_format": -1, "audio_stream_index": -1, "video_bit_rate": 0, "acodec": "", "channel_layout": 4, "video_stream_index": -1, "fps": {"num": 30, "den": 1}, "audio_timebase": {"num": 1, "den": 1}, "has_video": true, "sample_rate": 0, "type": "QtImageReader", "path": "..\\..\\cygwin64\\home\\john\\misc\\Manna for our Malices\\game\\images\\shironeko.png", "video_timebase": {"num": 1, "den": 30}, "height": 600, "display_ratio": {"num": 133, "den": 300}, "duration": 86400.0, "video_length": "2592000", "top_field_first": true, "media_type": "image", "file_size": "638400", "channels": 0, "has_single_image": true, "pixel_ratio": {"num": 1, "den": 1}}, {"width": 1280, "has_audio": false, "audio_bit_rate": 0, "id": "LAFGRZBD93", "vcodec": "", "interlaced_frame": false, "pixel_format": -1, "audio_stream_index": -1, "video_bit_rate": 0, "acodec": "", "channel_layout": 4, "video_stream_index": -1, "fps": {"num": 30, "den": 1}, "audio_timebase": {"num": 1, "den": 1}, "has_video": true, "sample_rate": 0, "type": "QtImageReader", "path": "..\\..\\cygwin64\\home\\john\\misc\\Manna for our Malices\\game\\images\\shironeko bedroom.png", "video_timebase": {"num": 1, "den": 30}, "height": 720, "display_ratio": {"num": 16, "den": 9}, "duration": 86400.0, "video_length": "2592000", "top_field_first": true, "media_type": "image", "file_size": "3686400", "channels": 0, "has_single_image": true, "pixel_ratio": {"num": 1, "den": 1}}, {"width": 1280, "has_audio": false, "audio_bit_rate": 0, "id": "OO9O3U5HEP", "vcodec": "", "interlaced_frame": false, "pixel_format": -1, "audio_stream_index": -1, "video_bit_rate": 0, "acodec": "", "channel_layout": 4, "video_stream_index": -1, "fps": {"num": 30, "den": 1}, "audio_timebase": {"num": 1, "den": 1}, "has_video": true, "sample_rate": 0, "type": "QtImageReader", "path": "..\\..\\cygwin64\\home\\john\\misc\\Manna for our Malices\\game\\images\\shironeko bedroom night.png", "video_timebase": {"num": 1, "den": 30}, "height": 720, "display_ratio": {"num": 16, "den": 9}, "duration": 86400.0, "video_length": "2592000", "top_field_first": true, "media_type": "image", "file_size": "3686400", "channels": 0, "has_single_image": true, "pixel_ratio": {"num": 1, "den": 1}}, {"width": 1280, "has_audio": false, "audio_bit_rate": 0, "id": "0J2BG3FAE0", "vcodec": "", "interlaced_frame": false, "pixel_format": -1, "audio_stream_index": -1, "video_bit_rate": 0, "acodec": "", "channel_layout": 4, "video_stream_index": -1, "fps": {"num": 30, "den": 1}, "audio_timebase": {"num": 1, "den": 1}, "has_video": true, "sample_rate": 0, "type": "QtImageReader", "path": "..\\..\\cygwin64\\home\\john\\misc\\Manna for our Malices\\game\\images\\splash violin fingering.png", "video_timebase": {"num": 1, "den": 30}, "height": 720, "display_ratio": {"num": 16, "den": 9}, "duration": 86400.0, "video_length": "2592000", "top_field_first": true, "media_type": "image", "file_size": "3686400", "channels": 0, "has_single_image": true, "pixel_ratio": {"num": 1, "den": 1}}, {"width": 1280, "has_audio": false, "audio_bit_rate": 0, "id": "7CR5CUMXOF", "vcodec": "", "interlaced_frame": false, "pixel_format": -1, "audio_stream_index": -1, "video_bit_rate": 0, "acodec": "", "channel_layout": 4, "video_stream_index": -1, "fps": {"num": 30, "den": 1}, "audio_timebase": {"num": 1, "den": 1}, "has_video": true, "sample_rate": 0, "type": "QtImageReader", "path": "..\\..\\cygwin64\\home\\john\\misc\\Manna for our Malices\\game\\images\\oss exterior.png", "video_timebase": {"num": 1, "den": 30}, "height": 720, "display_ratio": {"num": 16, "den": 9}, "duration": 86400.0, "video_length": "2592000", "top_field_first": true, "media_type": "image", "file_size": "3686400", "channels": 0, "has_single_image": true, "pixel_ratio": {"num": 1, "den": 1}}, {"width": 1280, "has_audio": false, "audio_bit_rate": 0, "id": "EKXZ0ME2D8", "vcodec": "", "interlaced_frame": false, "pixel_format": -1, "audio_stream_index": -1, "video_bit_rate": 0, "acodec": "", "channel_layout": 4, "video_stream_index": -1, "fps": {"num": 30, "den": 1}, "audio_timebase": {"num": 1, "den": 1}, "has_video": true, "sample_rate": 0, "type": "QtImageReader", "path": "..\\..\\cygwin64\\home\\john\\misc\\Manna for our Malices\\game\\images\\oss exterior night.png", "video_timebase": {"num": 1, "den": 30}, "height": 720, "display_ratio": {"num": 16, "den": 9}, "duration": 86400.0, "video_length": "2592000", "top_field_first": true, "media_type": "image", "file_size": "3686400", "channels": 0, "has_single_image": true, "pixel_ratio": {"num": 1, "den": 1}}, {"width": 1280, "has_audio": false, "audio_bit_rate": 0, "id": "QW8OXHSPYQ", "vcodec": "", "interlaced_frame": false, "pixel_format": -1, "audio_stream_index": -1, "video_bit_rate": 0, "acodec": "", "channel_layout": 4, "video_stream_index": -1, "fps": {"num": 30, "den": 1}, "audio_timebase": {"num": 1, "den": 1}, "has_video": true, "sample_rate": 0, "type": "QtImageReader", "path": "..\\..\\cygwin64\\home\\john\\misc\\Manna for our Malices\\game\\images\\oss exterior night violin.png", "video_timebase": {"num": 1, "den": 30}, "height": 720, "display_ratio": {"num": 16, "den": 9}, "duration": 86400.0, "video_length": "2592000", "top_field_first": true, "media_type": "image", "file_size": "3686400", "channels": 0, "has_single_image": true, "pixel_ratio": {"num": 1, "den": 1}}, {"width": 1280, "has_audio": false, "audio_bit_rate": 0, "id": "HPG63J9Q0Q", "vcodec": "", "interlaced_frame": false, "pixel_format": -1, "audio_stream_index": -1, "video_bit_rate": 0, "acodec": "", "channel_layout": 4, "video_stream_index": -1, "fps": {"num": 30, "den": 1}, "audio_timebase": {"num": 1, "den": 1}, "has_video": true, "sample_rate": 0, "type": "QtImageReader", "path": "..\\..\\cygwin64\\home\\john\\misc\\Manna for our Malices\\game\\images\\oss exterior night collapse.png", "video_timebase": {"num": 1, "den": 30}, "height": 720, "display_ratio": {"num": 16, "den": 9}, "duration": 86400.0, "video_length": "2592000", "top_field_first": true, "media_type": "image", "file_size": "3686400", "channels": 0, "has_single_image": true, "pixel_ratio": {"num": 1, "den": 1}}, {"width": 1280, "has_audio": false, "audio_bit_rate": 0, "id": "5EUZT6ABXY", "vcodec": "", "interlaced_frame": false, "pixel_format": -1, "audio_stream_index": -1, "video_bit_rate": 0, "acodec": "", "channel_layout": 4, "video_stream_index": -1, "fps": {"num": 30, "den": 1}, "audio_timebase": {"num": 1, "den": 1}, "has_video": true, "sample_rate": 0, "type": "QtImageReader", "path": "..\\..\\cygwin64\\home\\john\\misc\\Manna for our Malices\\game\\images\\oss exterior night collapse portal.png", "video_timebase": {"num": 1, "den": 30}, "height": 720, "display_ratio": {"num": 16, "den": 9}, "duration": 86400.0, "video_length": "2592000", "top_field_first": true, "media_type": "image", "file_size": "3686400", "channels": 0, "has_single_image": true, "pixel_ratio": {"num": 1, "den": 1}}, {"width": 1280, "has_audio": false, "audio_bit_rate": 0, "id": "FVR00PJ7B0", "vcodec": "", "interlaced_frame": false, "pixel_format": -1, "audio_stream_index": -1, "video_bit_rate": 0, "acodec": "", "channel_layout": 4, "video_stream_index": -1, "fps": {"num": 30, "den": 1}, "audio_timebase": {"num": 1, "den": 1}, "has_video": true, "sample_rate": 0, "type": "QtImageReader", "path": "..\\..\\cygwin64\\home\\john\\misc\\Manna for our Malices\\game\\images\\hallway dark.png", "video_timebase": {"num": 1, "den": 30}, "height": 720, "display_ratio": {"num": 16, "den": 9}, "duration": 86400.0, "video_length": "2592000", "top_field_first": true, "media_type": "image", "file_size": "3686400", "channels": 0, "has_single_image": true, "pixel_ratio": {"num": 1, "den": 1}}, {"width": 640, "has_audio": false, "audio_bit_rate": 0, "id": "K9PRFQTG05", "vcodec": "", "interlaced_frame": false, "pixel_format": -1, "audio_stream_index": -1, "video_bit_rate": 0, "acodec": "", "channel_layout": 4, "video_stream_index": -1, "fps": {"num": 30, "den": 1}, "audio_timebase": {"num": 1, "den": 1}, "has_video": true, "sample_rate": 0, "type": "QtImageReader", "path": "Documents\\ilu.png", "video_timebase": {"num": 1, "den": 30}, "height": 400, "display_ratio": {"num": 8, "den": 5}, "duration": 86400.0, "video_length": "2592000", "top_field_first": true, "media_type": "image", "file_size": "1024000", "channels": 0, "has_single_image": true, "pixel_ratio": {"num": 1, "den": 1}}, {"width": 640, "has_audio": false, "audio_bit_rate": 0, "id": "5DNAQDULEC", "vcodec": "", "interlaced_frame": false, "pixel_format": -1, "audio_stream_index": -1, "video_bit_rate": 0, "acodec": "", "channel_layout": 4, "video_stream_index": -1, "fps": {"num": 30, "den": 1}, "audio_timebase": {"num": 1, "den": 1}, "has_video": true, "sample_rate": 0, "type": "QtImageReader", "path": "Documents\\dtm.png", "video_timebase": {"num": 1, "den": 30}, "height": 400, "display_ratio": {"num": 8, "den": 5}, "duration": 86400.0, "video_length": "2592000", "top_field_first": true, "media_type": "image", "file_size": "1024000", "channels": 0, "has_single_image": true, "pixel_ratio": {"num": 1, "den": 1}}, {"width": 640, "has_audio": false, "audio_bit_rate": 0, "id": "BRLVTD6S10", "vcodec": "", "interlaced_frame": false, "pixel_format": -1, "audio_stream_index": -1, "video_bit_rate": 0, "acodec": "", "channel_layout": 4, "video_stream_index": -1, "fps": {"num": 30, "den": 1}, "audio_timebase": {"num": 1, "den": 1}, "has_video": true, "sample_rate": 0, "type": "QtImageReader", "path": "Documents\\h.png", "video_timebase": {"num": 1, "den": 30}, "height": 400, "display_ratio": {"num": 8, "den": 5}, "duration": 86400.0, "video_length": "2592000", "top_field_first": true, "media_type": "image", "file_size": "1024000", "channels": 0, "has_single_image": true, "pixel_ratio": {"num": 1, "den": 1}}, {"width": 640, "has_audio": false, "audio_bit_rate": 0, "id": "6LR2P5OCWN", "vcodec": "", "interlaced_frame": false, "pixel_format": -1, "audio_stream_index": -1, "video_bit_rate": 0, "acodec": "", "channel_layout": 4, "video_stream_index": -1, "fps": {"num": 30, "den": 1}, "audio_timebase": {"num": 1, "den": 1}, "has_video": true, "sample_rate": 0, "type": "QtImageReader", "path": "Documents\\ga.png", "video_timebase": {"num": 1, "den": 30}, "height": 400, "display_ratio": {"num": 8, "den": 5}, "duration": 86400.0, "video_length": "2592000", "top_field_first": true, "media_type": "image", "file_size": "1024000", "channels": 0, "has_single_image": true, "pixel_ratio": {"num": 1, "den": 1}}, {"width": 944, "has_audio": false, "audio_bit_rate": 0, "id": "ISQTTSP71Z", "vcodec": "", "interlaced_frame": false, "pixel_format": -1, "audio_stream_index": -1, "video_bit_rate": 0, "acodec": "", "channel_layout": 4, "video_stream_index": -1, "fps": {"num": 30, "den": 1}, "audio_timebase": {"num": 1, "den": 1}, "has_video": true, "sample_rate": 0, "type": "QtImageReader", "path": "Documents\\mfom1.png", "video_timebase": {"num": 1, "den": 30}, "height": 608, "display_ratio": {"num": 59, "den": 38}, "duration": 86400.0, "video_length": "2592000", "top_field_first": true, "media_type": "image", "file_size": "2295808", "channels": 0, "has_single_image": true, "pixel_ratio": {"num": 1, "den": 1}}, {"width": 944, "has_audio": false, "audio_bit_rate": 0, "id": "TOQTIBFULH", "vcodec": "", "interlaced_frame": false, "pixel_format": -1, "audio_stream_index": -1, "video_bit_rate": 0, "acodec": "", "channel_layout": 4, "video_stream_index": -1, "fps": {"num": 30, "den": 1}, "audio_timebase": {"num": 1, "den": 1}, "has_video": true, "sample_rate": 0, "type": "QtImageReader", "path": "Documents\\mfom2.png", "video_timebase": {"num": 1, "den": 30}, "height": 608, "display_ratio": {"num": 59, "den": 38}, "duration": 86400.0, "video_length": "2592000", "top_field_first": true, "media_type": "image", "file_size": "2295808", "channels": 0, "has_single_image": true, "pixel_ratio": {"num": 1, "den": 1}}, {"width": 944, "has_audio": false, "audio_bit_rate": 0, "id": "FGVFVQ8H4G", "vcodec": "", "interlaced_frame": false, "pixel_format": -1, "audio_stream_index": -1, "video_bit_rate": 0, "acodec": "", "channel_layout": 4, "video_stream_index": -1, "fps": {"num": 30, "den": 1}, "audio_timebase": {"num": 1, "den": 1}, "has_video": true, "sample_rate": 0, "type": "QtImageReader", "path": "Documents\\mfom3.png", "video_timebase": {"num": 1, "den": 30}, "height": 608, "display_ratio": {"num": 59, "den": 38}, "duration": 86400.0, "video_length": "2592000", "top_field_first": true, "media_type": "image", "file_size": "2295808", "channels": 0, "has_single_image": true, "pixel_ratio": {"num": 1, "den": 1}}, {"width": 944, "has_audio": false, "audio_bit_rate": 0, "id": "X4TZVB2JH1", "vcodec": "", "interlaced_frame": false, "pixel_format": -1, "audio_stream_index": -1, "video_bit_rate": 0, "acodec": "", "channel_layout": 4, "video_stream_index": -1, "fps": {"num": 30, "den": 1}, "audio_timebase": {"num": 1, "den": 1}, "has_video": true, "sample_rate": 0, "type": "QtImageReader", "path": "Documents\\mfom4.png", "video_timebase": {"num": 1, "den": 30}, "height": 608, "display_ratio": {"num": 59, "den": 38}, "duration": 86400.0, "video_length": "2592000", "top_field_first": true, "media_type": "image", "file_size": "2295808", "channels": 0, "has_single_image": true, "pixel_ratio": {"num": 1, "den": 1}}, {"width": 944, "has_audio": false, "audio_bit_rate": 0, "id": "SM04TKECNH", "vcodec": "", "interlaced_frame": false, "pixel_format": -1, "audio_stream_index": -1, "video_bit_rate": 0, "acodec": "", "channel_layout": 4, "video_stream_index": -1, "fps": {"num": 30, "den": 1}, "audio_timebase": {"num": 1, "den": 1}, "has_video": true, "sample_rate": 0, "type": "QtImageReader", "path": "Documents\\mfom5.png", "video_timebase": {"num": 1, "den": 30}, "height": 608, "display_ratio": {"num": 59, "den": 38}, "duration": 86400.0, "video_length": "2592000", "top_field_first": true, "media_type": "image", "file_size": "2295808", "channels": 0, "has_single_image": true, "pixel_ratio": {"num": 1, "den": 1}}, {"width": 944, "has_audio": false, "audio_bit_rate": 0, "id": "OW0O8C8DF2", "vcodec": "", "interlaced_frame": false, "pixel_format": -1, "audio_stream_index": -1, "video_bit_rate": 0, "acodec": "", "channel_layout": 4, "video_stream_index": -1, "fps": {"num": 30, "den": 1}, "audio_timebase": {"num": 1, "den": 1}, "has_video": true, "sample_rate": 0, "type": "QtImageReader", "path": "Documents\\mfom6.png", "video_timebase": {"num": 1, "den": 30}, "height": 608, "display_ratio": {"num": 59, "den": 38}, "duration": 86400.0, "video_length": "2592000", "top_field_first": true, "media_type": "image", "file_size": "2295808", "channels": 0, "has_single_image": true, "pixel_ratio": {"num": 1, "den": 1}}, {"width": 944, "has_audio": false, "audio_bit_rate": 0, "id": "DSWPXMYKYY", "vcodec": "", "interlaced_frame": false, "pixel_format": -1, "audio_stream_index": -1, "video_bit_rate": 0, "acodec": "", "channel_layout": 4, "video_stream_index": -1, "fps": {"num": 30, "den": 1}, "audio_timebase": {"num": 1, "den": 1}, "has_video": true, "sample_rate": 0, "type": "QtImageReader", "path": "Documents\\mfom7.png", "video_timebase": {"num": 1, "den": 30}, "height": 608, "display_ratio": {"num": 59, "den": 38}, "duration": 86400.0, "video_length": "2592000", "top_field_first": true, "media_type": "image", "file_size": "2295808", "channels": 0, "has_single_image": true, "pixel_ratio": {"num": 1, "den": 1}}, {"width": 944, "has_audio": false, "audio_bit_rate": 0, "id": "4JPWQLMGTX", "vcodec": "", "interlaced_frame": false, "pixel_format": -1, "audio_stream_index": -1, "video_bit_rate": 0, "acodec": "", "channel_layout": 4, "video_stream_index": -1, "fps": {"num": 30, "den": 1}, "audio_timebase": {"num": 1, "den": 1}, "has_video": true, "sample_rate": 0, "type": "QtImageReader", "path": "Documents\\mfom8.png", "video_timebase": {"num": 1, "den": 30}, "height": 608, "display_ratio": {"num": 59, "den": 38}, "duration": 86400.0, "video_length": "2592000", "top_field_first": true, "media_type": "image", "file_size": "2295808", "channels": 0, "has_single_image": true, "pixel_ratio": {"num": 1, "den": 1}}, {"width": 944, "has_audio": false, "audio_bit_rate": 0, "id": "GOIGJD5762", "vcodec": "", "interlaced_frame": false, "pixel_format": -1, "audio_stream_index": -1, "video_bit_rate": 0, "acodec": "", "channel_layout": 4, "video_stream_index": -1, "fps": {"num": 30, "den": 1}, "audio_timebase": {"num": 1, "den": 1}, "has_video": true, "sample_rate": 0, "type": "QtImageReader", "path": "Documents\\mfom9.png", "video_timebase": {"num": 1, "den": 30}, "height": 608, "display_ratio": {"num": 59, "den": 38}, "duration": 86400.0, "video_length": "2592000", "top_field_first": true, "media_type": "image", "file_size": "2295808", "channels": 0, "has_single_image": true, "pixel_ratio": {"num": 1, "den": 1}}, {"width": 944, "has_audio": false, "audio_bit_rate": 0, "id": "YGZWI1WXJI", "vcodec": "", "interlaced_frame": false, "pixel_format": -1, "audio_stream_index": -1, "video_bit_rate": 0, "acodec": "", "channel_layout": 4, "video_stream_index": -1, "fps": {"num": 30, "den": 1}, "audio_timebase": {"num": 1, "den": 1}, "has_video": true, "sample_rate": 0, "type": "QtImageReader", "path": "Documents\\mfom10.png", "video_timebase": {"num": 1, "den": 30}, "height": 608, "display_ratio": {"num": 59, "den": 38}, "duration": 86400.0, "video_length": "2592000", "top_field_first": true, "media_type": "image", "file_size": "2295808", "channels": 0, "has_single_image": true, "pixel_ratio": {"num": 1, "den": 1}}, {"width": 944, "has_audio": false, "audio_bit_rate": 0, "id": "I3NID6TSGE", "vcodec": "", "interlaced_frame": false, "pixel_format": -1, "audio_stream_index": -1, "video_bit_rate": 0, "acodec": "", "channel_layout": 4, "video_stream_index": -1, "fps": {"num": 30, "den": 1}, "audio_timebase": {"num": 1, "den": 1}, "has_video": true, "sample_rate": 0, "type": "QtImageReader", "path": "Documents\\mfom11.png", "video_timebase": {"num": 1, "den": 30}, "height": 608, "display_ratio": {"num": 59, "den": 38}, "duration": 86400.0, "video_length": "2592000", "top_field_first": true, "media_type": "image", "file_size": "2295808", "channels": 0, "has_single_image": true, "pixel_ratio": {"num": 1, "den": 1}}, {"width": 944, "has_audio": false, "audio_bit_rate": 0, "id": "B72ZALR6SA", "vcodec": "", "interlaced_frame": false, "pixel_format": -1, "audio_stream_index": -1, "video_bit_rate": 0, "acodec": "", "channel_layout": 4, "video_stream_index": -1, "fps": {"num": 30, "den": 1}, "audio_timebase": {"num": 1, "den": 1}, "has_video": true, "sample_rate": 0, "type": "QtImageReader", "path": "Documents\\mfom12.png", "video_timebase": {"num": 1, "den": 30}, "height": 608, "display_ratio": {"num": 59, "den": 38}, "duration": 86400.0, "video_length": "2592000", "top_field_first": true, "media_type": "image", "file_size": "2295808", "channels": 0, "has_single_image": true, "pixel_ratio": {"num": 1, "den": 1}}, {"width": 944, "has_audio": false, "audio_bit_rate": 0, "id": "XE7D0CK9N3", "vcodec": "", "interlaced_frame": false, "pixel_format": -1, "audio_stream_index": -1, "video_bit_rate": 0, "acodec": "", "channel_layout": 4, "video_stream_index": -1, "fps": {"num": 30, "den": 1}, "audio_timebase": {"num": 1, "den": 1}, "has_video": true, "sample_rate": 0, "type": "QtImageReader", "path": "Documents\\mfom13.png", "video_timebase": {"num": 1, "den": 30}, "height": 608, "display_ratio": {"num": 59, "den": 38}, "duration": 86400.0, "video_length": "2592000", "top_field_first": true, "media_type": "image", "file_size": "2295808", "channels": 0, "has_single_image": true, "pixel_ratio": {"num": 1, "den": 1}}, {"width": 944, "has_audio": false, "audio_bit_rate": 0, "id": "LBOQII7HDG", "vcodec": "", "interlaced_frame": false, "pixel_format": -1, "audio_stream_index": -1, "video_bit_rate": 0, "acodec": "", "channel_layout": 4, "video_stream_index": -1, "fps": {"num": 30, "den": 1}, "audio_timebase": {"num": 1, "den": 1}, "has_video": true, "sample_rate": 0, "type": "QtImageReader", "path": "Documents\\mfom14.png", "video_timebase": {"num": 1, "den": 30}, "height": 608, "display_ratio": {"num": 59, "den": 38}, "duration": 86400.0, "video_length": "2592000", "top_field_first": true, "media_type": "image", "file_size": "2295808", "channels": 0, "has_single_image": true, "pixel_ratio": {"num": 1, "den": 1}}, {"acodec": "mp3", "audio_bit_rate": 159922, "audio_stream_index": 0, "audio_timebase": {"den": 14112000, "num": 1}, "channel_layout": 3, "channels": 2, "display_ratio": {"den": 1, "num": 1}, "duration": 98.08979797363281, "file_size": "1970666", "fps": {"den": 1, "num": 30}, "has_audio": true, "has_single_image": false, "has_video": true, "height": 400, "interlaced_frame": false, "metadata": {"ID3 v1 Comment": "Attribution-Share Alike 3.0", "TDTG": "2014-06-03T16:37:00", "album": "MDA-904", "artist": "Infocalypse", "comment": "http://www.jamendo.com Attribution-Share Alike 3.0", "copyright": "2012-02-15T11:00:17+01:00 Infocalypse. Licensed to the public under http://creativecommons.org/licenses/by-sa/3.0/ verify at http://www.jamendo.com/album/106504/", "date": "2012", "encoded_by": "Jamendo : http://www.jamendo.com | LAME", "encoder": "LAME3.98r", "genre": "(255)", "publisher": "Jamendo", "title": "Grudge", "track": "03"}, "path": "..\\..\\cygwin64\\home\\john\\misc\\Manna for our Malices\\game\\music\\Infocalypse_-_Grudge.mp3", "pixel_format": 12, "pixel_ratio": {"den": 72, "num": 72}, "sample_rate": 44100, "top_field_first": false, "type": "FFmpegReader", "vcodec": "mjpeg", "video_bit_rate": 20090, "video_length": "2942", "video_stream_index": 1, "video_timebase": {"den": 90000, "num": 1}, "width": 400, "media_type": "video", "id": "VLG468LRHI"}, {"acodec": "mp3", "audio_bit_rate": 195915, "audio_stream_index": 0, "audio_timebase": {"den": 14112000, "num": 1}, "channel_layout": 3, "channels": 2, "display_ratio": {"den": 1, "num": 1}, "duration": 92.23836517333984, "file_size": "2286291", "fps": {"den": 1, "num": 30}, "has_audio": true, "has_single_image": false, "has_video": true, "height": 400, "interlaced_frame": false, "metadata": {"ID3 v1 Comment": "Attribution-Share Alike 3.0", "TDTG": "2013-10-04T10:57:24", "album": "Pretty Demon Lines EP", "artist": "Infocalypse", "comment": "http://www.jamendo.com Attribution-Share Alike 3.0", "copyright": "2013-04-14T08:56:55+01:00 Infocalypse. Licensed to the public under http://creativecommons.org/licenses/by-sa/3.0/ verify at http://www.jamendo.com/album/120657/", "date": "2013", "encoded_by": "Jamendo : http://www.jamendo.com | LAME", "encoder": "LAME3.98r", "genre": "(255)", "publisher": "Jamendo", "title": "Grey Metallum (my tits sell anarchy)", "track": "02"}, "path": "..\\..\\cygwin64\\home\\john\\misc\\Manna for our Malices\\game\\music\\Infocalypse_-_Grey_Metallum__my_tits_sell_anarchy_.mp3", "pixel_format": 8, "pixel_ratio": {"den": 72, "num": 72}, "sample_rate": 44100, "top_field_first": false, "type": "FFmpegReader", "vcodec": "mjpeg", "video_bit_rate": 24786, "video_length": "2767", "video_stream_index": 1, "video_timebase": {"den": 90000, "num": 1}, "width": 400, "media_type": "video", "id": "IA60T4WE68"}], "fps": {"num": 24, "den": 1}, "playhead_position": 0, "layers": [{"lock": false, "label": "", "y": 0, "id": "L0", "number": 0}, {"lock": false, "label": "", "y": 0, "id": "L1", "number": 1}, {"lock": false, "label": "", "y": 0, "id": "L2", "number": 2}, {"lock": false, "label": "", "y": 0, "id": "L3", "number": 3}, {"lock": false, "label": "", "y": 0, "id": "L4", "number": 4}, {"lock": false, "label": "", "y": 0, "id": "CD2CIPEB92", "number": 5}, {"lock": false, "label": "", "y": 0, "id": "U69IIA7COX", "number": 6}, {"lock": false, "label": "", "y": 0, "id": "JJXJL659VY", "number": 7}, {"number": 8, "y": 0, "label": "", "lock": false, "id": "ZSBL7S23GC"}], "duration": 300, "export_path": "C:/cygwin64/home/john/misc/Manna for our Malices", "progress": [], "channels": 2, "settings": {}, "import_path": "C:/cygwin64/home/john/misc/Manna for our Malices/game/music"}